<svg xmlns="http://www.w3.org/2000/svg" viewBox="0 0 300.68 300.65"><defs><style>.cls-1{fill:#00d782;}.cls-2{fill:#fff;}</style></defs><title>LINE Flea Market_Interactive Mirror Mock </title><g id="Layer_1" data-name="Layer 1"><path class="cls-1" d="M300.65,300.65H0V0H300.65ZM6.44,294.2H294.2V6.44H6.44Z"/><rect class="cls-1" width="300.68" height="66.19"/><polygon class="cls-2" points="208.97 51.62 209.22 51.62 209.42 51.05 209.09 51.05 208.97 51.62"/><path class="cls-2" d="M193.88,51.35h.57v1.49h.34V51.35h.56V51h-1.47Z"/><path class="cls-2" d="M196.25,51.56a.46.46,0,0,0-.4.19V51h-.31v1.8h.31v-.65a.32.32,0,0,1,.31-.34c.17,0,.29.09.29.33v.66h.31v-.67C196.76,51.8,196.61,51.56,196.25,51.56Z"/><path class="cls-2" d="M198,51.75a.45.45,0,0,0-.4-.21.62.62,0,0,0-.66.67.61.61,0,0,0,.65.67.49.49,0,0,0,.41-.22l0,.18h.29V51.58H198Zm-.37.84a.36.36,0,0,1-.38-.38.37.37,0,0,1,.38-.39A.39.39,0,0,1,197.65,52.59Z"/><path class="cls-2" d="M199.3,51.55a.58.58,0,0,0-.41.19l0-.17h-.28v1.27h.31v-.65a.33.33,0,0,1,.32-.35.31.31,0,0,1,.31.34v.66h.31v-.66A.56.56,0,0,0,199.3,51.55Z"/><polygon class="cls-2" points="201.29 52.84 201.29 52.82 200.7 52.17 201.22 51.59 201.22 51.58 200.84 51.58 200.41 52.08 200.41 51.05 200.1 51.05 200.1 52.84 200.41 52.84 200.41 52.27 200.91 52.84 201.29 52.84"/><path class="cls-2" d="M203.57,51.8h-.77v.3h.46v.32a.62.62,0,0,1-.41.14.56.56,0,0,1-.62-.59.62.62,0,0,1,.62-.67.72.72,0,0,1,.46.18l.21-.21a.94.94,0,0,0-.67-.28.92.92,0,0,0-.95,1,.87.87,0,0,0,.95.91.91.91,0,0,0,.72-.32Z"/><path class="cls-2" d="M205.08,52.21a.66.66,0,1,0-.66.66A.64.64,0,0,0,205.08,52.21Zm-.66.37a.34.34,0,0,1-.34-.37.35.35,0,0,1,.34-.38.36.36,0,0,1,.34.38A.34.34,0,0,1,204.42,52.58Z"/><path class="cls-2" d="M205.88,51.54a.61.61,0,0,0-.64.67.62.62,0,0,0,.65.66.44.44,0,0,0,.4-.2l0,.17h.3V51.05h-.32v.7A.52.52,0,0,0,205.88,51.54Zm0,1a.35.35,0,0,1-.36-.37.35.35,0,0,1,.36-.37.37.37,0,0,1,0,.74Z"/><rect class="cls-2" x="207.42" y="51.04" width="0.34" height="1.8"/><path class="cls-2" d="M208.9,52.8l-.09-.27a.28.28,0,0,1-.15,0,.16.16,0,0,1-.17-.18v-.54h.36v-.27h-.35v-.36l-.32,0v.33H208v.27h.23v.54a.41.41,0,0,0,.46.47A.82.82,0,0,0,208.9,52.8Z"/><path class="cls-2" d="M210.12,52.06c-.17,0-.24-.05-.24-.13s.08-.13.23-.13a.44.44,0,0,1,.31.11l.18-.2a.69.69,0,0,0-.5-.17c-.23,0-.53.1-.53.4s.29.37.53.39.25,0,.25.13-.11.15-.23.15a.7.7,0,0,1-.44-.18l-.15.23a.73.73,0,0,0,.58.22c.36,0,.55-.19.55-.41S210.35,52.08,210.12,52.06Z"/><polygon class="cls-2" points="211.4 52.84 211.74 52.84 211.74 52.18 212.64 52.18 212.64 51.86 211.74 51.86 211.74 51.37 212.69 51.37 212.69 51.05 211.4 51.05 211.4 52.84"/><rect class="cls-2" x="212.9" y="51.05" width="0.31" height="1.79"/><path class="cls-2" d="M214.1,51.54a.63.63,0,0,0-.67.66.64.64,0,0,0,.69.67.78.78,0,0,0,.55-.2l-.2-.2a.54.54,0,0,1-.34.12c-.22,0-.36-.11-.38-.27h1C214.79,51.8,214.52,51.54,214.1,51.54Zm-.34.52a.33.33,0,0,1,.35-.25c.18,0,.31.08.33.25Z"/><path class="cls-2" d="M216,51.58v.17a.45.45,0,0,0-.4-.21.62.62,0,0,0-.66.67.61.61,0,0,0,.65.67.49.49,0,0,0,.41-.22l0,.18h.29V51.58Zm-.38,1a.36.36,0,0,1-.38-.38.37.37,0,0,1,.38-.39A.39.39,0,0,1,215.6,52.59Z"/><path class="cls-2" d="M202.19,54.21a.45.45,0,0,0-.42.23.4.4,0,0,0-.38-.24.37.37,0,0,0-.33.18l0-.15h-.29v1.26h.32v-.67a.29.29,0,0,1,.27-.32c.17,0,.26.15.26.32v.67h.31v-.67a.29.29,0,0,1,.28-.32c.16,0,.23.14.23.31v.68h.32v-.68C202.73,54.43,202.55,54.21,202.19,54.21Z"/><path class="cls-2" d="M204,54.4a.5.5,0,0,0-.41-.2.6.6,0,0,0-.65.66.61.61,0,0,0,.65.67.48.48,0,0,0,.41-.22v.18h.3V54.23h-.3Zm-.38.84a.38.38,0,0,1,0-.76A.38.38,0,0,1,203.66,55.24Z"/><path class="cls-2" d="M204.92,54.37l0-.14h-.29v1.26h.31v-.66a.3.3,0,0,1,.32-.33.32.32,0,0,1,.23.09l.14-.28a.55.55,0,0,0-.33-.12A.39.39,0,0,0,204.92,54.37Z"/><polygon class="cls-2" points="206.83 54.24 206.83 54.23 206.46 54.23 206.03 54.74 206.03 53.7 205.72 53.7 205.72 55.49 206.03 55.49 206.03 54.92 206.53 55.49 206.9 55.49 206.9 55.47 206.31 54.82 206.83 54.24"/><path class="cls-2" d="M207.66,54.19a.63.63,0,0,0-.67.66.64.64,0,0,0,.7.68.76.76,0,0,0,.54-.21l-.2-.2a.49.49,0,0,1-.34.12c-.22,0-.36-.11-.38-.27h1C208.35,54.45,208.09,54.19,207.66,54.19Zm-.34.52a.33.33,0,0,1,.35-.24c.18,0,.31.08.33.24Z"/><path class="cls-2" d="M209.09,55.23c-.1,0-.16-.06-.16-.18V54.5h.35v-.27h-.35v-.36l-.31,0v.32h-.24v.27h.24v.55a.41.41,0,0,0,.45.46.58.58,0,0,0,.26-.06l-.09-.26A.37.37,0,0,1,209.09,55.23Z"/><polygon class="cls-2" points="207.24 42.76 209.35 39.46 200.81 39.46 203.03 42.76 207.24 42.76"/><polygon class="cls-2" points="207.59 49.63 210.19 49.63 213.95 44.73 209.6 39.46 205.24 46.08 207.59 49.63"/><path class="cls-2" d="M200.59,39.46l-4.35,5.28L200,49.63h7.36Zm4.51,9.37a.6.6,0,1,1,.59-.59A.59.59,0,0,1,205.1,48.83Z"/><rect class="cls-2" x="96.74" y="43.83" width="0.69" height="2.98" rx="0.12"/><path class="cls-2" d="M100.34,43.83H99.9a.13.13,0,0,0-.13.12v1.63l-1.25-1.69v0H98a.13.13,0,0,0-.12.12v2.74a.13.13,0,0,0,.12.13h.45a.13.13,0,0,0,.12-.13V45.07l1.26,1.69a0,0,0,0,0,0,0h.51a.13.13,0,0,0,.12-.13V44A.13.13,0,0,0,100.34,43.83Z"/><path class="cls-2" d="M96.24,46.13H95V44a.13.13,0,0,0-.12-.12h-.45a.13.13,0,0,0-.12.12v2.74h0a.13.13,0,0,0,0,.09h0a.12.12,0,0,0,.08,0h1.77a.13.13,0,0,0,.12-.13v-.44A.12.12,0,0,0,96.24,46.13Z"/><path class="cls-2" d="M102.77,43.83H101a.09.09,0,0,0-.08,0h0a.11.11,0,0,0,0,.08h0v2.74h0a.12.12,0,0,0,0,.09h0a.12.12,0,0,0,.08,0h1.76a.13.13,0,0,0,.13-.13v-.44a.12.12,0,0,0-.13-.12h-1.2v-.46h1.2a.13.13,0,0,0,.13-.13V45.1a.13.13,0,0,0-.13-.12h-1.2v-.46h1.2a.13.13,0,0,0,.13-.13V44A.13.13,0,0,0,102.77,43.83Z"/><path class="cls-2" d="M113.27,51.1h-.57s-.07,0-.08,0a.16.16,0,0,1,0-.07l-.18-.5h-1.19L111,51l0,.07s0,0-.08,0h-.55c-.06,0-.08,0-.06-.08l1.1-2.82a.1.1,0,0,1,0-.07.18.18,0,0,1,.11,0h.5a.16.16,0,0,1,.11,0,.19.19,0,0,1,.06.07l1.1,2.82S113.34,51.1,113.27,51.1Zm-1.1-1.22-.36-1-.37,1h.73Z"/><path class="cls-2" d="M115,50.42a.11.11,0,0,1,.08,0,.14.14,0,0,1,.09.05l.19.29a.1.1,0,0,1,0,.09.13.13,0,0,1,0,.07,1.22,1.22,0,0,1-.34.18,1.34,1.34,0,0,1-.4.07,1.13,1.13,0,0,1-.45-.09,1.41,1.41,0,0,1-.37-.25,1.15,1.15,0,0,1-.25-.37.92.92,0,0,1-.1-.44,1.13,1.13,0,0,1,.09-.45,1.21,1.21,0,0,1,.25-.37,1.05,1.05,0,0,1,.37-.25,1.13,1.13,0,0,1,.45-.09,1.16,1.16,0,0,1,.42.07,1.14,1.14,0,0,1,.34.19.16.16,0,0,1,0,.07.1.1,0,0,1,0,.1l-.21.26a.08.08,0,0,1-.08,0,.16.16,0,0,1-.09,0,.56.56,0,0,0-.16-.07.64.64,0,0,0-.2,0,.5.5,0,0,0-.38.15.55.55,0,0,0-.15.4.53.53,0,0,0,.15.39.52.52,0,0,0,.38.15.45.45,0,0,0,.2,0A.64.64,0,0,0,115,50.42Z"/><path class="cls-2" d="M117.17,50.42a.13.13,0,0,1,.09,0,.1.1,0,0,1,.08.05l.19.29a.08.08,0,0,1,0,.09s0,.06,0,.07a1.16,1.16,0,0,1-.33.18,1.34,1.34,0,0,1-.4.07,1.22,1.22,0,0,1-.46-.09,1.6,1.6,0,0,1-.37-.25,1.34,1.34,0,0,1-.25-.37,1,1,0,0,1-.09-.44,1.13,1.13,0,0,1,.09-.45,1.05,1.05,0,0,1,.25-.37,1,1,0,0,1,.36-.25,1.13,1.13,0,0,1,.45-.09,1.16,1.16,0,0,1,.42.07,1,1,0,0,1,.34.19.18.18,0,0,1,0,.07.12.12,0,0,1,0,.1l-.21.26a.08.08,0,0,1-.08,0,.16.16,0,0,1-.09,0,.61.61,0,0,0-.17-.07.58.58,0,0,0-.19,0,.53.53,0,0,0-.39.15.54.54,0,0,0-.14.4.53.53,0,0,0,.15.39.49.49,0,0,0,.38.15.45.45,0,0,0,.2,0A.71.71,0,0,0,117.17,50.42Z"/><path class="cls-2" d="M118.92,48.83a1.13,1.13,0,0,1,.45.09,1,1,0,0,1,.37.25,1.23,1.23,0,0,1,.26.37,1.17,1.17,0,0,1,0,.9,1.28,1.28,0,0,1-.26.38,1.08,1.08,0,0,1-.37.24,1,1,0,0,1-.45.1,1.06,1.06,0,0,1-.46-.1,1.31,1.31,0,0,1-.37-.24,1.25,1.25,0,0,1-.25-.38,1.17,1.17,0,0,1,0-.9,1.21,1.21,0,0,1,.25-.37,1.15,1.15,0,0,1,.37-.25A1.22,1.22,0,0,1,118.92,48.83Zm0,1.7a.58.58,0,0,0,.19,0,.48.48,0,0,0,.16-.12.42.42,0,0,0,.11-.17.66.66,0,0,0,0-.21.71.71,0,0,0,0-.21.5.5,0,0,0-.11-.17.36.36,0,0,0-.16-.11.41.41,0,0,0-.19,0,.45.45,0,0,0-.2,0,.33.33,0,0,0-.15.11.37.37,0,0,0-.1.17.49.49,0,0,0,0,.21.46.46,0,0,0,0,.21.32.32,0,0,0,.1.17.44.44,0,0,0,.15.12A.65.65,0,0,0,118.92,50.53Z"/><path class="cls-2" d="M122.55,50.1a1.16,1.16,0,0,1-.08.42.93.93,0,0,1-.21.33,1.08,1.08,0,0,1-.33.2,1.27,1.27,0,0,1-.44.07,1.23,1.23,0,0,1-.44-.07,1.08,1.08,0,0,1-.33-.2.93.93,0,0,1-.21-.33,1.16,1.16,0,0,1-.08-.42V49a.12.12,0,0,1,0-.09.11.11,0,0,1,.08,0H121a.12.12,0,0,1,.09,0,.16.16,0,0,1,0,.09v1a.49.49,0,0,0,.11.33.41.41,0,0,0,.58,0,.48.48,0,0,0,.1-.33V49a.12.12,0,0,1,0-.09.11.11,0,0,1,.08,0h.42a.12.12,0,0,1,.09,0,.18.18,0,0,1,0,.09Z"/><path class="cls-2" d="M125.05,51.07a.11.11,0,0,1-.08,0h-.44a.11.11,0,0,1-.08,0,.1.1,0,0,1,0-.09v-1.1a.39.39,0,0,0-.1-.29.31.31,0,0,0-.26-.11h-.11l-.11.06a.45.45,0,0,0-.09.1.24.24,0,0,0,0,.15V51a.13.13,0,0,1,0,.09.12.12,0,0,1-.09,0h-.45a.11.11,0,0,1-.08,0,.1.1,0,0,1,0-.09V49a.11.11,0,0,1,0-.09.11.11,0,0,1,.08,0h.45a.12.12,0,0,1,.09,0,.15.15,0,0,1,0,.09v.24a.49.49,0,0,1,.24-.29.66.66,0,0,1,.35-.11.7.7,0,0,1,.58.25,1,1,0,0,1,.22.68V51A.1.1,0,0,1,125.05,51.07Z"/><path class="cls-2" d="M127.2,50.88a.1.1,0,0,1,0,0,1.17,1.17,0,0,1-.27.15,1.25,1.25,0,0,1-.32.05.74.74,0,0,1-.58-.23,1,1,0,0,1-.2-.66v-.79h-.3a.13.13,0,0,1-.09,0,.12.12,0,0,1,0-.09V49a.14.14,0,0,1,0-.09.13.13,0,0,1,.09,0h.3v-.44a.14.14,0,0,1,.12-.12h.42a.1.1,0,0,1,.09,0,.11.11,0,0,1,0,.08v.44h.45a.15.15,0,0,1,.09,0,.14.14,0,0,1,0,.09v.32a.12.12,0,0,1,0,.09.15.15,0,0,1-.09,0h-.44v.77q0,.3.24.3l.09,0,.08,0a.07.07,0,0,1,.07,0s0,0,.06,0l.18.31A.12.12,0,0,1,127.2,50.88Z"/><path class="cls-2" d="M97.09,49.6a1.4,1.4,0,0,1-.12.58,1.47,1.47,0,0,1-.8.8A1.58,1.58,0,0,1,95,51a1.37,1.37,0,0,1-.48-.33,1.4,1.4,0,0,1-.32-.47,1.43,1.43,0,0,1-.12-.58,1.4,1.4,0,0,1,.12-.58,1.44,1.44,0,0,1,.32-.48,1.35,1.35,0,0,1,.48-.32,1.46,1.46,0,0,1,1.16,0,1.55,1.55,0,0,1,.48.32A1.61,1.61,0,0,1,97,49,1.43,1.43,0,0,1,97.09,49.6Zm-.72,0a.92.92,0,0,0-.06-.33.78.78,0,0,0-.17-.26.64.64,0,0,0-.25-.18.68.68,0,0,0-.6,0A.74.74,0,0,0,95,49a.77.77,0,0,0-.17.27.88.88,0,0,0-.06.33.87.87,0,0,0,.06.32.82.82,0,0,0,.42.45.78.78,0,0,0,.6,0,.76.76,0,0,0,.25-.18.9.9,0,0,0,.17-.26A.88.88,0,0,0,96.37,49.6Z"/><path class="cls-2" d="M99.24,48a.16.16,0,0,1,.05.08.1.1,0,0,1,0,.09l-.17.28a.1.1,0,0,1-.08,0,.11.11,0,0,1-.08,0l-.19,0a.3.3,0,0,0-.24.1.42.42,0,0,0-.09.29h.45a.12.12,0,0,1,.09,0A.11.11,0,0,1,99,49v.35a.11.11,0,0,1,0,.08.12.12,0,0,1-.09,0h-.45V51a.16.16,0,0,1,0,.09l-.09,0h-.41a.11.11,0,0,1-.08,0,.12.12,0,0,1,0-.09V49.45h-.25a.1.1,0,0,1-.09,0,.11.11,0,0,1,0-.08V49a.11.11,0,0,1,0-.08.1.1,0,0,1,.09,0h.25a1.07,1.07,0,0,1,.25-.73.82.82,0,0,1,.65-.27,1.55,1.55,0,0,1,.32,0Z"/><path class="cls-2" d="M101.12,48a.1.1,0,0,1,0,.08.1.1,0,0,1,0,.09l-.17.28s0,0-.08,0a.11.11,0,0,1-.08,0l-.19,0a.3.3,0,0,0-.24.1.42.42,0,0,0-.09.29h.45a.14.14,0,0,1,.12.12v.35a.14.14,0,0,1-.12.12h-.45V51a.12.12,0,0,1,0,.09.11.11,0,0,1-.08,0h-.41a.11.11,0,0,1-.12-.12V49.45h-.26a.14.14,0,0,1-.12-.12V49a.14.14,0,0,1,.12-.12h.26a1.12,1.12,0,0,1,.24-.73.84.84,0,0,1,.66-.27,1.65,1.65,0,0,1,.32,0Z"/><path class="cls-2" d="M101.71,47.85A.36.36,0,0,1,102,48a.34.34,0,0,1,.12.27.38.38,0,0,1-.12.28.39.39,0,0,1-.28.11.37.37,0,0,1-.27-.11.41.41,0,0,1-.11-.28.37.37,0,0,1,.11-.27A.34.34,0,0,1,101.71,47.85Zm.34,3.12a.12.12,0,0,1,0,.09.11.11,0,0,1-.08,0h-.43a.14.14,0,0,1-.09,0,.16.16,0,0,1,0-.09V49a.11.11,0,0,1,0-.08.11.11,0,0,1,.09,0h.43a.14.14,0,0,1,.12.12Z"/><path class="cls-2" d="M104,50.42a.13.13,0,0,1,.09,0,.1.1,0,0,1,.08.05l.19.29a.08.08,0,0,1,0,.09s0,.06-.05.07a1.16,1.16,0,0,1-.33.18,1.34,1.34,0,0,1-.4.07,1.22,1.22,0,0,1-.46-.09,1.6,1.6,0,0,1-.37-.25,1.34,1.34,0,0,1-.25-.37,1,1,0,0,1-.09-.44,1.13,1.13,0,0,1,.09-.45,1.05,1.05,0,0,1,.25-.37,1,1,0,0,1,.36-.25,1.13,1.13,0,0,1,.45-.09,1.16,1.16,0,0,1,.42.07,1,1,0,0,1,.34.19.18.18,0,0,1,0,.07.17.17,0,0,1,0,.1l-.21.26s0,0-.08,0a.12.12,0,0,1-.09,0,.61.61,0,0,0-.17-.07.58.58,0,0,0-.19,0,.53.53,0,0,0-.39.15.54.54,0,0,0-.14.4.52.52,0,0,0,.14.39.53.53,0,0,0,.39.15.45.45,0,0,0,.2,0A.71.71,0,0,0,104,50.42Z"/><path class="cls-2" d="M105.08,47.85a.38.38,0,0,1,.28.12.37.37,0,0,1,.11.27.38.38,0,0,1-.39.39.38.38,0,0,1-.38-.39.33.33,0,0,1,.11-.27A.34.34,0,0,1,105.08,47.85Zm.34,3.12a.12.12,0,0,1,0,.09.11.11,0,0,1-.08,0h-.43a.12.12,0,0,1-.09,0,.18.18,0,0,1,0-.09V49a.12.12,0,0,1,0-.08.1.1,0,0,1,.09,0h.43a.14.14,0,0,1,.12.12Z"/><path class="cls-2" d="M108.13,51a.12.12,0,0,1,0,.09.11.11,0,0,1-.09,0h-.46a.09.09,0,0,1-.08,0,.1.1,0,0,1,0-.09V50.8a1.31,1.31,0,0,1-.24.23.57.57,0,0,1-.32.09,1,1,0,0,1-.37-.08,1,1,0,0,1-.33-.22,1.31,1.31,0,0,1-.23-.36,1.21,1.21,0,0,1-.09-.48,1.19,1.19,0,0,1,.09-.47,1,1,0,0,1,.22-.36.82.82,0,0,1,.32-.23.85.85,0,0,1,.38-.09.52.52,0,0,1,.33.1.83.83,0,0,1,.24.21V49a.12.12,0,0,1,0-.09.11.11,0,0,1,.08,0H108a.14.14,0,0,1,.09,0,.16.16,0,0,1,0,.09Zm-1.14-.5a.42.42,0,0,0,.32-.14.5.5,0,0,0,.12-.34.51.51,0,0,0-.12-.35.42.42,0,0,0-.32-.14.41.41,0,0,0-.31.14.51.51,0,0,0-.12.35.5.5,0,0,0,.12.34A.41.41,0,0,0,107,50.46Z"/><path class="cls-2" d="M108.58,48a.12.12,0,0,1,0-.09.18.18,0,0,1,.09,0h.46a.12.12,0,0,1,.08,0,.1.1,0,0,1,0,.09v3a.1.1,0,0,1,0,.09.09.09,0,0,1-.08,0h-.46a.12.12,0,0,1-.12-.13Z"/><path class="cls-2" d="M91.62,43.67a9.32,9.32,0,0,0-2.76-.55l-.73,0-.74,0a9.23,9.23,0,0,0-2.75.55.42.42,0,0,0-.28.4v4.14c0,2.11,2.9,3.37,3.61,3.65a.42.42,0,0,0,.31,0c.72-.28,3.61-1.54,3.61-3.65V44.07A.43.43,0,0,0,91.62,43.67Zm-2.28,5a.15.15,0,0,1-.15.15H87.06a.12.12,0,0,1-.1,0h0a.18.18,0,0,1,0-.1h0V45.35a.15.15,0,0,1,.15-.15h.53a.15.15,0,0,1,.15.15V48h1.45a.14.14,0,0,1,.15.14Z"/><path class="cls-2" d="M183.5,15.59h-8.62a.52.52,0,0,0-.52.52V18a.52.52,0,0,0,.52.52h2.82V28a.52.52,0,0,0,.52.52h1.93a.52.52,0,0,0,.52-.52V18.56h2.83A.52.52,0,0,0,184,18V16.11A.52.52,0,0,0,183.5,15.59Z"/><path class="cls-2" d="M150.64,27.74l-2.4-4.09a4.3,4.3,0,0,0,2.19-3.83,4.36,4.36,0,0,0-4.38-4.23h-4.47a.52.52,0,0,0-.52.52V28a.52.52,0,0,0,.52.52h1.94A.52.52,0,0,0,144,28V24.21h1.26l2.38,4.06a.5.5,0,0,0,.45.25h2.06A.52.52,0,0,0,150.64,27.74ZM144,18.56h2a1.39,1.39,0,0,1,1,.4,1.3,1.3,0,0,1,0,1.88,1.36,1.36,0,0,1-1,.4h-2Z"/><path class="cls-2" d="M172.69,18V16.11a.52.52,0,0,0-.52-.52h-7.66a.52.52,0,0,0-.52.52V28a.52.52,0,0,0,.52.52h7.66a.52.52,0,0,0,.52-.52V26.07a.52.52,0,0,0-.52-.52H167v-2h4.54A.52.52,0,0,0,172,23V21.09a.52.52,0,0,0-.52-.52H167v-2h5.21A.52.52,0,0,0,172.69,18Z"/><path class="cls-2" d="M159.82,28.52H162a.52.52,0,0,0,.43-.81L158.46,22l3.62-5.62a.52.52,0,0,0-.44-.8h-2.18a.52.52,0,0,0-.44.24L156,20.57h-.44V16.11a.52.52,0,0,0-.52-.52h-1.93a.52.52,0,0,0-.52.52V28a.52.52,0,0,0,.52.52H155a.52.52,0,0,0,.52-.52V23.54h.57l3.29,4.76A.53.53,0,0,0,159.82,28.52Z"/><path class="cls-2" d="M137,28.51h1.87a.52.52,0,0,0,.49-.69l-4.24-11.9a.52.52,0,0,0-.49-.34H132.4a.53.53,0,0,0-.49.34l-4.24,11.9a.52.52,0,0,0,.49.69H130a.52.52,0,0,0,.49-.34l.67-1.89h4.66l.67,1.89A.52.52,0,0,0,137,28.51Zm-4.76-5.2,1.27-3.56,1.27,3.56Z"/><path class="cls-2" d="M122.7,15.84l-3.19,5.35-3.19-5.35a.55.55,0,0,0-.45-.25h-2.31a.52.52,0,0,0-.52.52V28a.52.52,0,0,0,.52.52h1.94A.52.52,0,0,0,116,28V20.57l2.82,4.73a.54.54,0,0,0,.45.25h.44a.55.55,0,0,0,.45-.25L123,20.57V28a.52.52,0,0,0,.52.52h1.94A.52.52,0,0,0,126,28V16.11a.52.52,0,0,0-.52-.52h-2.31A.55.55,0,0,0,122.7,15.84Z"/><path class="cls-2" d="M229.64,15.59H221a.52.52,0,0,0-.52.52V18a.52.52,0,0,0,.52.52h2.83V28a.52.52,0,0,0,.52.52h1.93a.52.52,0,0,0,.52-.52V18.56h2.82a.52.52,0,0,0,.52-.52V16.11A.52.52,0,0,0,229.64,15.59Z"/><path class="cls-2" d="M208.59,18V16.11a.52.52,0,0,0-.52-.52h-7.66a.52.52,0,0,0-.52.52V28a.52.52,0,0,0,.52.52h7.66a.52.52,0,0,0,.52-.52V26.07a.52.52,0,0,0-.52-.52h-5.21v-2h4.54a.52.52,0,0,0,.52-.52V21.09a.52.52,0,0,0-.52-.52h-4.54v-2h5.21A.52.52,0,0,0,208.59,18Z"/><path class="cls-2" d="M197.52,18.56A.52.52,0,0,0,198,18V16.11a.52.52,0,0,0-.52-.52h-7.43a.52.52,0,0,0-.53.52V28a.52.52,0,0,0,.52.52h2a.45.45,0,0,0,.45-.44V23.54h4.61a.52.52,0,0,0,.52-.52V21.09a.52.52,0,0,0-.52-.52h-4.61v-2Z"/><path class="cls-2" d="M214.74,15.59a4.37,4.37,0,0,0-3,1.05,3.58,3.58,0,0,0-1.19,2.77v0c0,2.59,1.72,3.26,4,3.87,2,.54,2.17,1,2.17,1.51v0c0,.69-.61,1.11-1.63,1.11a7.1,7.1,0,0,1-3.83-1.46.49.49,0,0,0-.78.4v1.76a.49.49,0,0,0,.21.41,8.34,8.34,0,0,0,4.49,1.44,4.84,4.84,0,0,0,3.16-1.08,3.45,3.45,0,0,0,1.09-2.84v0c0-2.29-1.37-3.17-3.64-3.8-2.07-.56-2.49-.82-2.49-1.56v0c0-.61.57-1,1.45-1a5.42,5.42,0,0,1,3,1,.5.5,0,0,0,.78-.42V17a.5.5,0,0,0-.25-.43A7.08,7.08,0,0,0,214.74,15.59Z"/><rect class="cls-2" x="80.81" y="15.59" width="2.97" height="12.93" rx="0.53"/><path class="cls-2" d="M96.41,15.59H94.5a.53.53,0,0,0-.53.53v7.05l-5.44-7.34,0-.06h0l0,0h0l0,0h0l0,0H86.18a.53.53,0,0,0-.53.53V28a.52.52,0,0,0,.53.53h1.91a.53.53,0,0,0,.53-.53v-7l5.45,7.36a.53.53,0,0,0,.13.13h.06l0,0h2.13a.52.52,0,0,0,.53-.53V16.12A.53.53,0,0,0,96.41,15.59Z"/><path class="cls-2" d="M78.65,25.55H73.46V16.12a.54.54,0,0,0-.54-.53H71a.53.53,0,0,0-.53.53V28h0a.52.52,0,0,0,.15.37h0a.51.51,0,0,0,.36.14h7.64a.53.53,0,0,0,.53-.53V26.08A.53.53,0,0,0,78.65,25.55Z"/><path class="cls-2" d="M107,18.56a.53.53,0,0,0,.53-.53V16.12a.53.53,0,0,0-.53-.53H99.33a.56.56,0,0,0-.37.15h0a.51.51,0,0,0-.15.36h0V28h0a.52.52,0,0,0,.15.37h0a.51.51,0,0,0,.36.14H107a.53.53,0,0,0,.53-.53V26.08a.53.53,0,0,0-.53-.53h-5.19v-2H107a.53.53,0,0,0,.53-.53V21.1a.53.53,0,0,0-.53-.53h-5.19v-2Z"/><path class="cls-2" d="M182.05,47.47a3.91,3.91,0,0,0-3.92-3.92H142.65a4,4,0,0,0-4,3.78,3.93,3.93,0,0,0,3.92,4.06h35.58A3.92,3.92,0,0,0,182.05,47.47Zm-39.5,3.31a3.31,3.31,0,0,1-3.31-3.43,3.37,3.37,0,0,1,3.4-3.2H161a3.32,3.32,0,1,0,0,6.63Zm21-1.88a.11.11,0,0,1-.11.11H161.6a.12.12,0,0,1-.11-.11V46a.11.11,0,0,1,.11-.11h.47a.11.11,0,0,1,.11.11v2.34h1.29a.11.11,0,0,1,.11.11Zm1.13,0a.11.11,0,0,1-.11.11h-.46a.11.11,0,0,1-.11-.11V46a.11.11,0,0,1,.11-.11h.46a.11.11,0,0,1,.11.11Zm3.25,0a.11.11,0,0,1-.11.11h-.51l0,0-1.39-1.9V48.9a.11.11,0,0,1-.11.11h-.47a.11.11,0,0,1-.11-.11V46a.11.11,0,0,1,.11-.11h.54l1.39,1.88V46a.11.11,0,0,1,.11-.11h.47A.11.11,0,0,1,168,46Zm2.61-2.45a.11.11,0,0,1-.11.11h-1.3v.54h1.3a.11.11,0,0,1,.11.11v.47a.11.11,0,0,1-.11.1h-1.3v.54h1.3a.11.11,0,0,1,.11.11v.47a.11.11,0,0,1-.11.11h-1.88a.11.11,0,0,1-.07,0h0a.09.09,0,0,1,0-.07V46a.13.13,0,0,1,0-.08.19.19,0,0,1,.08,0h1.87a.11.11,0,0,1,.11.11Zm2.31,1.79h-.44v.66a.11.11,0,0,1-.11.11h-.47a.1.1,0,0,1-.1-.11V46h0a.1.1,0,0,1,.1-.11h1a1.19,1.19,0,0,1,0,2.37Zm3.41.64a.13.13,0,0,1-.13.13H175a.8.8,0,0,1-.8-.86.82.82,0,0,1,.83-.75h.66c0-.17-.08-.22-.11-.24s-.35-.15-.93,0a.14.14,0,0,1-.15-.1l-.08-.31a.12.12,0,0,1,.1-.15,1.69,1.69,0,0,1,1.41.12.94.94,0,0,1,.35.79Zm1.22.77H177a.09.09,0,0,1-.08-.12l.38-.9-.78-2a.1.1,0,0,1,.09-.14h.48a.13.13,0,0,1,.12.08l.46,1.15.49-1.16a.12.12,0,0,1,.11-.07h.52a.08.08,0,0,1,.07.11l-1.24,2.95A.11.11,0,0,1,177.51,49.65Z"/><path class="cls-2" d="M172.88,46.56h-.44v1h.44a.5.5,0,0,0,0-1Z"/><path class="cls-2" d="M174.79,48.25a.23.23,0,0,0,.23.18h.69V48H175A.23.23,0,0,0,174.79,48.25Z"/><path class="cls-2" d="M145.27,48.45a.64.64,0,0,1-.63-.64.63.63,0,0,1,.63-.63.64.64,0,0,1,.64.63.64.64,0,0,1-.64.64m0-2a1.32,1.32,0,0,0-1.34,1.33,1.28,1.28,0,0,0,1.24,1.31.85.85,0,0,0,.57-.19l.17-.12v.24h.69V47.88a1.31,1.31,0,0,0-1.33-1.38"/><path class="cls-2" d="M148.28,48.45a.64.64,0,0,1-.63-.64.63.63,0,0,1,.63-.63.64.64,0,0,1,.64.63.64.64,0,0,1-.64.64m.09-2a1,1,0,0,0-.57.17l-.17.11V45.46H147v2.28a1.34,1.34,0,1,0,2.67.06,1.29,1.29,0,0,0-1.25-1.3"/><path class="cls-2" d="M151.24,48.45a.64.64,0,0,1-.63-.64.63.63,0,1,1,1.26,0,.64.64,0,0,1-.63.64m.09-2a1,1,0,0,0-.57.17l-.17.11V45.46h-.68v2.28a1.31,1.31,0,0,0,1.32,1.4,1.34,1.34,0,0,0,1.35-1.34,1.29,1.29,0,0,0-1.25-1.3"/><rect class="cls-2" x="152.91" y="46.57" width="0.7" height="2.5"/><path class="cls-2" d="M155.38,47.17v-.59h-.68V45.46H154v2.63a.87.87,0,0,0,.3.8,1.14,1.14,0,0,0,.78.18h.28v-.6h-.21c-.37,0-.47-.1-.47-.45v-.85Z"/><path class="cls-2" d="M143.75,46.5a1.31,1.31,0,0,0-1.32,1.38v1.19h.69V48c0-.49.24-.79.64-.79h0V46.5h-.05"/></g></svg>