<svg xmlns="http://www.w3.org/2000/svg" xmlns:xlink="http://www.w3.org/1999/xlink" viewBox="0 0 300.68 300.65"><defs><style>.cls-1,.cls-12,.cls-13,.cls-15,.cls-7,.cls-8,.cls-9{fill:none;}.cls-2{fill:#00d782;}.cls-3{clip-path:url(#clip-path);}.cls-17,.cls-4,.cls-5,.cls-6{fill:#fff;}.cls-10,.cls-12,.cls-13,.cls-14,.cls-15,.cls-16,.cls-17,.cls-5,.cls-6,.cls-7,.cls-8,.cls-9{stroke:#000;}.cls-11,.cls-5{stroke-miterlimit:10;}.cls-5,.cls-6{stroke-width:0.99px;}.cls-10,.cls-12,.cls-13,.cls-14,.cls-15,.cls-16,.cls-17,.cls-6,.cls-7,.cls-8,.cls-9{stroke-linecap:round;stroke-linejoin:round;}.cls-7{stroke-width:1.03px;}.cls-8{stroke-width:0.82px;}.cls-10,.cls-9{stroke-width:0.92px;}.cls-11{stroke:#fff;stroke-width:0.25px;}.cls-12{stroke-width:0.74px;}.cls-13,.cls-14{stroke-width:0.8px;}.cls-14{fill:#08ae3c;}.cls-15,.cls-16,.cls-17{stroke-width:0.94px;}</style><clipPath id="clip-path"><rect class="cls-1" x="0.04" y="4.19" width="300.65" height="62"/></clipPath></defs><title>LINE Flea Market_Interactive Mirror Mock </title><g id="Layer_1" data-name="Layer 1"><path class="cls-2" d="M300.65,300.65H0V0H300.65ZM6.44,294.2H294.2V6.44H6.44Z"/><rect class="cls-2" width="300.68" height="66.19"/><g class="cls-3"><polygon class="cls-4" points="262.41 52.17 262.62 52.17 262.79 51.68 262.51 51.68 262.41 52.17"/><path class="cls-4" d="M249.54,51.94H250v1.27h.29V51.94h.48v-.26h-1.26Z"/><path class="cls-4" d="M251.56,52.12a.39.39,0,0,0-.33.16v-.6H251v1.53h.27v-.55a.27.27,0,0,1,.26-.29c.15,0,.25.08.25.28v.56H252v-.57C252,52.33,251.87,52.12,251.56,52.12Z"/><path class="cls-4" d="M253.08,52.28a.41.41,0,0,0-.35-.17.52.52,0,0,0-.56.56.53.53,0,0,0,.56.58.45.45,0,0,0,.35-.19v.15h.25V52.13h-.26Zm-.32.72a.33.33,0,0,1,0-.65A.33.33,0,0,1,252.76,53Z"/><path class="cls-4" d="M254.17,52.12a.44.44,0,0,0-.35.16l0-.15h-.24v1.08h.27v-.55a.28.28,0,0,1,.27-.3.26.26,0,0,1,.26.29v.56h.27v-.56A.47.47,0,0,0,254.17,52.12Z"/><polygon class="cls-4" points="255.86 53.21 255.86 53.19 255.36 52.64 255.8 52.15 255.8 52.13 255.48 52.13 255.12 52.57 255.12 51.68 254.85 51.68 254.85 53.21 255.12 53.21 255.12 52.73 255.54 53.21 255.86 53.21"/><path class="cls-4" d="M257.8,52.33h-.65v.26h.39v.27a.55.55,0,0,1-.35.12.48.48,0,0,1-.52-.51.52.52,0,0,1,.52-.57.57.57,0,0,1,.39.16l.18-.19a.83.83,0,0,0-.57-.23.78.78,0,0,0-.81.83.74.74,0,0,0,.81.78.77.77,0,0,0,.61-.28Z"/><path class="cls-4" d="M259.09,52.67a.55.55,0,0,0-.56-.56.57.57,0,1,0,.56.56Zm-.56.32a.32.32,0,0,1,0-.63.29.29,0,0,1,.29.31A.29.29,0,0,1,258.53,53Z"/><path class="cls-4" d="M259.77,52.11a.51.51,0,0,0-.54.56.53.53,0,0,0,.55.57.4.4,0,0,0,.35-.18l0,.15h.25V51.68h-.27v.6A.45.45,0,0,0,259.77,52.11Zm0,.88a.31.31,0,0,1-.31-.32.31.31,0,1,1,.31.32Z"/><rect class="cls-4" x="261.09" y="51.68" width="0.29" height="1.53"/><path class="cls-4" d="M262.35,53.18l-.08-.23a.33.33,0,0,1-.13,0c-.08,0-.14-.05-.14-.16v-.46h.3v-.23H262v-.31l-.27,0v.28h-.2v.23h.2v.46a.35.35,0,0,0,.39.4A.87.87,0,0,0,262.35,53.18Z"/><path class="cls-4" d="M263.39,52.55c-.14,0-.2,0-.2-.12s.07-.1.19-.1a.38.38,0,0,1,.27.09l.15-.17a.6.6,0,0,0-.42-.15c-.2,0-.46.09-.46.34s.24.32.45.34.21,0,.21.11-.09.13-.19.13a.59.59,0,0,1-.37-.15l-.13.19a.62.62,0,0,0,.49.19c.31,0,.47-.16.47-.35S263.59,52.56,263.39,52.55Z"/><polygon class="cls-4" points="264.48 53.21 264.77 53.21 264.77 52.65 265.54 52.65 265.54 52.38 264.77 52.38 264.77 51.96 265.58 51.96 265.58 51.68 264.48 51.68 264.48 53.21"/><rect class="cls-4" x="265.76" y="51.68" width="0.26" height="1.53"/><path class="cls-4" d="M266.78,52.1a.57.57,0,1,0,0,1.14.71.71,0,0,0,.47-.17l-.17-.17a.48.48,0,0,1-.29.1c-.19,0-.31-.1-.32-.23h.84C267.37,52.33,267.14,52.1,266.78,52.1Zm-.29.45a.29.29,0,0,1,.3-.21c.16,0,.27.07.28.21Z"/><path class="cls-4" d="M268.39,52.13v.15a.41.41,0,0,0-.34-.17.57.57,0,0,0,0,1.14.45.45,0,0,0,.35-.19v.15h.25V52.13Zm-.33.87a.33.33,0,0,1,0-.65A.33.33,0,0,1,268.06,53Z"/><path class="cls-4" d="M256.63,54.38a.38.38,0,0,0-.36.2.33.33,0,0,0-.32-.21.34.34,0,0,0-.29.16v-.14h-.25v1.08h.26V54.9a.25.25,0,0,1,.23-.27.24.24,0,0,1,.23.27v.57h.26V54.9a.25.25,0,0,1,.24-.27c.14,0,.2.12.2.26v.58h.27v-.58C257.09,54.57,256.94,54.38,256.63,54.38Z"/><path class="cls-4" d="M258.2,54.54a.39.39,0,0,0-.34-.17.57.57,0,0,0,0,1.14.45.45,0,0,0,.35-.19l0,.15h.25V54.4h-.26Zm-.31.72a.33.33,0,0,1,0-.65A.33.33,0,0,1,257.89,55.26Z"/><path class="cls-4" d="M259,54.52l0-.12h-.25v1.07H259v-.56a.25.25,0,0,1,.27-.28.27.27,0,0,1,.19.07l.12-.23a.39.39,0,0,0-.27-.1A.33.33,0,0,0,259,54.52Z"/><polygon class="cls-4" points="260.59 54.41 260.59 54.4 260.27 54.4 259.9 54.83 259.9 53.95 259.64 53.95 259.64 55.47 259.9 55.47 259.9 54.99 260.33 55.47 260.65 55.47 260.65 55.45 260.15 54.9 260.59 54.41"/><path class="cls-4" d="M261.29,54.36a.57.57,0,1,0,0,1.14.64.64,0,0,0,.46-.17l-.17-.17a.46.46,0,0,1-.29.1A.29.29,0,0,1,261,55h.84C261.88,54.59,261.66,54.36,261.29,54.36Zm-.29.45a.29.29,0,0,1,.3-.21c.16,0,.27.07.28.21Z"/><path class="cls-4" d="M262.51,55.25c-.08,0-.14,0-.14-.16v-.46h.3V54.4h-.29v-.31l-.27,0v.28h-.2v.23h.2v.46a.35.35,0,0,0,.39.4.59.59,0,0,0,.22-.05l-.08-.23A.33.33,0,0,1,262.51,55.25Z"/><polygon class="cls-4" points="260.93 44.63 262.74 41.81 255.45 41.81 257.34 44.63 260.93 44.63"/><polygon class="cls-4" points="261.24 50.47 263.45 50.47 266.65 46.3 262.94 41.8 259.23 47.45 261.24 50.47"/><path class="cls-4" d="M255.27,41.81l-3.71,4.5,3.2,4.17H261Zm3.84,8a.5.5,0,0,1-.5-.5.5.5,0,1,1,1,0A.5.5,0,0,1,259.11,49.79Z"/><rect class="cls-4" x="166.74" y="45.53" width="0.58" height="2.54" rx="0.1"/><path class="cls-4" d="M169.81,45.53h-.37a.11.11,0,0,0-.11.11V47l-1.07-1.45h-.46a.11.11,0,0,0-.11.11V48a.11.11,0,0,0,.11.11h.37a.11.11,0,0,0,.11-.11V46.59L169.35,48l0,0h.43a.11.11,0,0,0,.11-.11V45.64A.11.11,0,0,0,169.81,45.53Z"/><path class="cls-4" d="M166.32,47.49h-1V45.64a.11.11,0,0,0-.11-.11h-.38a.11.11,0,0,0-.1.11V48h0a.11.11,0,0,0,0,.08h0a.11.11,0,0,0,.07,0h1.51a.11.11,0,0,0,.1-.11V47.6A.11.11,0,0,0,166.32,47.49Z"/><path class="cls-4" d="M171.89,45.53h-1.5a.11.11,0,0,0-.08,0h0a.08.08,0,0,0,0,.07h0V48h0a.11.11,0,0,0,0,.08h0a.11.11,0,0,0,.08,0h1.5A.1.1,0,0,0,172,48V47.6a.1.1,0,0,0-.1-.11h-1V47.1h1A.1.1,0,0,0,172,47v-.37a.1.1,0,0,0-.1-.11h-1v-.39h1A.1.1,0,0,0,172,46v-.37A.1.1,0,0,0,171.89,45.53Z"/><path class="cls-4" d="M180.84,51.73h-.49s-.06,0-.07,0a.09.09,0,0,1,0-.06l-.16-.43h-1l-.15.43,0,.06a.08.08,0,0,1-.07,0h-.47c-.05,0-.07,0-.05-.07l.94-2.4s0,0,0-.06a.17.17,0,0,1,.1,0h.43a.12.12,0,0,1,.09,0l.05.06.94,2.4C180.91,51.71,180.9,51.73,180.84,51.73Zm-.94-1-.31-.86-.32.86h.63Z"/><path class="cls-4" d="M182.33,51.15l.08,0a.1.1,0,0,1,.07,0l.16.24a.08.08,0,0,1,0,.08s0,0,0,.06a1.06,1.06,0,0,1-.28.15,1,1,0,0,1-.34.06,1,1,0,0,1-.39-.08,1,1,0,0,1-.31-.21.84.84,0,0,1-.22-.31,1,1,0,0,1-.08-.38,1,1,0,0,1,.29-.7,1,1,0,0,1,.31-.21,1,1,0,0,1,.38-.08,1,1,0,0,1,.36.06.9.9,0,0,1,.29.16.16.16,0,0,1,0,.07.08.08,0,0,1,0,.08l-.18.22s-.05,0-.07,0a.12.12,0,0,1-.08,0,.35.35,0,0,0-.14-.06.41.41,0,0,0-.16,0,.45.45,0,0,0-.33.12.45.45,0,0,0-.13.34.44.44,0,0,0,.46.46.65.65,0,0,0,.32-.1Z"/><path class="cls-4" d="M184.16,51.15l.07,0a.1.1,0,0,1,.08,0l.16.24a.12.12,0,0,1,0,.08.1.1,0,0,1-.05.06,1.06,1.06,0,0,1-.28.15,1,1,0,0,1-.34.06,1,1,0,0,1-.39-.08,1,1,0,0,1-.32-.21,1,1,0,0,1-.21-.31,1,1,0,0,1-.08-.38,1,1,0,0,1,.29-.7,1,1,0,0,1,.31-.21,1,1,0,0,1,.38-.08,1,1,0,0,1,.36.06.9.9,0,0,1,.29.16.16.16,0,0,1,0,.07.08.08,0,0,1,0,.08l-.18.22s0,0-.07,0a.11.11,0,0,1-.08,0,.35.35,0,0,0-.14-.06.55.55,0,0,0-.49.1.45.45,0,0,0-.13.34.42.42,0,0,0,.13.33.41.41,0,0,0,.32.13.52.52,0,0,0,.18,0A.51.51,0,0,0,184.16,51.15Z"/><path class="cls-4" d="M185.65,49.79a1,1,0,0,1,.39.08,1,1,0,0,1,.31.21.87.87,0,0,1,.22.32,1,1,0,0,1,.08.39,1,1,0,0,1-.08.38.87.87,0,0,1-.22.32,1,1,0,0,1-.31.21,1,1,0,0,1-.78,0,1,1,0,0,1-.31-.21,1.21,1.21,0,0,1-.22-.32,1,1,0,0,1-.07-.38,1,1,0,0,1,.07-.39,1.21,1.21,0,0,1,.22-.32,1,1,0,0,1,.31-.21A1,1,0,0,1,185.65,49.79Zm0,1.45a.51.51,0,0,0,.17,0l.13-.1A.42.42,0,0,0,186,51a.57.57,0,0,0,0-.18.58.58,0,0,0,0-.19.42.42,0,0,0-.09-.14l-.13-.1a.51.51,0,0,0-.17,0,.47.47,0,0,0-.17,0l-.13.1a.67.67,0,0,0-.09.14.58.58,0,0,0,0,.19.57.57,0,0,0,0,.18.67.67,0,0,0,.09.14l.13.1A.47.47,0,0,0,185.65,51.24Z"/><path class="cls-4" d="M188.74,50.87a1.06,1.06,0,0,1-.06.37.64.64,0,0,1-.18.27.79.79,0,0,1-.29.18,1.06,1.06,0,0,1-.37.06,1.1,1.1,0,0,1-.37-.06.79.79,0,0,1-.29-.18.91.91,0,0,1-.18-.27,1.06,1.06,0,0,1-.06-.37v-.94a.1.1,0,0,1,.1-.1h.36a.11.11,0,0,1,.08,0,.14.14,0,0,1,0,.07v.9a.41.41,0,0,0,.1.28.3.3,0,0,0,.24.1.33.33,0,0,0,.25-.1.41.41,0,0,0,.09-.28v-.9a.1.1,0,0,1,.1-.1h.36a.1.1,0,0,1,.1.1Z"/><path class="cls-4" d="M190.88,51.7a.11.11,0,0,1-.07,0h-.37a.11.11,0,0,1-.08,0,.09.09,0,0,1,0-.07v-.94a.39.39,0,0,0-.08-.25.33.33,0,0,0-.23-.1l-.09,0-.09,0-.08.08a.5.5,0,0,0,0,.13v1a.1.1,0,0,1-.1.1h-.39a.1.1,0,0,1-.1-.1V49.94a.1.1,0,0,1,.1-.1h.39a.1.1,0,0,1,.1.1v.21a.49.49,0,0,1,.21-.26.58.58,0,0,1,.3-.09.61.61,0,0,1,.5.22.86.86,0,0,1,.18.58v1A.09.09,0,0,1,190.88,51.7Z"/><path class="cls-4" d="M192.71,51.54l0,.05a.71.71,0,0,1-.23.12.86.86,0,0,1-.27,0,.62.62,0,0,1-.49-.2.81.81,0,0,1-.18-.57v-.67h-.25a.09.09,0,0,1-.07,0,.11.11,0,0,1,0-.08v-.27a.11.11,0,0,1,0-.08.09.09,0,0,1,.07,0h.26v-.37a.11.11,0,0,1,0-.08.09.09,0,0,1,.07,0H192a.09.09,0,0,1,.07,0,.11.11,0,0,1,0,.08v.37h.39a.11.11,0,0,1,.07,0,.11.11,0,0,1,0,.08v.27a.11.11,0,0,1,0,.08.11.11,0,0,1-.07,0h-.38V51c0,.17.07.25.2.25h.08l.07,0,.06,0a.1.1,0,0,1,0,0l.15.27A.07.07,0,0,1,192.71,51.54Z"/><path class="cls-4" d="M167,50.45a1.21,1.21,0,0,1-.1.5,1.41,1.41,0,0,1-.27.4,1.13,1.13,0,0,1-.41.27,1.16,1.16,0,0,1-.49.1,1.18,1.18,0,0,1-.5-.1,1.13,1.13,0,0,1-.41-.27,1.27,1.27,0,0,1-.27-.41,1.16,1.16,0,0,1-.1-.49,1.21,1.21,0,0,1,.1-.5,1.23,1.23,0,0,1,.27-.4,1.3,1.3,0,0,1,.41-.28,1.28,1.28,0,0,1,1,0,1.3,1.3,0,0,1,.41.28,1.41,1.41,0,0,1,.27.4A1.24,1.24,0,0,1,167,50.45Zm-.61,0a.87.87,0,0,0-.05-.28.66.66,0,0,0-.15-.22.65.65,0,0,0-.21-.16.53.53,0,0,0-.25,0,.55.55,0,0,0-.26,0,.86.86,0,0,0-.22.15.68.68,0,0,0-.14.23.81.81,0,0,0,0,.56.64.64,0,0,0,.14.22.69.69,0,0,0,.22.16.71.71,0,0,0,.26,0,.7.7,0,0,0,.25,0,.65.65,0,0,0,.21-.16.66.66,0,0,0,.15-.22A.87.87,0,0,0,166.43,50.45Z"/><path class="cls-4" d="M168.88,49.09a.09.09,0,0,1,0,.06.11.11,0,0,1,0,.08l-.14.24a.12.12,0,0,1-.07.05h-.07a.45.45,0,0,0-.16,0,.26.26,0,0,0-.2.08.34.34,0,0,0-.08.25h.38a.11.11,0,0,1,.08,0,.19.19,0,0,1,0,.08v.29a.14.14,0,0,1,0,.07.11.11,0,0,1-.08,0h-.38v1.3a.1.1,0,0,1-.1.1h-.35a.1.1,0,0,1-.1-.1v-1.3h-.22a.11.11,0,0,1-.08,0,.09.09,0,0,1,0-.07v-.29a.1.1,0,0,1,.11-.11h.22a.86.86,0,0,1,.21-.62.69.69,0,0,1,.55-.23,1.1,1.1,0,0,1,.27,0A.85.85,0,0,1,168.88,49.09Z"/><path class="cls-4" d="M170.48,49.09a.09.09,0,0,1,0,.06.11.11,0,0,1,0,.08l-.14.24a.12.12,0,0,1-.07.05h-.07l-.16,0a.29.29,0,0,0-.21.08.39.39,0,0,0-.07.25h.38a.09.09,0,0,1,.07,0,.11.11,0,0,1,0,.08v.29a.1.1,0,0,1-.1.1h-.38v1.3a.09.09,0,0,1,0,.07.11.11,0,0,1-.07,0h-.35a.1.1,0,0,1-.1-.1v-1.3H169a.11.11,0,0,1-.08,0,.09.09,0,0,1,0-.07v-.29a.1.1,0,0,1,.11-.11h.22a.91.91,0,0,1,.2-.62A.72.72,0,0,1,170,49a1.1,1.1,0,0,1,.27,0A.85.85,0,0,1,170.48,49.09Z"/><path class="cls-4" d="M171,49a.33.33,0,0,1,.23.1.29.29,0,0,1,.1.23.3.3,0,0,1-.1.24.32.32,0,0,1-.23.09.31.31,0,0,1-.33-.33.32.32,0,0,1,.09-.23A.33.33,0,0,1,171,49Zm.28,2.66a.1.1,0,0,1-.1.1h-.37a.1.1,0,0,1-.1-.1V49.93a.11.11,0,0,1,0-.08.09.09,0,0,1,.07,0h.37a.09.09,0,0,1,.07,0,.11.11,0,0,1,0,.08Z"/><path class="cls-4" d="M172.93,51.15l.07,0s.05,0,.07,0l.17.24a.11.11,0,0,1,0,.08.09.09,0,0,1,0,.06,1.13,1.13,0,0,1-.29.15,1,1,0,0,1-.34.06,1,1,0,0,1-.38-.08.89.89,0,0,1-.32-.21,1.16,1.16,0,0,1-.22-.31,1,1,0,0,1-.08-.38,1,1,0,0,1,.61-.91.92.92,0,0,1,.38-.08,1,1,0,0,1,.36.06,1.18,1.18,0,0,1,.29.16.15.15,0,0,1,0,.07.08.08,0,0,1,0,.08l-.18.22s0,0-.07,0a.08.08,0,0,1-.07,0,.47.47,0,0,0-.15-.06.39.39,0,0,0-.16,0,.45.45,0,0,0-.33.12.49.49,0,0,0-.12.34.43.43,0,0,0,.45.46.47.47,0,0,0,.17,0A.56.56,0,0,0,172.93,51.15Z"/><path class="cls-4" d="M173.86,49a.33.33,0,0,1,.23.1.29.29,0,0,1,.1.23.3.3,0,0,1-.1.24.32.32,0,0,1-.23.09.31.31,0,0,1-.33-.33.32.32,0,0,1,.09-.23A.33.33,0,0,1,173.86,49Zm.28,2.66a.1.1,0,0,1-.1.1h-.37a.1.1,0,0,1-.1-.1V49.93a.11.11,0,0,1,0-.08.09.09,0,0,1,.07,0H174a.09.09,0,0,1,.07,0,.11.11,0,0,1,0,.08Z"/><path class="cls-4" d="M176.46,51.61a.1.1,0,0,1-.11.11H176a.09.09,0,0,1-.07,0,.11.11,0,0,1,0-.08v-.13a1.29,1.29,0,0,1-.21.19.5.5,0,0,1-.27.08.92.92,0,0,1-.32-.07.83.83,0,0,1-.27-.19,1,1,0,0,1-.2-.31,1,1,0,0,1-.08-.41,1.34,1.34,0,0,1,.07-.4.91.91,0,0,1,.19-.3.86.86,0,0,1,.27-.2.78.78,0,0,1,.33-.07.44.44,0,0,1,.28.08.74.74,0,0,1,.21.18v-.14a.1.1,0,0,1,.1-.1h.39a.11.11,0,0,1,.08,0,.09.09,0,0,1,0,.07Zm-1-.43a.34.34,0,0,0,.26-.12.42.42,0,0,0,.11-.29.44.44,0,0,0-.11-.29.34.34,0,0,0-.26-.12.34.34,0,0,0-.27.12.43.43,0,0,0-.1.29.41.41,0,0,0,.1.29A.34.34,0,0,0,175.49,51.18Z"/><path class="cls-4" d="M176.84,49.07a.11.11,0,0,1,0-.08.09.09,0,0,1,.07,0h.39a.09.09,0,0,1,.07,0,.11.11,0,0,1,0,.08v2.54a.11.11,0,0,1,0,.08.09.09,0,0,1-.07,0h-.39a.09.09,0,0,1-.07,0,.11.11,0,0,1,0-.08Z"/><path class="cls-4" d="M162.38,45.39a8.1,8.1,0,0,0-2.35-.46l-.63,0-.62,0a8,8,0,0,0-2.35.46.38.38,0,0,0-.23.35v3.53c0,1.8,2.46,2.87,3.07,3.11a.42.42,0,0,0,.27,0c.61-.24,3.07-1.31,3.07-3.11V45.74A.38.38,0,0,0,162.38,45.39Zm-1.94,4.27a.12.12,0,0,1-.13.12h-1.82a.11.11,0,0,1-.08,0h0a.11.11,0,0,1,0-.08h0V46.83a.13.13,0,0,1,.13-.13H159a.13.13,0,0,1,.13.13v2.25h1.23a.12.12,0,0,1,.13.12Z"/><path class="cls-4" d="M240.7,21.46h-7.35a.44.44,0,0,0-.44.45v1.64a.44.44,0,0,0,.44.45h2.41v8a.44.44,0,0,0,.44.45h1.65a.45.45,0,0,0,.44-.45V24h2.41a.45.45,0,0,0,.44-.45V21.91A.45.45,0,0,0,240.7,21.46Z"/><path class="cls-4" d="M212.69,31.82l-2-3.49a3.67,3.67,0,0,0,1.86-3.26,3.72,3.72,0,0,0-3.73-3.61H205a.44.44,0,0,0-.44.45V32a.44.44,0,0,0,.44.45h1.65a.45.45,0,0,0,.44-.45V28.81h1.08l2,3.46a.47.47,0,0,0,.39.22h1.76A.45.45,0,0,0,212.69,31.82ZM207.06,24h1.7a1.15,1.15,0,0,1,.88.34,1.09,1.09,0,0,1,.33.8,1.13,1.13,0,0,1-.33.8,1.19,1.19,0,0,1-.88.34h-1.7Z"/><path class="cls-4" d="M231.48,23.55V21.91a.45.45,0,0,0-.44-.45h-6.53a.45.45,0,0,0-.44.45V32a.45.45,0,0,0,.44.45H231a.45.45,0,0,0,.44-.45V30.4A.45.45,0,0,0,231,30H226.6V28.24h3.87a.44.44,0,0,0,.44-.44V26.15a.44.44,0,0,0-.44-.44H226.6V24H231A.45.45,0,0,0,231.48,23.55Z"/><path class="cls-4" d="M220.52,32.49h1.83a.45.45,0,0,0,.37-.7l-3.37-4.86,3.09-4.78a.45.45,0,0,0-.37-.69h-1.86a.48.48,0,0,0-.38.2l-2.6,4.05h-.37v-3.8a.45.45,0,0,0-.44-.45h-1.65a.45.45,0,0,0-.44.45V32a.45.45,0,0,0,.44.45h1.65a.45.45,0,0,0,.44-.45v-3.8h.49l2.8,4.06A.47.47,0,0,0,220.52,32.49Z"/><path class="cls-4" d="M201.07,32.48h1.6a.44.44,0,0,0,.41-.6l-3.61-10.13a.44.44,0,0,0-.42-.3h-1.91a.44.44,0,0,0-.41.3l-3.62,10.13a.45.45,0,0,0,.42.6h1.59a.44.44,0,0,0,.42-.3l.57-1.61h4l.57,1.61A.45.45,0,0,0,201.07,32.48ZM197,28l1.08-3,1.08,3Z"/><path class="cls-4" d="M188.88,21.68l-2.73,4.55-2.72-4.55a.43.43,0,0,0-.38-.22h-2a.45.45,0,0,0-.45.45V32a.45.45,0,0,0,.45.45h1.64a.45.45,0,0,0,.45-.45V25.7l2.4,4A.46.46,0,0,0,186,30h.37a.44.44,0,0,0,.38-.21l2.41-4V32a.45.45,0,0,0,.45.45h1.64a.45.45,0,0,0,.45-.45V21.91a.45.45,0,0,0-.45-.45h-2A.43.43,0,0,0,188.88,21.68Z"/><path class="cls-4" d="M280,21.46h-7.35a.45.45,0,0,0-.44.45v1.64a.45.45,0,0,0,.44.45h2.41v8a.45.45,0,0,0,.44.45h1.65a.44.44,0,0,0,.44-.45V24H280a.45.45,0,0,0,.45-.45V21.91A.45.45,0,0,0,280,21.46Z"/><path class="cls-4" d="M262.08,23.55V21.91a.45.45,0,0,0-.44-.45h-6.53a.45.45,0,0,0-.44.45V32a.45.45,0,0,0,.44.45h6.53a.45.45,0,0,0,.44-.45V30.4a.45.45,0,0,0-.44-.45H257.2V28.24h3.87a.44.44,0,0,0,.44-.44V26.15a.44.44,0,0,0-.44-.44H257.2V24h4.44A.45.45,0,0,0,262.08,23.55Z"/><path class="cls-4" d="M252.65,24a.45.45,0,0,0,.44-.45V21.91a.45.45,0,0,0-.44-.45h-6.34a.45.45,0,0,0-.44.45V32a.45.45,0,0,0,.44.45H248a.38.38,0,0,0,.38-.38V28.24h3.93a.44.44,0,0,0,.44-.44V26.15a.44.44,0,0,0-.44-.44H248.4V24Z"/><path class="cls-4" d="M267.33,21.46a3.76,3.76,0,0,0-2.56.89,3.08,3.08,0,0,0-1,2.37v0c0,2.21,1.46,2.78,3.37,3.3,1.7.46,1.85.88,1.85,1.29v0c0,.58-.52.94-1.39.94a6,6,0,0,1-3.26-1.25.43.43,0,0,0-.67.35v1.5a.44.44,0,0,0,.18.35,7.12,7.12,0,0,0,3.83,1.23,4.07,4.07,0,0,0,2.69-.93,2.94,2.94,0,0,0,.93-2.42v0c0-1.95-1.17-2.71-3.1-3.24-1.77-.48-2.12-.7-2.12-1.33v0c0-.53.48-.84,1.23-.84a4.68,4.68,0,0,1,2.58.81.42.42,0,0,0,.66-.35V22.67a.44.44,0,0,0-.21-.37A6.08,6.08,0,0,0,267.33,21.46Z"/><rect class="cls-4" x="153.17" y="21.46" width="2.53" height="11.02" rx="0.45"/><path class="cls-4" d="M166.47,21.46h-1.63a.45.45,0,0,0-.45.45v6l-4.64-6.27,0,0h0l0,0h0l0,0h0l0,0h-1.87a.45.45,0,0,0-.45.45V32a.46.46,0,0,0,.45.46h1.63a.46.46,0,0,0,.45-.46V26l4.65,6.28a.57.57,0,0,0,.11.11h0l0,0h.1l.12,0h1.63a.46.46,0,0,0,.45-.46V21.91A.45.45,0,0,0,166.47,21.46Z"/><path class="cls-4" d="M151.33,30H146.9v-8a.45.45,0,0,0-.45-.45h-1.63a.46.46,0,0,0-.46.45V32h0a.44.44,0,0,0,.13.32h0a.44.44,0,0,0,.32.13h6.51a.46.46,0,0,0,.45-.46V30.4A.45.45,0,0,0,151.33,30Z"/><path class="cls-4" d="M175.46,24a.47.47,0,0,0,.46-.46V21.91a.46.46,0,0,0-.46-.45H169a.44.44,0,0,0-.32.13h0a.44.44,0,0,0-.13.31h0V32h0a.44.44,0,0,0,.13.32h0a.44.44,0,0,0,.32.13h6.5a.47.47,0,0,0,.46-.46V30.4a.46.46,0,0,0-.46-.45H171V28.24h4.42a.46.46,0,0,0,.46-.45V26.16a.46.46,0,0,0-.46-.45H171V24Z"/><path class="cls-4" d="M239.47,48.63a3.35,3.35,0,0,0-3.35-3.34H205.88a3.4,3.4,0,0,0-3.42,3.23A3.34,3.34,0,0,0,205.8,52h30.32A3.35,3.35,0,0,0,239.47,48.63ZM205.8,51.46A2.83,2.83,0,0,1,203,48.53a2.88,2.88,0,0,1,2.9-2.72H221.5a2.83,2.83,0,1,0,0,5.65Zm17.92-1.61a.1.1,0,0,1-.09.1H222a.11.11,0,0,1-.07,0,.14.14,0,0,1,0-.07V47.37a.09.09,0,0,1,.09-.09h.4a.09.09,0,0,1,.09.09v2h1.11a.09.09,0,0,1,.09.09Zm1,0a.11.11,0,0,1-.1.1h-.4a.1.1,0,0,1-.09-.1V47.37a.09.09,0,0,1,.09-.09h.4a.1.1,0,0,1,.1.09Zm2.76,0a.1.1,0,0,1-.09.1h-.44l0,0-1.19-1.62v1.56a.1.1,0,0,1-.09.1h-.4a.1.1,0,0,1-.09-.1V47.37a.09.09,0,0,1,.09-.09h.46l1.19,1.6V47.37a.09.09,0,0,1,.09-.09h.4a.09.09,0,0,1,.09.09Zm2.23-2.08a.09.09,0,0,1-.1.09h-1.1v.46h1.1a.09.09,0,0,1,.1.09v.4a.09.09,0,0,1-.1.09h-1.1v.46h1.1a.09.09,0,0,1,.1.09v.4a.1.1,0,0,1-.1.1H228a.09.09,0,0,1-.07,0h0a.09.09,0,0,1,0-.07V47.37a.09.09,0,0,1,0-.07.08.08,0,0,1,.07,0h1.59a.09.09,0,0,1,.1.09Zm2,1.52h-.37v.56a.1.1,0,0,1-.09.1h-.4a.1.1,0,0,1-.09-.1V47.37h0a.09.09,0,0,1,.09-.09h.86a1,1,0,1,1,0,2Zm2.91.55a.11.11,0,0,1-.11.11h-1a.7.7,0,0,1-.69-.74.72.72,0,0,1,.71-.64h.56a.25.25,0,0,0-.09-.2c-.09-.07-.31-.13-.79,0a.11.11,0,0,1-.13-.08L233,48a.11.11,0,0,1,.08-.14,1.46,1.46,0,0,1,1.21.11.82.82,0,0,1,.29.68Zm1,.65h-.45c-.05,0-.09-.05-.07-.09l.33-.78-.67-1.68a.09.09,0,0,1,.08-.12h.41a.12.12,0,0,1,.1.07l.39,1,.42-1a.1.1,0,0,1,.1-.07h.43a.07.07,0,0,1,.07.1s-.9,2.15-1.06,2.52A.09.09,0,0,1,235.6,50.49Z"/><path class="cls-4" d="M231.64,47.86h-.37v.85h.37a.43.43,0,1,0,0-.85Z"/><path class="cls-4" d="M233.27,49.3a.2.2,0,0,0,.2.15h.59v-.38h-.59A.2.2,0,0,0,233.27,49.3Z"/><path class="cls-4" d="M208.11,49.47a.54.54,0,0,1,0-1.08.54.54,0,1,1,0,1.08m0-1.66A1.12,1.12,0,0,0,207,48.94,1.09,1.09,0,0,0,208,50.06a.74.74,0,0,0,.49-.16l.14-.11V50h.58V49a1.11,1.11,0,0,0-1.13-1.17"/><path class="cls-4" d="M210.68,49.47a.54.54,0,1,1,.54-.54.54.54,0,0,1-.54.54m.08-1.66a.87.87,0,0,0-.49.14l-.15.09V46.93h-.58v1.93a1.14,1.14,0,1,0,2.28.06,1.1,1.1,0,0,0-1.06-1.11"/><path class="cls-4" d="M213.2,49.47a.54.54,0,1,1,.54-.54.54.54,0,0,1-.54.54m.08-1.66a.87.87,0,0,0-.49.14l-.15.09V46.93h-.58v1.93a1.14,1.14,0,1,0,2.28.06,1.1,1.1,0,0,0-1.06-1.11"/><rect class="cls-4" x="214.62" y="47.87" width="0.6" height="2.13"/><path class="cls-4" d="M216.73,48.38v-.51h-.58v-.94h-.58v2.23c0,.36.06.54.26.69a1,1,0,0,0,.66.15h.24v-.51h-.18c-.31,0-.4-.09-.4-.39v-.72Z"/><path class="cls-4" d="M206.82,47.81A1.11,1.11,0,0,0,205.69,49v1h.59v-1c0-.42.2-.67.54-.67h0v-.57h0"/><path class="cls-4" d="M80.77,25.65c-.09,2.72.18,5.5-.54,8.12-.25.91-.6,2,0,2.72a2.52,2.52,0,0,0,1,.65,12.24,12.24,0,0,0,2.44.73,6.36,6.36,0,0,0,2.91,0,2.85,2.85,0,0,0,2-1.94c.32-1.38-.73-2.77-.55-4.17a1.1,1.1,0,0,1,.2-.54,1.48,1.48,0,0,1,.43-.31c2-1.11,3-3.32,3.65-5.46a11.75,11.75,0,0,0,.64-4.9,5.45,5.45,0,0,0-2.51-4.1c-1-.55-2.12-.69-3.14-1.14S84.73,13.53,83.67,14c-.72.35-1,2.14-1.27,2.82A29.7,29.7,0,0,0,80.77,25.65Z"/><path d="M89.9,143.2l7.63,2.71s5.85,1.43,6-2.18c0,0,1.09-2.64-7.49-6.3a18.55,18.55,0,0,0-2.67-.36,22.78,22.78,0,0,0-1.1,2.62l-2-2Z"/><path d="M63.28,118.66,64,128.93s1.15,4,4.1,4c0,0,3.5,1.07,3.33-4.71l-.65-6.6-2.9-4.9Z"/><path class="cls-5" d="M90.21,130.24c-.08.24.3,5.25.49,7.81.07.85.11,1.43.11,1.47a13.81,13.81,0,0,0,2.11,1.26s.3-3.22,2.7-2.9l-1.09-9.62Z"/><path class="cls-5" d="M69.48,116.4a2.36,2.36,0,0,0-1.61.36c-.81.61-1.69,1.4-1.69,1.4l.49,5.25s1.26-1.15,3.82-.22l.93-5.08Z"/><path class="cls-6" d="M88.43,33.89l1.76,1.27s-3.57,6.59-13.56-1.11L80.07,33"/><path class="cls-5" d="M69.14,58.62l5.7-.43L76.2,76l-2.32,3.47S69.69,65.5,69.14,58.62Z"/><path class="cls-5" d="M96.94,45.23c0,.54,10.68-.58,10.68-.58l1.17-1.94,4.86-3.22s1.58.57,0,3a78.49,78.49,0,0,1-6.12,5.57,23.19,23.19,0,0,1-10.78,2.84Z"/><path d="M91.48,86.71a.5.5,0,0,1,.21-.53.49.49,0,0,1,.68.14c.09.14.17.26,1.69,23.49a9.12,9.12,0,0,0,2.69-4.59l-.09-28.79L76.2,76s-2.48,3.62-2.64,3.73l6.49,25.62L67.82,116.69l3.44,5.79,11.25-7.32S86.94,134,87,134.22s8.58-.68,8.58-.68Z"/><path class="cls-5" d="M114.35,40.27s-2.58-2.53-2.58-2.53-1.75-.22-1.12,1l2,2"/><path class="cls-5" d="M113,41.09s-2.59-2.54-2.59-2.54-1.75-.21-1.12,1l2,2"/><path class="cls-5" d="M111.77,42s-2.58-2.54-2.58-2.54-1.75-.22-1.12,1l2,2"/><path class="cls-5" d="M110.51,42.88s-2.59-2.54-2.59-2.54-1.74-.22-1.12,1l2.2,2.21"/><path class="cls-7" d="M88.18,31a15.49,15.49,0,0,0,0,2.85"/><path class="cls-4" d="M87.33,33.75c.47-.59.17-1.47.38-2.19.28-.94,1.71-.64,2.53-1.19.66-.44.83-1.76,1.27-2.42A12,12,0,0,0,93,22.2a10.61,10.61,0,0,0,0-2,7.65,7.65,0,0,0-.6-2.25,11.6,11.6,0,0,0-2.29-3.49,2.88,2.88,0,0,0-2.58-1.16"/><path class="cls-4" d="M86.34,14.93c-.79,1.82-1.59,3.64-2.54,5.39a25.32,25.32,0,0,0-2.58,5.41c-.57,2.19-.34,4.52-.75,6.75"/><circle cx="90.97" cy="23.45" r="0.73"/><circle cx="86.04" cy="23.19" r="0.73"/><ellipse cx="88.88" cy="25.57" rx="0.44" ry="0.37" transform="translate(46.93 107.98) rotate(-79.07)"/><path class="cls-8" d="M86.69,27.85a3.33,3.33,0,0,0,2.31.21"/><path class="cls-9" d="M80.41,27.76a16.47,16.47,0,0,1,.43,2.16c0,2.61-.77,3.07-.77,3.07"/><path class="cls-9" d="M79.83,24.91l.19.69a8.92,8.92,0,0,0,1.47,2.92A7.35,7.35,0,0,0,87,31.34a4.81,4.81,0,0,0,3.93-2,6.42,6.42,0,0,0,1.23-2.63,26.23,26.23,0,0,0,.67-5.77,5.58,5.58,0,0,0-.8-2.51"/><path class="cls-10" d="M91.48,19.08a23.48,23.48,0,0,0-4.34-2.85,28.94,28.94,0,0,1-2.79,3.7,11.47,11.47,0,0,0-1.87,2.57,26.48,26.48,0,0,0-2.55-2.13c-.7-.35-1.88,1.32-2.08,3.08-.06-.64-.36-4.75,1.09-7.27a6.73,6.73,0,0,1,5.14-3.5A7,7,0,0,1,90,14.42,8.21,8.21,0,0,1,92.74,19a10.5,10.5,0,0,1,.13,1.91A5.08,5.08,0,0,0,91.48,19.08Z"/><path class="cls-10" d="M80.54,26.86a7.19,7.19,0,0,1-.6-1.92c-.13-.29-.75-.44-1.21-1.06A8.73,8.73,0,0,0,80.54,26.86Z"/><path class="cls-10" d="M77.78,20.06a31.23,31.23,0,0,0,0,5.74,14,14,0,0,1-.59,3.92,18.44,18.44,0,0,0,5.87.3,6.51,6.51,0,0,1-.91-2.94,9.8,9.8,0,0,1,.69-5.22,13.67,13.67,0,0,1,1.51-1.93c.73-1.05-3.68-5.71-5.41-3.56A8.2,8.2,0,0,0,77.78,20.06Z"/><path class="cls-10" d="M92.47,27.09a7.87,7.87,0,0,0,.38,2.85,10.58,10.58,0,0,1-2.61.43,7.06,7.06,0,0,0,2.16-3.93c.15-.65.13-1.3.28-2.5C92.56,25.11,92.47,26.37,92.47,27.09Z"/><path class="cls-6" d="M76.63,34.05c0,.13-11.61.28-7.49,24.57l5.7-.43L76.2,76l20.46.41.28-20s1.7-19-6.75-21.28C90.19,35.16,86.17,41.63,76.63,34.05Z"/><line class="cls-6" x1="74.41" y1="42.94" x2="74.84" y2="58.19"/><path d="M74.52,46.56s13.59,2.37,22-1.33l.56,7.1s-14.58,4.72-22.56.46V46.56h0"/><path d="M73.71,35.39s7.55,8.12,19.73,1.93a17.23,17.23,0,0,1,1.94,4.47s-14.73,3.65-25.46-1.41A6.52,6.52,0,0,1,73.71,35.39Z"/><path d="M68.61,44.31s2.94,2,5.8,1.52L74.52,52s-5.57,1.22-6.47-.7Z"/><path d="M96.75,56.67s-8.9,4.09-21.86.34l.41,6.16s7.42,2.49,21.45-.42Z"/><path d="M75.51,67a60.38,60.38,0,0,0,21.28,0l-.08,5.71S83.1,74.29,76,72.72Z"/><path d="M68.83,56.67s3.94.93,5.8-.63l.67,7.13s-4.14,1.17-5.62,0Z"/><path d="M70.72,67.57s3.54,1.11,4.79-.57l.29,4.75s-2.2,1.86-4,1Z"/><path d="M114,42.46a.11.11,0,0,1-.1,0h-.16a1.46,1.46,0,0,1-.44.2,21.07,21.07,0,0,1,.94,4.2l.73-.09A22,22,0,0,0,114,42.46Z"/><path d="M106.33,41a10.73,10.73,0,0,0-1,2.21c-.54,2.1-.91,3.58-.91,3.67h.74a20,20,0,0,1,1.6-5C106.58,41.68,106.48,41.16,106.33,41Z"/><path d="M96.3,74,98.06,46l2.08.54.68-1.06L122.6,46,124,74.42,99.81,76.23Z"/><path class="cls-4" d="M100.88,45.56l21.6.51,1.38,28.23-24,1.81L96.43,74l1.74-27.86,1.85.47.17.05.1-.15.59-.92m-.13-.25-.67,1L98,45.8,96.18,74.1l3.6,2.26,24.34-1.83-1.41-28.7-22-.52Z"/><path d="M107.75,42.15a4.42,4.42,0,0,1-.5-.47c-.11.31-.21.63-.3,1a18.89,18.89,0,0,0-.53,4.19h.74a17.56,17.56,0,0,1,.68-4.6Z"/><path d="M114.64,40c0,.09.22.39.2.48s-.32-.36-.2,0c0,0-.24.05,0,.16h0c0,.06.21.23.16.25s-.26-.13-.31,0,.16.34.15.37a17,17,0,0,1,1.55,5.63l.73-.09A17,17,0,0,0,114.64,40Z"/><line class="cls-11" x1="100.75" y1="45.31" x2="99.78" y2="76.36"/><path class="cls-4" d="M116,59.22h-1a.06.06,0,0,0-.06.06v.21a.06.06,0,0,0,.06.06h.32v1.07a.06.06,0,0,0,.05.06h.22a.06.06,0,0,0,.06-.06V59.55H116a.06.06,0,0,0,.06-.06v-.21A.06.06,0,0,0,116,59.22Z"/><path class="cls-4" d="M112.3,60.59l-.27-.46a.47.47,0,0,0,.24-.43.48.48,0,0,0-.49-.48h-.5a.06.06,0,0,0-.06.06v1.34a.06.06,0,0,0,.06.06h.22a.06.06,0,0,0,0-.06v-.43h.15l.26.46a.09.09,0,0,0,.05,0h.24A.06.06,0,0,0,112.3,60.59Zm-.75-1h.23a.13.13,0,0,1,.11.05.14.14,0,0,1,0,.1.16.16,0,0,1,0,.11.13.13,0,0,1-.11,0h-.23Z"/><path class="cls-4" d="M114.78,59.49v-.21a.06.06,0,0,0-.06-.06h-.86a.06.06,0,0,0-.06.06v1.34a.06.06,0,0,0,.06.06h.86a.06.06,0,0,0,.06-.06V60.4a.06.06,0,0,0-.06-.06h-.58v-.23h.51a.06.06,0,0,0,.06,0v-.22a.06.06,0,0,0-.06-.06h-.51v-.23h.58A.06.06,0,0,0,114.78,59.49Z"/><path class="cls-4" d="M113.33,60.68h.24a.06.06,0,0,0,.05-.1l-.44-.64.41-.63a.06.06,0,0,0,0-.09h-.25a.05.05,0,0,0-.05,0l-.34.53h-.05v-.5a.06.06,0,0,0-.06-.06h-.22a.06.06,0,0,0-.06.06v1.34a.06.06,0,0,0,.06.06h.22a.06.06,0,0,0,.06-.06v-.51h.06l.37.54A.05.05,0,0,0,113.33,60.68Z"/><path class="cls-4" d="M110.76,60.67H111a.06.06,0,0,0,.06-.07l-.48-1.34a.05.05,0,0,0,0,0h-.26a.05.05,0,0,0,0,0l-.48,1.34a.06.06,0,0,0,.06.07H110a.05.05,0,0,0,0,0l.08-.22h.52l.08.22A.05.05,0,0,0,110.76,60.67Zm-.53-.58.14-.4.14.4Z"/><path class="cls-4" d="M109.15,59.25l-.36.6-.36-.6a.05.05,0,0,0-.05,0h-.26a.06.06,0,0,0-.06.06v1.34a.06.06,0,0,0,.06.06h.22a.06.06,0,0,0,.06-.06v-.84l.32.53a.05.05,0,0,0,0,0h0a.05.05,0,0,0,.05,0l.31-.53v.84a.06.06,0,0,0,.06.06h.22a.06.06,0,0,0,.06-.06V59.28a.06.06,0,0,0-.06-.06h-.26A.05.05,0,0,0,109.15,59.25Z"/><path class="cls-4" d="M121.2,59.22h-1a.05.05,0,0,0-.06.06v.21a.05.05,0,0,0,.06.06h.31v1.07a.06.06,0,0,0,.06.06h.22a.06.06,0,0,0,.06-.06V59.55h.32a.06.06,0,0,0,.06-.06v-.21A.06.06,0,0,0,121.2,59.22Z"/><path class="cls-4" d="M118.83,59.49v-.21a.06.06,0,0,0-.06-.06h-.87s-.05,0-.05.06v1.34a.06.06,0,0,0,.05.06h.87a.06.06,0,0,0,.06-.06V60.4a.06.06,0,0,0-.06-.06h-.59v-.23h.51a.06.06,0,0,0,.06,0v-.22a.06.06,0,0,0-.06-.06h-.51v-.23h.59A.06.06,0,0,0,118.83,59.49Z"/><path class="cls-4" d="M117.58,59.55a.06.06,0,0,0,.06-.06v-.21a.06.06,0,0,0-.06-.06h-.84a.06.06,0,0,0-.06.06v1.34a.06.06,0,0,0,.06.06H117a.05.05,0,0,0,0,0v-.52h.52a.06.06,0,0,0,.06,0v-.22a.06.06,0,0,0-.06-.06H117v-.23Z"/><path class="cls-4" d="M119.52,59.22a.49.49,0,0,0-.34.12.37.37,0,0,0-.13.31h0c0,.3.19.37.44.44s.25.12.25.17h0c0,.08-.07.13-.19.13a.78.78,0,0,1-.43-.17.06.06,0,0,0-.09.05v.2s0,0,0,0a.92.92,0,0,0,.5.17.53.53,0,0,0,.36-.13.39.39,0,0,0,.12-.32h0c0-.26-.15-.36-.41-.43s-.28-.09-.28-.18h0c0-.07.07-.11.16-.11a.63.63,0,0,1,.35.11.05.05,0,0,0,.08,0v-.19a.08.08,0,0,0,0-.05A.83.83,0,0,0,119.52,59.22Z"/><rect class="cls-4" x="104.43" y="59.22" width="0.33" height="1.46" rx="0.06"/><path class="cls-4" d="M106.19,59.22H106a.06.06,0,0,0-.06.06v.79l-.61-.82H105a.06.06,0,0,0-.06.06v1.34a.06.06,0,0,0,.06.06h.21a.06.06,0,0,0,.06-.06v-.8l.61.83,0,0h.25a.06.06,0,0,0,.06-.06V59.28A.06.06,0,0,0,106.19,59.22Z"/><path class="cls-4" d="M104.19,60.34h-.59V59.28a.06.06,0,0,0-.06-.06h-.21a.06.06,0,0,0-.06.06v1.34h0a.06.06,0,0,0,0,0h0l0,0h.86a.06.06,0,0,0,.06-.06V60.4A.06.06,0,0,0,104.19,60.34Z"/><path class="cls-4" d="M107.38,59.55a.06.06,0,0,0,.06-.06v-.21a.06.06,0,0,0-.06-.06h-.86a.05.05,0,0,0,0,0h0s0,0,0,0h0v1.34h0a.06.06,0,0,0,0,0h0l0,0h.86a.06.06,0,0,0,.06-.06V60.4a.06.06,0,0,0-.06-.06h-.59v-.23h.59a.06.06,0,0,0,.06-.06v-.21a.06.06,0,0,0-.06-.06h-.59v-.23Z"/><path class="cls-4" d="M27,72.28c-.76,2.11-1.55,4.35-1.19,6.61a1.34,1.34,0,0,1,0,.77.87.87,0,0,1-1,.32c-.38-.12-.72-.37-1.09-.51-1.26-.48-2.57.32-3.73,1a.8.8,0,0,1-.78.11c-.37-.23-.22-.79,0-1.16A40.35,40.35,0,0,0,22,74.19c.81-2.06,2.06-4.57,2.22-6.81s1.37-5.31,1.92-7.47.54-3.19,2.29-4.51c1-.73,1.14-1.2,2.34-.93,1.67.38,1.19-.19,2.08,1.31.07.1,0-.13,0,0s.35.51.29.38c-1.78-4.44,1.46,1.34-.12,2.38-.74.48-3.23,6.08-3.53,6.88l-1.15,3.19Z"/><path class="cls-4" d="M25.93,79.51a2.92,2.92,0,0,0-.47-.91,4.15,4.15,0,0,0-.93-1.07,2.91,2.91,0,0,0-3.06.33,13.09,13.09,0,0,0-1.6,1.38,5.94,5.94,0,0,0-.49.52A4.49,4.49,0,0,0,18.75,81a2.92,2.92,0,0,0,.16,2.21,1.25,1.25,0,0,0,.25.3.33.33,0,0,1,.11.16,3.06,3.06,0,0,0,.14.58,1.54,1.54,0,0,0,.3.45c.07.07.25.19.28.28s0,.19-.06.3a1.22,1.22,0,0,0,0,.71c.09.42.33.72.78.66.13,0,.07-.08.17,0s.1.26.32.32c.49.12.9-.59,1.13-.91s.25-.51.4-.75c.24-.39.49-.77.71-1.17s.47-1,.7-1.46a3.46,3.46,0,0,1,.32-.52c.08-.12.14-.62.28-.66a10.5,10.5,0,0,0,.48.94c.43.7,1.32,1.37,1.52,1.32.38-.09.87-.09.39-.86C26.77,82.42,26.28,79.92,25.93,79.51Z"/><path class="cls-12" d="M34.15,55.05c-2.3,6.05-7.29,17.26-8.45,20.89"/><path class="cls-12" d="M25.7,75.94c-.26.7-.3,1.49.39,3.91.05.18.18.56.24.87a8,8,0,0,0,1,2.24c.33.63-.7,1.07-1.32.46a4.89,4.89,0,0,1-1.19-2"/><path class="cls-12" d="M20.91,86.32c-.38.77-1.32.16-1.11-.47.55-1.67,1-2.72,1.55-4.17"/><path class="cls-12" d="M24.79,81.46A57.94,57.94,0,0,1,22,86.78c-.43.66-1.41.2-1-.66.28-.56,1.1-2.41,1.63-3.8"/><path class="cls-12" d="M20.18,80.59c0,.23-.49,1.25-.79,2.29a2.32,2.32,0,0,0,0,1.4c.15.47.55.75.7.66"/><path class="cls-12" d="M22.07,74.75c-1.16,2.12-2.39,3.44-3,5.09a10.07,10.07,0,0,0-.42,2.44,1.42,1.42,0,0,0,.54,1.2"/><path class="cls-12" d="M22.07,74.75c1-2.2,3.13-11.2,4.24-15.39s2.15-6,4.7-4.71a25.36,25.36,0,0,1,2.85,2.05"/><path class="cls-4" d="M37.32,30.09s-6.1,3.33-9.84,17.74l-2.3,6.74,7.87,4-2.7,19.12S33.6,79,37.46,73.42l17.76,3.41L52.4,55.46l4.81-4.19-6.92-9.9s-3.92-8.07-5.82-8.65Z"/><path class="cls-4" d="M35,113.88c-.35.22-17,19.71-17,19.71l-.37,3.1,4.69,7.88-.88,1.62L9.27,135.88l21.06-25.34Z"/><path class="cls-4" d="M66.05,130.29c.13.24,2.22,8.79,2.22,8.79l9.12.67.92.4.74,1.69-15.23,3.32-1.15-4.73-2.38-8.1Z"/><path class="cls-4" d="M52.14,16.07l.1,3.14a3.72,3.72,0,0,0,.2,1.32c.24.55.73,1,1,1.49a.5.5,0,0,1,.08.31c0,.17-.23.26-.38.35a2.78,2.78,0,0,0-1,1.92,8.17,8.17,0,0,1-.87,2.56,3.36,3.36,0,0,1-2.07,1.64,12.13,12.13,0,0,1-2.55-.06.91.91,0,0,0-.54.13,17.88,17.88,0,0,0-2,.51A6.58,6.58,0,0,0,44.05,33c-.74-.11.21-.44-.5-.66l-2.22-.69a13.29,13.29,0,0,1-3.67-1.57A13.92,13.92,0,0,0,38,27,28.64,28.64,0,0,0,38,23c-.07-.66-.19-1.31-.22-2A10.13,10.13,0,0,1,38,18.37,6.16,6.16,0,0,1,39,16a7.75,7.75,0,0,1,3.12-2.17,7.26,7.26,0,0,1,2.16-.73,6.31,6.31,0,0,1,3.35.77,17.19,17.19,0,0,0,3.18,1.38"/><path class="cls-4" d="M55.05,57.53l-1.8-.72L51.5,52.27,50.42,41.66l1.68,1.88c0,.08,2.38,3.62,4.38,6.57l.08.11,5.83-7.33,1.68-4,1-1.22,2-.54.81.36.14.6.05.19,1.85-2.47.35.67.13,1.16-.29.78.29,1.16c-.07.33-.2.63-.27.64H70c-.27,0-.56.34-.59.38L69,41.64l-.49,1-2.12,1.73-1.09.38-.68.88-4,7.65-2.18,3.29-1.88,1Z"/><path d="M69.87,36l.27.49.12,1.11-.28.78,0,.06,0,.06.28,1.06a1.93,1.93,0,0,1-.18.55H70c-.31,0-.61.35-.67.42l0,0v0l-.39,1-.48.95-2.09,1.73-1.08.38-.06,0,0,0-.64.87-4,7.61-2.17,3.27-1.84,1-1.44,0-1.71-.68L51.6,52.26,50.55,42,52,43.61c.16.28.9,1.43,4.38,6.55l.15.23.17-.22L62.47,43V42.9l1.66-4,.91-1.17L67,37.22l.73.29.16.57.11.39.24-.32L69.87,36m0-.37L68.08,38l-.19-.67L67,37l-2.07.58-1,1.24-1.67,4-5.74,7.23s-4.38-6.44-4.4-6.57l-1.88-2.11L51.4,52.31l1.82,4.59,1.82.73,1.53,0,1.93-1.06,2.19-3.3,4-7.64.63-.84,1.12-.4,2.15-1.77.49-1,.4-1s.29-.36.52-.36l.07,0h0c.22,0,.35-.77.35-.77l-.29-1.1.29-.82-.13-1.2-.43-.8Z"/><path class="cls-13" d="M66.26,39.13a2.12,2.12,0,0,0,1.17-.42c.48-.27.85-1,.46-1.35s-1.25-.06-2.26.1A2.94,2.94,0,0,0,64,38.82a9,9,0,0,0-1.34,3,5,5,0,0,1-.93,1.93c-2.39,3.26-3.77,5.05-5.14,6.74"/><rect class="cls-14" x="68.85" y="31.49" width="0.34" height="10.57" rx="0.17" transform="translate(109.86 103.46) rotate(-149.53)"/><path class="cls-13" d="M69.59,36.12c.16-.26.56-.14.74.28.31.73.22,1,.13,1.2a.59.59,0,0,1-.56.43"/><path class="cls-13" d="M68.59,37.66c.39-.49.88-.23,1.19.31a3,3,0,0,1,.37,1.09c.13,1-.4,1.29-.68,1.22"/><path class="cls-13" d="M67.64,39.2c.06-.22.35-.53.57-.48s.59.44.73.61a2.47,2.47,0,0,1,.54,1.3.9.9,0,0,1-.4,1"/><path class="cls-13" d="M64.94,45.23c.36-.6,1-.63,1.5-.79a3.52,3.52,0,0,0,1.18-.78A5.08,5.08,0,0,0,69,42,1.3,1.3,0,0,0,69,41a2.85,2.85,0,0,0-1.1-.59.55.55,0,0,0-.48.94c.14.18.16.07.36.19"/><path class="cls-13" d="M64.94,45.23C64,46.83,62.05,51,61,52.77c-1.49,2.48-2.28,3.92-3.26,4.46-1.67.93-3.7-.27-4.75-.86"/><path d="M33.91,106.28c.25-1.35-2.22-19.88-.84-28.1a12.42,12.42,0,0,1,1.62-4.51c.91-1.43,2-2.17,3.17-2.13A33.26,33.26,0,0,0,51.47,70.1c.82-.25-1.15-.36-.53-.46a.47.47,0,0,1,.53.34c1.11,4.12,5.13,22.16,8.68,38.07,2.74,12.31,1.31,10.91,1.79,12.67a.47.47,0,0,1-.27.56,68.8,68.8,0,0,1-7.1,2.73h0a.57.57,0,0,1-.52-.32L45.76,98.55c.72-2.67,1.78-6.28,2.76-9.57.82-2.78,1.53-5.18,1.9-6.6a.42.42,0,0,0-.3-.51.41.41,0,0,0-.52.3c-.37,1.4-1.08,3.8-1.9,6.57-1.23,4.16-2.6,8.81-3.24,11.5a46.81,46.81,0,0,0-1.4,4.52,2.05,2.05,0,0,1-.07.31,18.21,18.21,0,0,1-2.82,5.55"/><circle cx="49.92" cy="19.55" r="0.72"/><path class="cls-15" d="M51.55,13a4.11,4.11,0,0,1,1,2.29c0,1.21-.63,3.94-.36,4.74a3.41,3.41,0,0,0,1,1.55.79.79,0,0,1,0,1.12c-.35.38-.81.54-.84.81a9.68,9.68,0,0,1-1.26,4,2.34,2.34,0,0,1-1.88,1.34,7.53,7.53,0,0,1-2.17-.06"/><path class="cls-15" d="M50,24.82a6.06,6.06,0,0,1-1.35-.16"/><path class="cls-15" d="M47.1,28.79c-.72-.1-2-.53-2.55.41a2.72,2.72,0,0,0,1.25,4.05"/><path class="cls-15" d="M38.17,25.17c.2.59.5,1.74-.27,4.65"/><path class="cls-15" d="M49.33,39.85l7.24,10.2s-2.06,4.9-4.46,6.31"/><path class="cls-15" d="M68.27,138.24l9.12,1.51c1.13.18,1.3.82,1.66,2.09l-15.58,3.32a36.43,36.43,0,0,1-.76-4.34,8.72,8.72,0,0,0,2.92-.73A9.29,9.29,0,0,0,68.27,138.24Z"/><path class="cls-16" d="M68.27,138.24l9.12,1.51a1.71,1.71,0,0,1,.92.4l-15.22,3.2a21.07,21.07,0,0,1-.38-2.53,8.72,8.72,0,0,0,2.92-.73A9.29,9.29,0,0,0,68.27,138.24Z"/><path class="cls-15" d="M17.68,135.46l4.38,8.14c.55,1,.15,1.53-.64,2.59L9.27,135.88a35.16,35.16,0,0,1,3-3.25,9,9,0,0,0,2.37,1.87A9.42,9.42,0,0,0,17.68,135.46Z"/><path class="cls-16" d="M17.68,135.46l4.38,8.14a1.64,1.64,0,0,1,.24,1L10.46,134.48a21.41,21.41,0,0,1,1.78-1.85,9,9,0,0,0,2.37,1.87A9.42,9.42,0,0,0,17.68,135.46Z"/><path class="cls-15" d="M63.28,124.51c.23,1.35,3.88,13.73,5,13.73"/><path class="cls-15" d="M62.71,140.82c-.11-1.36-6-16.52-6.58-18.4"/><path class="cls-15" d="M29.48,120.66c-1.72,2-12.35,13.73-11.8,14.8"/><path class="cls-15" d="M12.24,132.63c1.31-1.23,15-18.38,18.09-22.59"/><path class="cls-17" d="M33.05,58.54l-2.7,19.12c1.56,0,3.3.1,4.47-1.21,1.52-1.68,2.64-3,2.64-3L53,76.22l2.24.61L52.4,55.46s-1.51-17.35-6.6-22.21"/><path class="cls-15" d="M45.8,33.25a74.66,74.66,0,0,0-8.48-3.16,24,24,0,0,0-7,9.3L25.18,54.57l8.73,3.68L37,42.52"/><path d="M20.49,121.83S26.79,111.74,32,107l1.31-1.89s-2.37-20.64-.28-27c0,0,20.87.46,20.53.73s9.68,43.89,9.68,43.89l1.46,4.91S24.85,123.08,20.49,121.83Z"/><path d="M52.78,13.54c-.05-.43-.45-.68-.84-.92-.23-.15-1.59.35-1.65.19L50,12.14c-1.19-2.84-3.07-1.15-4.65-2-.32-.17-.27,0-.61,0-3.38-.07-4.44-.24-6.83,2.08a8,8,0,0,0-1.87,8.91c.23.56.44,1,.64,1.46a18.44,18.44,0,0,1,1,2.38.48.48,0,0,0,.32.33l.11,0c.88,0,3.84-2.13,4.19-2.38a.47.47,0,0,0,.19-.42.48.48,0,0,0-.25-.39,2.49,2.49,0,0,1-1.08-2.08A1.48,1.48,0,0,1,42,18.57a1.46,1.46,0,0,1,1.31.14,1,1,0,0,1,.43.81.47.47,0,0,0,.92.14c.83-2.36,1.48-2.91,2.47-3.15a7.69,7.69,0,0,0,4.38-3,.74.74,0,0,1,.28.48.5.5,0,0,0,.34.34.49.49,0,0,0,.46-.13A.79.79,0,0,0,52.78,13.54Z"/><path d="M52.47,13.48a4.74,4.74,0,0,1-1-1.09c-.65-.84-1.94-.66-4.14-1.56s-3.18-.29-4.78-.32c-.77,0-1.43.8-2.35,1.24a.51.51,0,0,0-.28.57c.11.41.44.39,1.18.35l1.65-.12c1.14-.09,3-.23,4-.23h0a4.9,4.9,0,0,1-.89,1.14c-.25.24-.48.45-.71.65s-.57.52-.89.83a4.31,4.31,0,0,0-1.33,2.6,1,1,0,0,0,.16.69,1.16,1.16,0,0,0,.7.36c.91.21,1.23-.68,1.45-1.27s.33-.86.55-.86l1.12,0c1.51,0,2.77,0,3.44-.72a2.1,2.1,0,0,1,.21,1.94.46.46,0,0,0,0,.38.49.49,0,0,0,.27.26l.23.08a4.36,4.36,0,0,0,1.54.39,1.24,1.24,0,0,0,1.13-.6C54.67,16.55,53.18,14,52.47,13.48Z"/><path d="M39.1,9.13A4,4,0,0,0,36,8.08a6.82,6.82,0,0,0-5.44,3.42,9.67,9.67,0,0,0-1,6.07A44.73,44.73,0,0,0,31,23.66c.56,2.14,1,4.54-.31,6.44a2.91,2.91,0,0,1-.82.82.64.64,0,0,0,.27,1.17,4.73,4.73,0,0,0,2.57-.49,5.39,5.39,0,0,0,2.71-3.82A10.11,10.11,0,0,0,35,23.16a21,21,0,0,1-.9-3.7,7.52,7.52,0,0,1,2.29-5.86C37.65,12.32,41.14,11.33,39.1,9.13Z"/><path d="M52.78,13.54c-.19-.31-1-1-1.24-1.3a4.68,4.68,0,0,0-.88-.78,10,10,0,0,0-5.5-1.81,9.87,9.87,0,0,0-5.56,1.62l.77.18,1.8,0a26.49,26.49,0,0,1,6.54.36,5.18,5.18,0,0,1,2,.85,6.48,6.48,0,0,1,1.63,2.29,9.24,9.24,0,0,1,1,2.56C54,16.3,54,15.53,52.78,13.54Z"/><path d="M53.09,13.23a10.46,10.46,0,0,0-13.71-2.34.44.44,0,0,0,.1.79c1.78.43,3.69.07,5.51.12a11.22,11.22,0,0,1,4.32.57c2,1,3.07,3.12,3.64,5.21a.44.44,0,0,0,.8.1c.76-1.67.3-2.81-.59-4.36a.44.44,0,0,0-.75.44c.66,1.15,1.18,2.18.59,3.48l.79.11c-.64-2.35-1.8-5-4.25-5.81-3.22-1.11-6.65.08-9.83-.69l.1.79C44.26,9,49.17,10,52.48,13.84,52.84,14.27,53.45,13.65,53.09,13.23Z"/></g></g></svg>