<svg xmlns="http://www.w3.org/2000/svg" viewBox="0 0 300.68 300.65"><defs><style>.cls-1{fill:#c6c6c6;}.cls-2{fill:#212221;}.cls-3{fill:#ce2434;}.cls-4{fill:#060001;}.cls-5{fill:#00b900;}.cls-6{fill:#fff;}.cls-7{fill:#21b14b;}.cls-8{fill:#3cb44a;}</style></defs><title>LINE Flea Market_Interactive Mirror Mock </title><g id="Layer_1" data-name="Layer 1"><path class="cls-1" d="M300.68,300.65H0V0H300.68ZM6.48,294.2H294.24V6.44H6.48Z"/><rect class="cls-1" width="300.68" height="66.19"/><path class="cls-2" d="M183.46,15.59h-8.63a.52.52,0,0,0-.53.52v1.94a.52.52,0,0,0,.53.52h2.82V28a.52.52,0,0,0,.53.52h1.93a.52.52,0,0,0,.52-.52V18.57h2.83a.52.52,0,0,0,.52-.52V16.11A.52.52,0,0,0,183.46,15.59Z"/><path class="cls-2" d="M150.55,27.76l-2.4-4.09A4.32,4.32,0,0,0,146,15.59h-4.48a.52.52,0,0,0-.52.52V28a.52.52,0,0,0,.52.52h1.93a.52.52,0,0,0,.53-.52V24.23h1.26l2.38,4.06a.53.53,0,0,0,.45.25h2.07A.52.52,0,0,0,150.55,27.76Zm-6.61-9.19h2a1.37,1.37,0,0,1,1,.4,1.33,1.33,0,0,1,0,1.88,1.37,1.37,0,0,1-1,.4h-2Z"/><path class="cls-2" d="M172.63,18.05V16.11a.52.52,0,0,0-.52-.52h-7.67a.52.52,0,0,0-.52.52V28a.52.52,0,0,0,.52.52h7.67a.52.52,0,0,0,.52-.52V26.09a.52.52,0,0,0-.52-.52H166.9v-2h4.54A.52.52,0,0,0,172,23V21.1a.52.52,0,0,0-.52-.52H166.9v-2h5.21A.52.52,0,0,0,172.63,18.05Z"/><path class="cls-2" d="M159.75,28.54h2.15a.52.52,0,0,0,.43-.81l-4-5.71L162,16.39a.52.52,0,0,0-.44-.8h-2.19a.51.51,0,0,0-.43.24l-3.07,4.75h-.43V16.11a.52.52,0,0,0-.52-.52H153a.52.52,0,0,0-.53.52V28a.52.52,0,0,0,.53.52h1.93a.52.52,0,0,0,.52-.52V23.56H156l3.3,4.76A.5.5,0,0,0,159.75,28.54Z"/><path class="cls-2" d="M136.9,28.53h1.87a.52.52,0,0,0,.49-.69L135,15.92a.53.53,0,0,0-.49-.34h-2.25a.53.53,0,0,0-.49.34l-4.24,11.92a.52.52,0,0,0,.49.69h1.87a.52.52,0,0,0,.49-.34l.67-1.89h4.67l.67,1.89A.52.52,0,0,0,136.9,28.53Zm-4.76-5.21,1.27-3.56,1.26,3.56Z"/><path class="cls-2" d="M122.57,15.84l-3.2,5.36-3.2-5.36a.53.53,0,0,0-.45-.25h-2.31a.52.52,0,0,0-.52.52V28a.52.52,0,0,0,.52.52h1.94a.52.52,0,0,0,.52-.52V20.58l2.83,4.73a.51.51,0,0,0,.45.26h.44a.54.54,0,0,0,.45-.26l2.83-4.73V28a.52.52,0,0,0,.52.52h1.94a.52.52,0,0,0,.52-.52V16.11a.52.52,0,0,0-.52-.52H123A.53.53,0,0,0,122.57,15.84Z"/><path class="cls-2" d="M229.68,15.59H221a.52.52,0,0,0-.52.52v1.94a.52.52,0,0,0,.52.52h2.83V28a.52.52,0,0,0,.52.52h1.94a.52.52,0,0,0,.52-.52V18.57h2.83a.52.52,0,0,0,.52-.52V16.11A.52.52,0,0,0,229.68,15.59Z"/><path class="cls-2" d="M208.59,18.05V16.11a.52.52,0,0,0-.52-.52H200.4a.52.52,0,0,0-.52.52V28a.52.52,0,0,0,.52.52h7.67a.52.52,0,0,0,.52-.52V26.09a.52.52,0,0,0-.52-.52h-5.21v-2h4.54a.52.52,0,0,0,.52-.52V21.1a.52.52,0,0,0-.52-.52h-4.54v-2h5.21A.52.52,0,0,0,208.59,18.05Z"/><path class="cls-2" d="M197.5,18.57a.52.52,0,0,0,.52-.52V16.11a.52.52,0,0,0-.52-.52h-7.44a.52.52,0,0,0-.52.52V28a.52.52,0,0,0,.52.52h2a.44.44,0,0,0,.44-.44V23.56h4.62a.52.52,0,0,0,.52-.52V21.1a.52.52,0,0,0-.52-.52h-4.62v-2Z"/><path class="cls-2" d="M214.75,15.59a4.41,4.41,0,0,0-3,1.05,3.62,3.62,0,0,0-1.18,2.78v0c0,2.6,1.72,3.27,4,3.88,2,.54,2.18,1,2.18,1.51v0c0,.69-.61,1.1-1.63,1.1a7.1,7.1,0,0,1-3.84-1.46.5.5,0,0,0-.79.41v1.76a.48.48,0,0,0,.22.41,8.35,8.35,0,0,0,4.5,1.44,4.79,4.79,0,0,0,3.16-1.09,3.44,3.44,0,0,0,1.09-2.84v0c0-2.3-1.37-3.18-3.65-3.81-2.07-.56-2.49-.82-2.49-1.57v0c0-.62.57-1,1.45-1a5.48,5.48,0,0,1,3,1,.5.5,0,0,0,.78-.41V17a.5.5,0,0,0-.25-.43A7.09,7.09,0,0,0,214.75,15.59Z"/><rect class="cls-2" x="80.61" y="15.59" width="2.98" height="12.95" rx="0.53"/><path class="cls-2" d="M96.24,15.59H94.32a.53.53,0,0,0-.53.53v7.07l-5.45-7.36,0-.06h0l0,0h0l0,0h0l0,0H86a.53.53,0,0,0-.53.53V28a.53.53,0,0,0,.53.53H87.9a.53.53,0,0,0,.53-.53V21l5.46,7.37a.4.4,0,0,0,.13.13h0l0,0h0l0,0h2.14a.53.53,0,0,0,.53-.53V16.12A.53.53,0,0,0,96.24,15.59Z"/><path class="cls-2" d="M78.44,25.57h-5.2V16.12a.53.53,0,0,0-.53-.53H70.8a.54.54,0,0,0-.54.53V28h0a.52.52,0,0,0,.15.37h0a.51.51,0,0,0,.37.14h7.64A.53.53,0,0,0,79,28V26.1A.53.53,0,0,0,78.44,25.57Z"/><path class="cls-2" d="M106.81,18.57a.53.53,0,0,0,.53-.53V16.12a.53.53,0,0,0-.53-.53H99.16a.56.56,0,0,0-.37.15h0a.51.51,0,0,0-.15.36h0V28h0a.52.52,0,0,0,.15.37h0a.55.55,0,0,0,.37.14h7.65a.53.53,0,0,0,.53-.53V26.1a.53.53,0,0,0-.53-.53h-5.2v-2h5.2a.54.54,0,0,0,.53-.54V21.11a.53.53,0,0,0-.53-.53h-5.2v-2Z"/><polygon class="cls-3" points="208.97 51.68 209.22 51.68 209.42 51.1 209.1 51.1 208.97 51.68"/><path class="cls-3" d="M193.86,51.41h.57V52.9h.34V51.41h.57V51.1h-1.48Z"/><path class="cls-3" d="M196.23,51.61a.51.51,0,0,0-.4.19v-.7h-.31v1.8h.31v-.65a.33.33,0,0,1,.32-.35c.16,0,.28.1.28.34v.66h.32v-.67C196.75,51.86,196.59,51.61,196.23,51.61Z"/><path class="cls-3" d="M198,51.81a.47.47,0,0,0-.41-.21.67.67,0,0,0,0,1.34.48.48,0,0,0,.41-.23v.19h.3V51.63H198Zm-.38.84a.39.39,0,0,1,0-.77A.39.39,0,0,1,197.63,52.65Z"/><path class="cls-3" d="M199.29,51.61a.56.56,0,0,0-.41.19l0-.17h-.28V52.9h.32v-.65a.33.33,0,0,1,.32-.35c.2,0,.3.14.3.34v.66h.32v-.66A.56.56,0,0,0,199.29,51.61Z"/><polygon class="cls-3" points="201.28 52.9 201.28 52.88 200.69 52.23 201.21 51.65 201.21 51.63 200.83 51.63 200.41 52.14 200.41 51.1 200.09 51.1 200.09 52.9 200.41 52.9 200.41 52.33 200.9 52.9 201.28 52.9"/><path class="cls-3" d="M203.56,51.86h-.77v.3h.46v.32a.62.62,0,0,1-.41.14.56.56,0,0,1-.61-.6.61.61,0,0,1,.61-.66.67.67,0,0,1,.46.18l.21-.22a.94.94,0,0,0-.67-.27.92.92,0,0,0-1,1,.87.87,0,0,0,1,.92.91.91,0,0,0,.72-.32Z"/><path class="cls-3" d="M205.08,52.27a.64.64,0,0,0-.67-.66.66.66,0,0,0,0,1.32A.64.64,0,0,0,205.08,52.27Zm-.67.37a.34.34,0,0,1-.34-.37.35.35,0,0,1,.34-.38.36.36,0,0,1,.35.38A.35.35,0,0,1,204.41,52.64Z"/><path class="cls-3" d="M205.88,51.6a.61.61,0,0,0-.65.66.62.62,0,0,0,.65.67.44.44,0,0,0,.41-.21l0,.18h.3V51.1h-.32v.7A.51.51,0,0,0,205.88,51.6Zm0,1a.38.38,0,0,1,0-.75.38.38,0,0,1,0,.75Z"/><rect class="cls-3" x="207.42" y="51.1" width="0.34" height="1.8"/><path class="cls-3" d="M208.9,52.86l-.09-.27a.26.26,0,0,1-.15,0c-.1,0-.16-.06-.16-.18V51.9h.35v-.27h-.35v-.36l-.32,0v.32H208v.27h.23v.55a.42.42,0,0,0,.46.47A.82.82,0,0,0,208.9,52.86Z"/><path class="cls-3" d="M210.12,52.12c-.16,0-.24-.06-.24-.14s.09-.12.24-.12a.4.4,0,0,1,.31.11l.17-.21a.65.65,0,0,0-.49-.16c-.23,0-.53.1-.53.39s.28.38.52.4.25,0,.25.13-.11.15-.23.15a.67.67,0,0,1-.43-.18l-.16.23a.76.76,0,0,0,.59.22c.36,0,.54-.19.54-.41S210.36,52.14,210.12,52.12Z"/><polygon class="cls-3" points="211.41 52.9 211.75 52.9 211.75 52.23 212.65 52.23 212.65 51.92 211.75 51.92 211.75 51.43 212.7 51.43 212.7 51.1 211.41 51.1 211.41 52.9"/><rect class="cls-3" x="212.91" y="51.1" width="0.31" height="1.8"/><path class="cls-3" d="M214.11,51.59a.67.67,0,1,0,0,1.34.76.76,0,0,0,.54-.2l-.2-.2a.54.54,0,0,1-.34.12c-.22,0-.36-.11-.38-.27h1C214.8,51.86,214.54,51.59,214.11,51.59Zm-.34.53a.33.33,0,0,1,.35-.25c.18,0,.31.08.33.25Z"/><path class="cls-3" d="M216,51.63v.18a.45.45,0,0,0-.4-.21.62.62,0,0,0-.66.66.61.61,0,0,0,.65.68.48.48,0,0,0,.41-.23v.19h.3V51.63Zm-.39,1a.39.39,0,0,1,0-.77A.39.39,0,0,1,215.61,52.65Z"/><path class="cls-3" d="M202.18,54.27a.45.45,0,0,0-.42.23.4.4,0,0,0-.38-.24.37.37,0,0,0-.33.18l0-.15h-.3v1.27h.32v-.68a.29.29,0,0,1,.27-.32c.17,0,.26.15.26.32v.68h.31v-.68a.3.3,0,0,1,.28-.32c.17,0,.23.15.23.31v.69h.32v-.69C202.72,54.49,202.54,54.27,202.18,54.27Z"/><path class="cls-3" d="M204,54.46a.47.47,0,0,0-.4-.2.61.61,0,0,0-.66.66.6.6,0,0,0,.65.67.47.47,0,0,0,.41-.22l0,.19h.29V54.29H204Zm-.37.85a.37.37,0,0,1-.38-.39.36.36,0,0,1,.38-.38A.39.39,0,0,1,203.66,55.31Z"/><path class="cls-3" d="M204.92,54.44l0-.15h-.29v1.27h.31v-.67a.29.29,0,0,1,.32-.32.31.31,0,0,1,.22.08l.14-.27a.45.45,0,0,0-.32-.12A.37.37,0,0,0,204.92,54.44Z"/><polygon class="cls-3" points="206.83 54.31 206.83 54.29 206.46 54.29 206.03 54.8 206.03 53.76 205.72 53.76 205.72 55.56 206.03 55.56 206.03 54.98 206.53 55.56 206.9 55.56 206.9 55.53 206.31 54.88 206.83 54.31"/><path class="cls-3" d="M207.66,54.25a.63.63,0,0,0-.67.66.64.64,0,0,0,.7.68.76.76,0,0,0,.54-.21l-.2-.19a.53.53,0,0,1-.34.11.34.34,0,0,1-.38-.27h1C208.35,54.51,208.09,54.25,207.66,54.25Zm-.34.52a.34.34,0,0,1,.36-.24.29.29,0,0,1,.32.24Z"/><path class="cls-3" d="M209.1,55.29a.16.16,0,0,1-.17-.18v-.55h.35v-.27h-.35v-.36l-.31,0v.32h-.24v.27h.24v.55a.41.41,0,0,0,.46.46.74.74,0,0,0,.25,0l-.08-.27A.48.48,0,0,1,209.1,55.29Z"/><polygon class="cls-3" points="207.24 42.81 209.36 39.5 200.8 39.5 203.02 42.81 207.24 42.81"/><polygon class="cls-3" points="207.59 49.68 210.19 49.68 213.96 44.78 209.6 39.49 205.23 46.13 207.59 49.68"/><path class="cls-3" d="M200.58,39.5l-4.35,5.28,3.76,4.9h7.38Zm4.52,9.38a.59.59,0,1,1,.59-.59A.59.59,0,0,1,205.1,48.88Z"/><rect class="cls-4" x="96.56" y="43.88" width="0.69" height="2.99" rx="0.12"/><path class="cls-4" d="M100.17,43.88h-.45a.12.12,0,0,0-.12.12v1.63l-1.26-1.7H97.8a.12.12,0,0,0-.12.12v2.74a.12.12,0,0,0,.12.13h.44a.12.12,0,0,0,.12-.13V45.11l1.26,1.7s0,0,0,0h.51a.13.13,0,0,0,.12-.13V44A.12.12,0,0,0,100.17,43.88Z"/><path class="cls-4" d="M96.06,46.18h-1.2V44a.12.12,0,0,0-.12-.12H94.3a.12.12,0,0,0-.13.12v2.74h0a.13.13,0,0,0,0,.09h0a.12.12,0,0,0,.08,0h1.77a.12.12,0,0,0,.12-.13V46.3A.12.12,0,0,0,96.06,46.18Z"/><path class="cls-4" d="M102.61,43.88h-1.77a.11.11,0,0,0-.08,0h0a.16.16,0,0,0,0,.09h0v2.74h0a.12.12,0,0,0,0,.09h0a.12.12,0,0,0,.08,0h1.77a.13.13,0,0,0,.12-.13V46.3a.12.12,0,0,0-.12-.12h-1.2v-.47h1.2a.12.12,0,0,0,.12-.12v-.44a.12.12,0,0,0-.12-.12h-1.2v-.47h1.2a.12.12,0,0,0,.12-.12V44A.12.12,0,0,0,102.61,43.88Z"/><path class="cls-4" d="M113.12,51.16h-.58a.08.08,0,0,1-.07,0l0-.06-.18-.51h-1.19l-.18.51,0,.06a.08.08,0,0,1-.07,0h-.55c-.07,0-.09,0-.07-.09l1.1-2.82a.19.19,0,0,1,.06-.07.16.16,0,0,1,.11,0h.5a.16.16,0,0,1,.11,0,.19.19,0,0,1,.06.07l1.1,2.82C113.21,51.13,113.19,51.16,113.12,51.16ZM112,49.94l-.37-1-.36,1H112Z"/><path class="cls-4" d="M114.88,50.47l.08,0a.1.1,0,0,1,.09.06l.19.28a.12.12,0,0,1,0,.17,1.56,1.56,0,0,1-.34.18,1.27,1.27,0,0,1-.39.06,1.14,1.14,0,0,1-.46-.09,1.05,1.05,0,0,1-.37-.25,1,1,0,0,1-.25-.36,1,1,0,0,1-.1-.45,1.13,1.13,0,0,1,.09-.45,1.34,1.34,0,0,1,.25-.37A1.6,1.6,0,0,1,114,49a1.13,1.13,0,0,1,.45-.09,1.42,1.42,0,0,1,.42.07,1.25,1.25,0,0,1,.34.19.12.12,0,0,1,0,.08.1.1,0,0,1,0,.09l-.21.27s0,0-.09,0l-.08,0a.65.65,0,0,0-.17-.08.58.58,0,0,0-.19,0,.54.54,0,1,0,0,1.08.69.69,0,0,0,.2,0Z"/><path class="cls-4" d="M117,50.47l.08,0a.1.1,0,0,1,.09.06l.19.28a.12.12,0,0,1,0,.1.18.18,0,0,1,0,.07,1.56,1.56,0,0,1-.34.18,1.32,1.32,0,0,1-.39.06,1.14,1.14,0,0,1-.46-.09,1.05,1.05,0,0,1-.37-.25,1,1,0,0,1-.25-.36,1,1,0,0,1-.1-.45,1.13,1.13,0,0,1,.09-.45,1.34,1.34,0,0,1,.25-.37,1.6,1.6,0,0,1,.37-.25,1.13,1.13,0,0,1,.45-.09A1.42,1.42,0,0,1,117,49a1.25,1.25,0,0,1,.34.19.12.12,0,0,1,0,.08.1.1,0,0,1,0,.09l-.21.27s-.06,0-.09,0l-.09,0a.48.48,0,0,0-.16-.08.62.62,0,0,0-.2,0,.52.52,0,0,0-.38.15.58.58,0,0,0,0,.78.52.52,0,0,0,.38.15.71.71,0,0,0,.21,0Z"/><path class="cls-4" d="M118.78,48.88a1.13,1.13,0,0,1,.45.09,1.09,1.09,0,0,1,.38.25,1.34,1.34,0,0,1,.25.37,1.18,1.18,0,0,1,.09.46,1.13,1.13,0,0,1-.09.45,1.21,1.21,0,0,1-.25.37,1.09,1.09,0,0,1-.38.25,1.13,1.13,0,0,1-.45.09,1.18,1.18,0,0,1-.46-.09,1.15,1.15,0,0,1-.37-.25,1.05,1.05,0,0,1-.25-.37,1.13,1.13,0,0,1-.09-.45,1.18,1.18,0,0,1,.09-.46,1.17,1.17,0,0,1,.62-.62A1.18,1.18,0,0,1,118.78,48.88Zm0,1.7a.41.41,0,0,0,.19,0,.36.36,0,0,0,.16-.11.62.62,0,0,0,.11-.17.76.76,0,0,0,0-.21.78.78,0,0,0,0-.22.62.62,0,0,0-.11-.17.46.46,0,0,0-.16-.11.41.41,0,0,0-.19,0,.45.45,0,0,0-.2,0,.42.42,0,0,0-.15.11.62.62,0,0,0-.11.17.78.78,0,0,0,0,.22.76.76,0,0,0,0,.21.62.62,0,0,0,.11.17.33.33,0,0,0,.15.11A.45.45,0,0,0,118.78,50.58Z"/><path class="cls-4" d="M122.41,50.15a1.18,1.18,0,0,1-.07.43.87.87,0,0,1-.22.32.93.93,0,0,1-.33.21,1.23,1.23,0,0,1-.44.07,1.27,1.27,0,0,1-.44-.07.93.93,0,0,1-.33-.21,1,1,0,0,1-.21-.32,1.18,1.18,0,0,1-.08-.43V49a.14.14,0,0,1,.12-.12h.43A.14.14,0,0,1,121,49V50.1a.44.44,0,0,0,.11.33.36.36,0,0,0,.28.12.37.37,0,0,0,.29-.12.49.49,0,0,0,.11-.33V49a.11.11,0,0,1,0-.08.11.11,0,0,1,.09,0h.42a.12.12,0,0,1,.09,0,.11.11,0,0,1,0,.08Z"/><path class="cls-4" d="M124.92,51.13a.11.11,0,0,1-.08,0h-.44l-.09,0a.16.16,0,0,1,0-.09V49.93a.41.41,0,0,0-.1-.29.37.37,0,0,0-.27-.11l-.1,0-.11.05a.28.28,0,0,0-.09.1.33.33,0,0,0,0,.15V51a.16.16,0,0,1,0,.09.14.14,0,0,1-.09,0H123a.14.14,0,0,1-.09,0,.16.16,0,0,1,0-.09v-2a.11.11,0,0,1,0-.08.11.11,0,0,1,.09,0h.45a.11.11,0,0,1,.09,0,.11.11,0,0,1,0,.08v.25a.57.57,0,0,1,.25-.3.66.66,0,0,1,.35-.11.73.73,0,0,1,.58.25,1,1,0,0,1,.22.69V51A.12.12,0,0,1,124.92,51.13Z"/><path class="cls-4" d="M127.07,50.93l0,.06a.87.87,0,0,1-.27.14.91.91,0,0,1-.32.06.75.75,0,0,1-.58-.23,1,1,0,0,1-.2-.67V49.5h-.3a.1.1,0,0,1-.09,0,.11.11,0,0,1,0-.08v-.33a.16.16,0,0,1,0-.09.12.12,0,0,1,.09,0h.3v-.44a.1.1,0,0,1,0-.09.11.11,0,0,1,.08,0h.42a.11.11,0,0,1,.12.12v.44h.45a.12.12,0,0,1,.09,0,.18.18,0,0,1,0,.09v.33a.12.12,0,0,1,0,.08.1.1,0,0,1-.09,0h-.44v.77q0,.3.24.3h.09l.08,0,.07,0s0,0,.06,0l.18.31A.11.11,0,0,1,127.07,50.93Z"/><path class="cls-4" d="M96.91,49.66a1.43,1.43,0,0,1-.12.58,1.27,1.27,0,0,1-.32.47A1.35,1.35,0,0,1,96,51a1.4,1.4,0,0,1-.58.12,1.43,1.43,0,0,1-.58-.12,1.55,1.55,0,0,1-.48-.32,1.44,1.44,0,0,1-.32-.48,1.4,1.4,0,0,1-.12-.58,1.43,1.43,0,0,1,.12-.58,1.55,1.55,0,0,1,.32-.48,1.75,1.75,0,0,1,.48-.32,1.43,1.43,0,0,1,.58-.12,1.4,1.4,0,0,1,.58.12,1.49,1.49,0,0,1,.48.32,1.39,1.39,0,0,1,.32.48A1.45,1.45,0,0,1,96.91,49.66Zm-.72,0a.88.88,0,0,0-.06-.33.77.77,0,0,0-.17-.27,1.08,1.08,0,0,0-.24-.18.82.82,0,0,0-.31-.07.78.78,0,0,0-.3.07.64.64,0,0,0-.25.18.78.78,0,0,0-.17.26.92.92,0,0,0-.06.33.88.88,0,0,0,.06.33.78.78,0,0,0,.17.26.64.64,0,0,0,.25.18.63.63,0,0,0,.3.07.67.67,0,0,0,.31-.07.69.69,0,0,0,.24-.18.65.65,0,0,0,.17-.26A.87.87,0,0,0,96.19,49.66Z"/><path class="cls-4" d="M99.07,48.06a.13.13,0,0,1,.05.07.15.15,0,0,1,0,.09l-.17.28a.16.16,0,0,1-.08.06h-.08a.46.46,0,0,0-.19,0,.3.3,0,0,0-.24.1.44.44,0,0,0-.09.29v0h.45a.11.11,0,0,1,.08,0,.1.1,0,0,1,0,.09v.34a.12.12,0,0,1,0,.09.11.11,0,0,1-.08,0h-.45V51a.14.14,0,0,1-.12.12h-.41a.12.12,0,0,1-.09,0,.11.11,0,0,1,0-.08V49.5h-.26a.11.11,0,0,1-.08,0,.12.12,0,0,1,0-.09V49a.1.1,0,0,1,0-.09.11.11,0,0,1,.08,0h.26v0a1.14,1.14,0,0,1,.24-.73.83.83,0,0,1,.66-.26,1.08,1.08,0,0,1,.32,0A.71.71,0,0,1,99.07,48.06Z"/><path class="cls-4" d="M101,48.06a.13.13,0,0,1,0,.07.15.15,0,0,1,0,.09l-.17.28a.21.21,0,0,1-.08.06h-.08a.46.46,0,0,0-.19,0,.3.3,0,0,0-.24.1.44.44,0,0,0-.09.29v0h.45a.11.11,0,0,1,.08,0,.1.1,0,0,1,0,.09v.34a.12.12,0,0,1,0,.09.11.11,0,0,1-.08,0h-.45V51a.14.14,0,0,1-.12.12H99.6a.12.12,0,0,1-.09,0,.11.11,0,0,1,0-.08V49.5h-.26a.11.11,0,0,1-.12-.12V49a.12.12,0,0,1,0-.09.16.16,0,0,1,.09,0h.26v0a1.08,1.08,0,0,1,.24-.73.83.83,0,0,1,.66-.26,1.12,1.12,0,0,1,.32,0A.8.8,0,0,1,101,48.06Z"/><path class="cls-4" d="M101.55,47.91a.35.35,0,0,1,.27.11.36.36,0,0,1,.12.27.36.36,0,0,1-.12.28.35.35,0,0,1-.27.11.37.37,0,0,1-.28-.11.39.39,0,0,1-.11-.28.39.39,0,0,1,.11-.27A.37.37,0,0,1,101.55,47.91Zm.33,3.12a.11.11,0,0,1,0,.08.11.11,0,0,1-.09,0h-.43a.12.12,0,0,1-.09,0,.11.11,0,0,1,0-.08V49a.12.12,0,0,1,0-.09.16.16,0,0,1,.09,0h.43a.14.14,0,0,1,.09,0,.12.12,0,0,1,0,.09Z"/><path class="cls-4" d="M103.83,50.47l.08,0s.06,0,.09.06l.19.28a.12.12,0,0,1,0,.1.18.18,0,0,1,0,.07,1.56,1.56,0,0,1-.34.18,1.34,1.34,0,0,1-.4.06,1.13,1.13,0,0,1-.45-.09,1.05,1.05,0,0,1-.37-.25,1.19,1.19,0,0,1-.26-.36,1.17,1.17,0,0,1,0-.9,1.15,1.15,0,0,1,.25-.37A1.41,1.41,0,0,1,103,49a1.13,1.13,0,0,1,.45-.09,1.19,1.19,0,0,1,.76.26.2.2,0,0,1,0,.08.1.1,0,0,1,0,.09l-.21.27s-.06,0-.09,0l-.09,0a.6.6,0,0,0-.16-.08.65.65,0,0,0-.2,0,.49.49,0,0,0-.38.15.58.58,0,0,0,0,.78.52.52,0,0,0,.38.15.64.64,0,0,0,.2,0A.66.66,0,0,0,103.83,50.47Z"/><path class="cls-4" d="M104.92,47.91a.37.37,0,0,1,.28.11.39.39,0,0,1,.11.27.39.39,0,0,1-.11.28.41.41,0,0,1-.56,0,.39.39,0,0,1-.11-.28.39.39,0,0,1,.11-.27A.37.37,0,0,1,104.92,47.91Zm.33,3.12a.11.11,0,0,1,0,.08.1.1,0,0,1-.09,0h-.43a.14.14,0,0,1-.12-.12V49a.1.1,0,0,1,0-.09.11.11,0,0,1,.08,0h.43a.11.11,0,0,1,.12.12Z"/><path class="cls-4" d="M108,51a.14.14,0,0,1,0,.09.13.13,0,0,1-.09,0h-.46a.12.12,0,0,1-.08,0,.15.15,0,0,1,0-.09v-.16a1.26,1.26,0,0,1-.24.22.58.58,0,0,1-.32.1,1,1,0,0,1-.37-.08,1,1,0,0,1-.33-.23,1.06,1.06,0,0,1-.23-.36,1.21,1.21,0,0,1-.09-.48,1.45,1.45,0,0,1,.08-.47,1.28,1.28,0,0,1,.22-.36,1,1,0,0,1,.32-.23.92.92,0,0,1,.39-.09.59.59,0,0,1,.33.1.85.85,0,0,1,.24.22V49a.12.12,0,0,1,0-.08.09.09,0,0,1,.08,0h.46a.1.1,0,0,1,.09,0,.11.11,0,0,1,0,.08Zm-1.14-.51a.39.39,0,0,0,.32-.14.54.54,0,0,0,0-.68.39.39,0,0,0-.32-.14.38.38,0,0,0-.31.14.54.54,0,0,0,0,.68A.38.38,0,0,0,106.83,50.51Z"/><path class="cls-4" d="M108.42,48a.1.1,0,0,1,0-.09.11.11,0,0,1,.08,0H109a.14.14,0,0,1,.09,0,.12.12,0,0,1,0,.09v3a.16.16,0,0,1,0,.09.15.15,0,0,1-.09,0h-.46a.12.12,0,0,1-.08,0,.12.12,0,0,1,0-.09Z"/><path class="cls-5" d="M87.94,43.14c-.25,0-.49,0-.74,0a9.43,9.43,0,0,0-2.76.54.45.45,0,0,0-.27.41v4.14c0,2.12,2.89,3.38,3.61,3.66a.44.44,0,0,0,.32,0c.71-.28,3.61-1.54,3.61-3.66V44.12a.44.44,0,0,0-.28-.41,9.43,9.43,0,0,0-2.76-.54c-.24,0-.49,0-.73,0Z"/><path class="cls-6" d="M89,48H87.55V45.4a.15.15,0,0,0-.15-.15h-.53a.15.15,0,0,0-.15.15v3.32h0a.15.15,0,0,0,0,.1h0a.15.15,0,0,0,.1,0H89a.15.15,0,0,0,.14-.15v-.53A.14.14,0,0,0,89,48Z"/><path class="cls-6" d="M182,47.58a4,4,0,0,0-3.93-3.94h0l-35.53,0a4,4,0,0,0-4,3.79,3.93,3.93,0,0,0,3.91,4.07l35.64,0A3.94,3.94,0,0,0,182,47.58Z"/><path class="cls-7" d="M182,47.58a4,4,0,0,0-3.93-3.94h0l-35.53,0a4,4,0,0,0-4,3.79,3.93,3.93,0,0,0,3.91,4.07l35.64,0A3.94,3.94,0,0,0,182,47.58Zm-39.57,3.26a3.32,3.32,0,0,1-3.32-3.45,3.37,3.37,0,0,1,3.41-3.19l18.37,0a3.33,3.33,0,0,0,0,6.65ZM163.51,49a.11.11,0,0,1-.11.11h-1.88a.09.09,0,0,1-.07,0,.09.09,0,0,1,0-.07V46.06a.11.11,0,0,1,.11-.11H162a.11.11,0,0,1,.11.11V48.4h1.3a.11.11,0,0,1,.11.11Zm1.13,0a.11.11,0,0,1-.1.11h-.48A.11.11,0,0,1,164,49V46.06a.11.11,0,0,1,.11-.11h.47a.11.11,0,0,1,.11.11Zm3.26,0a.11.11,0,0,1-.11.11h-.52s0,0,0,0l-1.4-1.9V49a.1.1,0,0,1-.11.1h-.47a.11.11,0,0,1-.11-.11V46.06a.09.09,0,0,1,.1-.1h.54v0l1.39,1.88V46.07a.11.11,0,0,1,.11-.11h.47a.11.11,0,0,1,.11.11Zm2.61-2.45a.11.11,0,0,1-.11.11h-1.3v.54h1.3a.11.11,0,0,1,.11.11v.47a.11.11,0,0,1-.11.11h-1.3v.54h1.3a.11.11,0,0,1,.11.11V49a.11.11,0,0,1-.11.11h-1.88a.09.09,0,0,1-.07,0h0a.09.09,0,0,1,0-.07V46.07a.1.1,0,0,1,.11-.11h1.87a.11.11,0,0,1,.11.11Zm2.31,1.79h-.43V49a.1.1,0,0,1-.1.1h-.47a.11.11,0,0,1-.11-.11V46.07h0a.1.1,0,0,1,.11-.1h1a1.18,1.18,0,1,1,0,2.36Zm3.42.65a.13.13,0,0,1-.13.13H175a.81.81,0,1,1,0-1.61h.66a.29.29,0,0,0-.11-.25c-.11-.08-.35-.15-.93,0a.12.12,0,0,1-.15-.09l-.08-.31a.13.13,0,0,1,.1-.16,1.76,1.76,0,0,1,1.42.13,1,1,0,0,1,.34.79Zm1.22.77h-.52a.08.08,0,0,1-.08-.11l.38-.91-.78-2a.11.11,0,0,1,.1-.15H177a.13.13,0,0,1,.12.09l.46,1.15.49-1.15a.13.13,0,0,1,.12-.08h.51a.08.08,0,0,1,.08.11s-1.07,2.52-1.25,3A.1.1,0,0,1,177.46,49.75Z"/><path class="cls-8" d="M172.82,46.65h-.43v1h.43a.5.5,0,0,0,.5-.5A.5.5,0,0,0,172.82,46.65Z"/><path class="cls-8" d="M174.74,48.35a.23.23,0,0,0,.23.18h.69v-.46H175A.23.23,0,0,0,174.74,48.35Z"/><path class="cls-7" d="M145.17,48.5a.63.63,0,0,1-.63-.63.64.64,0,0,1,.63-.64.64.64,0,0,1,.64.64.63.63,0,0,1-.64.63m0-2a1.32,1.32,0,0,0-1.35,1.33,1.28,1.28,0,0,0,1.24,1.32.85.85,0,0,0,.57-.19l.17-.12v.24h.69V47.94a1.31,1.31,0,0,0-1.32-1.39"/><path class="cls-7" d="M148.19,48.51a.64.64,0,1,1,0-1.27.64.64,0,0,1,0,1.27m.09-2a1,1,0,0,0-.57.18l-.17.1V45.52h-.68V47.8a1.34,1.34,0,1,0,2.68.06,1.3,1.3,0,0,0-1.25-1.31"/><path class="cls-7" d="M151.15,48.51a.63.63,0,0,1-.63-.63.64.64,0,0,1,.63-.64.64.64,0,0,1,.64.64.64.64,0,0,1-.64.63m.09-1.95a1,1,0,0,0-.57.17l-.17.11V45.52h-.68V47.8a1.34,1.34,0,1,0,2.68.07,1.3,1.3,0,0,0-1.25-1.31"/><rect class="cls-7" x="151.92" y="47.53" width="2.51" height="0.7" transform="translate(105.07 200.99) rotate(-89.92)"/><path class="cls-7" d="M155.3,47.24v-.6h-.68V45.53h-.68v2.63a.87.87,0,0,0,.3.8,1.15,1.15,0,0,0,.78.18h.29v-.6h-.21c-.37,0-.48-.1-.48-.45v-.85Z"/><path class="cls-7" d="M143.65,46.55a1.31,1.31,0,0,0-1.32,1.38v1.19H143V48c0-.49.24-.79.65-.79h0v-.68h0"/></g></svg>