<svg xmlns="http://www.w3.org/2000/svg" viewBox="0 0 300.68 300.65"><defs><style>.cls-1{fill:#fff;}</style></defs><title>LINE Flea Market_Interactive Mirror Mock </title><g id="Layer_1" data-name="Layer 1"><path d="M300.68,300.65H0V0H300.68ZM6.48,294.2H294.24V6.44H6.48Z"/><rect width="300.68" height="66.19"/><polygon class="cls-1" points="209.01 51.62 209.25 51.62 209.45 51.05 209.13 51.05 209.01 51.62"/><path class="cls-1" d="M193.91,51.35h.57v1.49h.34V51.35h.57V51h-1.48Z"/><path class="cls-1" d="M196.28,51.56a.45.45,0,0,0-.39.19V51h-.32v1.8h.32v-.65a.31.31,0,0,1,.31-.34c.17,0,.29.09.29.33v.66h.31v-.67C196.8,51.8,196.64,51.56,196.28,51.56Z"/><path class="cls-1" d="M198.06,51.75a.46.46,0,0,0-.4-.21.62.62,0,0,0-.66.67.61.61,0,0,0,.65.67.49.49,0,0,0,.41-.22v.18h.3V51.58h-.3Zm-.38.84a.35.35,0,0,1-.37-.38.36.36,0,0,1,.37-.39A.39.39,0,0,1,197.68,52.59Z"/><path class="cls-1" d="M199.34,51.55a.56.56,0,0,0-.41.19l0-.17h-.28v1.27h.32v-.65a.33.33,0,0,1,.32-.35.3.3,0,0,1,.3.34v.66h.32v-.66A.56.56,0,0,0,199.34,51.55Z"/><polygon class="cls-1" points="201.32 52.84 201.32 52.82 200.74 52.17 201.25 51.59 201.25 51.58 200.88 51.58 200.45 52.08 200.45 51.05 200.14 51.05 200.14 52.84 200.45 52.84 200.45 52.27 200.95 52.84 201.32 52.84"/><path class="cls-1" d="M203.6,51.8h-.77v.3h.46v.32a.59.59,0,0,1-.4.14.56.56,0,0,1-.62-.59.62.62,0,0,1,.62-.67.71.71,0,0,1,.45.18l.22-.21a.94.94,0,0,0-.67-.28.91.91,0,0,0-.95,1,.86.86,0,0,0,.95.91.89.89,0,0,0,.71-.32Z"/><path class="cls-1" d="M205.12,52.21a.64.64,0,0,0-.67-.66.66.66,0,1,0,.67.66Zm-.66.37a.35.35,0,0,1-.35-.37.35.35,0,0,1,.35-.38.36.36,0,0,1,.34.38A.34.34,0,0,1,204.46,52.58Z"/><path class="cls-1" d="M205.92,51.54a.61.61,0,0,0-.65.67.62.62,0,0,0,.65.66.45.45,0,0,0,.41-.2l0,.17h.3V51.05h-.32v.7A.52.52,0,0,0,205.92,51.54Zm0,1a.35.35,0,0,1-.36-.37.35.35,0,0,1,.36-.37.37.37,0,1,1,0,.74Z"/><rect class="cls-1" x="207.46" y="51.04" width="0.34" height="1.8"/><path class="cls-1" d="M208.93,52.8l-.08-.27a.31.31,0,0,1-.15,0,.16.16,0,0,1-.17-.18v-.54h.35v-.27h-.35v-.36l-.31,0v.33H208v.27h.24v.54a.41.41,0,0,0,.45.47A.76.76,0,0,0,208.93,52.8Z"/><path class="cls-1" d="M210.15,52.06c-.16,0-.23-.05-.23-.13s.08-.13.23-.13a.44.44,0,0,1,.31.11l.17-.2a.66.66,0,0,0-.49-.17c-.23,0-.53.1-.53.4s.28.37.52.39.25,0,.25.13-.11.15-.23.15a.67.67,0,0,1-.43-.18l-.16.23a.76.76,0,0,0,.59.22c.36,0,.54-.19.54-.41S210.39,52.08,210.15,52.06Z"/><polygon class="cls-1" points="211.44 52.84 211.78 52.84 211.78 52.18 212.68 52.18 212.68 51.86 211.78 51.86 211.78 51.37 212.73 51.37 212.73 51.05 211.44 51.05 211.44 52.84"/><rect class="cls-1" x="212.94" y="51.05" width="0.31" height="1.79"/><path class="cls-1" d="M214.14,51.54a.63.63,0,0,0-.67.66.64.64,0,0,0,.69.67.8.8,0,0,0,.55-.2l-.2-.2a.58.58,0,0,1-.34.12c-.22,0-.36-.11-.38-.27h1C214.83,51.8,214.56,51.54,214.14,51.54Zm-.35.52a.35.35,0,0,1,.36-.25c.18,0,.31.08.33.25Z"/><path class="cls-1" d="M216,51.58v.17a.45.45,0,0,0-.4-.21.62.62,0,0,0-.66.67.61.61,0,0,0,.65.67.49.49,0,0,0,.41-.22l0,.18h.29V51.58Zm-.38,1a.36.36,0,0,1-.38-.38.37.37,0,0,1,.38-.39A.39.39,0,0,1,215.64,52.59Z"/><path class="cls-1" d="M202.23,54.21a.47.47,0,0,0-.43.23.41.41,0,0,0-.71-.06l0-.15h-.29v1.26h.31v-.67a.29.29,0,0,1,.27-.32c.18,0,.26.15.26.32v.67h.32v-.67a.29.29,0,0,1,.27-.32c.17,0,.24.14.24.31v.68h.31v-.68C202.76,54.43,202.59,54.21,202.23,54.21Z"/><path class="cls-1" d="M204.07,54.4a.47.47,0,0,0-.4-.2.67.67,0,0,0,0,1.33.47.47,0,0,0,.41-.22l0,.18h.29V54.23h-.3Zm-.37.84a.38.38,0,1,1,0-.76A.38.38,0,0,1,203.7,55.24Z"/><path class="cls-1" d="M205,54.37l0-.14h-.29v1.26H205v-.66a.3.3,0,0,1,.32-.33.28.28,0,0,1,.22.09l.14-.28a.49.49,0,0,0-.32-.12A.39.39,0,0,0,205,54.37Z"/><polygon class="cls-1" points="206.87 54.24 206.87 54.23 206.49 54.23 206.07 54.74 206.07 53.7 205.75 53.7 205.75 55.49 206.07 55.49 206.07 54.92 206.56 55.49 206.94 55.49 206.94 55.47 206.35 54.82 206.87 54.24"/><path class="cls-1" d="M207.7,54.19a.67.67,0,1,0,0,1.34.81.81,0,0,0,.55-.21l-.2-.2a.52.52,0,0,1-.34.12c-.22,0-.36-.11-.38-.27h1C208.39,54.45,208.12,54.19,207.7,54.19Zm-.34.52a.33.33,0,0,1,.35-.24c.18,0,.31.08.33.24Z"/><path class="cls-1" d="M209.13,55.23a.16.16,0,0,1-.17-.18V54.5h.36v-.27H209v-.36l-.32,0v.32h-.23v.27h.23v.55a.41.41,0,0,0,.46.46.62.62,0,0,0,.26-.06l-.09-.26A.42.42,0,0,1,209.13,55.23Z"/><polygon class="cls-1" points="207.27 42.76 209.39 39.46 200.84 39.46 203.06 42.76 207.27 42.76"/><polygon class="cls-1" points="207.63 49.63 210.23 49.63 213.99 44.73 209.64 39.46 205.27 46.08 207.63 49.63"/><path class="cls-1" d="M200.63,39.46l-4.35,5.28L200,49.63h7.36Zm4.51,9.37a.6.6,0,1,1,.59-.59A.6.6,0,0,1,205.14,48.83Z"/><rect class="cls-1" x="96.77" y="43.83" width="0.69" height="2.98" rx="0.12"/><path class="cls-1" d="M100.37,43.83h-.44a.12.12,0,0,0-.12.12v1.63l-1.26-1.69v0H98a.12.12,0,0,0-.12.12v2.74a.12.12,0,0,0,.12.13h.44a.12.12,0,0,0,.12-.13V45.07l1.26,1.69s0,0,0,0h.51a.13.13,0,0,0,.13-.13V44A.13.13,0,0,0,100.37,43.83Z"/><path class="cls-1" d="M96.27,46.13H95.08V44a.13.13,0,0,0-.13-.12h-.44a.12.12,0,0,0-.12.12v2.74h0a.12.12,0,0,0,0,.09h0a.12.12,0,0,0,.08,0h1.76a.13.13,0,0,0,.13-.13v-.44A.12.12,0,0,0,96.27,46.13Z"/><path class="cls-1" d="M102.81,43.83h-1.76a.1.1,0,0,0-.09,0h0a.11.11,0,0,0,0,.08h0v2.74h0a.12.12,0,0,0,0,.09h0a.13.13,0,0,0,.09,0h1.76a.12.12,0,0,0,.12-.13v-.44a.12.12,0,0,0-.12-.12h-1.2v-.46h1.2a.12.12,0,0,0,.12-.13V45.1a.12.12,0,0,0-.12-.12h-1.2v-.46h1.2a.12.12,0,0,0,.12-.13V44A.12.12,0,0,0,102.81,43.83Z"/><path class="cls-1" d="M113.31,51.1h-.58a.11.11,0,0,1-.08,0l0-.07-.18-.5h-1.19l-.18.5a.16.16,0,0,1,0,.07s0,0-.07,0h-.55c-.07,0-.09,0-.06-.08l1.09-2.82a.19.19,0,0,1,.06-.07.16.16,0,0,1,.11,0h.5a.18.18,0,0,1,.11,0,.19.19,0,0,1,.06.07l1.1,2.82S113.38,51.1,113.31,51.1Zm-1.1-1.22-.37-1-.36,1h.73Z"/><path class="cls-1" d="M115.06,50.42a.15.15,0,0,1,.09,0,.1.1,0,0,1,.08.05l.2.29a.15.15,0,0,1,0,.09.11.11,0,0,1-.06.07,1,1,0,0,1-.33.18,1.34,1.34,0,0,1-.4.07,1.13,1.13,0,0,1-.45-.09,1.47,1.47,0,0,1-.38-.25,1.34,1.34,0,0,1-.25-.37,1,1,0,0,1-.09-.44,1.13,1.13,0,0,1,.09-.45,1.05,1.05,0,0,1,.25-.37,1,1,0,0,1,.36-.25,1.13,1.13,0,0,1,.45-.09,1.16,1.16,0,0,1,.42.07,1,1,0,0,1,.34.19.18.18,0,0,1,0,.07.1.1,0,0,1,0,.1l-.21.26a.08.08,0,0,1-.08,0,.16.16,0,0,1-.09,0,.51.51,0,0,0-.17-.07.54.54,0,0,0-.19,0,.53.53,0,0,0-.39.15.59.59,0,0,0-.14.4.53.53,0,0,0,.15.39.5.5,0,0,0,.38.15.45.45,0,0,0,.2,0A.71.71,0,0,0,115.06,50.42Z"/><path class="cls-1" d="M117.21,50.42a.11.11,0,0,1,.08,0,.11.11,0,0,1,.09.05l.19.29a.1.1,0,0,1,0,.09.13.13,0,0,1,0,.07,1.22,1.22,0,0,1-.34.18,1.28,1.28,0,0,1-.39.07,1.14,1.14,0,0,1-.46-.09,1.6,1.6,0,0,1-.37-.25,1.15,1.15,0,0,1-.25-.37,1.05,1.05,0,0,1-.1-.44,1,1,0,0,1,.1-.45,1.18,1.18,0,0,1,.24-.37,1.15,1.15,0,0,1,.37-.25,1.13,1.13,0,0,1,.45-.09,1.16,1.16,0,0,1,.42.07,1,1,0,0,1,.34.19.1.1,0,0,1,0,.07.12.12,0,0,1,0,.1l-.21.26a.11.11,0,0,1-.09,0,.16.16,0,0,1-.09,0,.46.46,0,0,0-.16-.07.58.58,0,0,0-.19,0,.53.53,0,0,0-.39.15.55.55,0,0,0-.15.4.51.51,0,0,0,.54.54.48.48,0,0,0,.2,0A.71.71,0,0,0,117.21,50.42Z"/><path class="cls-1" d="M119,48.83a1.13,1.13,0,0,1,.45.09,1.17,1.17,0,0,1,.62.62,1.06,1.06,0,0,1,0,.9,1.09,1.09,0,0,1-.25.38,1.18,1.18,0,0,1-.37.24,1,1,0,0,1-.45.1,1,1,0,0,1-.46-.1,1.31,1.31,0,0,1-.37-.24,1.09,1.09,0,0,1-.25-.38,1.17,1.17,0,0,1,0-.9,1.05,1.05,0,0,1,.25-.37,1.15,1.15,0,0,1,.83-.34Zm0,1.7a.65.65,0,0,0,.19,0,.61.61,0,0,0,.16-.12.4.4,0,0,0,.1-.17.46.46,0,0,0,0-.21.49.49,0,0,0,0-.21.48.48,0,0,0-.1-.17.42.42,0,0,0-.16-.11.43.43,0,0,0-.19,0,.42.42,0,0,0-.2,0,.33.33,0,0,0-.15.11.5.5,0,0,0-.11.17.71.71,0,0,0,0,.21.66.66,0,0,0,0,.21.42.42,0,0,0,.11.17.44.44,0,0,0,.15.12A.59.59,0,0,0,119,50.53Z"/><path class="cls-1" d="M122.58,50.1a1.16,1.16,0,0,1-.07.42.93.93,0,0,1-.21.33,1.27,1.27,0,0,1-.34.2,1.18,1.18,0,0,1-.43.07,1.23,1.23,0,0,1-.44-.07,1.08,1.08,0,0,1-.33-.2.83.83,0,0,1-.22-.33,1.16,1.16,0,0,1-.07-.42V49a.16.16,0,0,1,0-.09l.09,0H121a.11.11,0,0,1,.12.12v1a.49.49,0,0,0,.11.33.37.37,0,0,0,.29.12.35.35,0,0,0,.28-.12.49.49,0,0,0,.11-.33V49a.12.12,0,0,1,0-.09.11.11,0,0,1,.08,0h.42a.14.14,0,0,1,.09,0,.16.16,0,0,1,0,.09Z"/><path class="cls-1" d="M125.09,51.07a.12.12,0,0,1-.09,0h-.43a.14.14,0,0,1-.09,0,.12.12,0,0,1,0-.09v-1.1a.44.44,0,0,0-.1-.29.33.33,0,0,0-.27-.11H124l-.11.06a.22.22,0,0,0-.09.1.33.33,0,0,0,0,.15V51a.12.12,0,0,1,0,.09.14.14,0,0,1-.09,0h-.45a.14.14,0,0,1-.09,0,.12.12,0,0,1,0-.09V49a.11.11,0,0,1,.12-.12h.45a.11.11,0,0,1,.12.12v.24A.55.55,0,0,1,124,49a.66.66,0,0,1,.35-.11.7.7,0,0,1,.58.25,1,1,0,0,1,.21.68V51A.12.12,0,0,1,125.09,51.07Z"/><path class="cls-1" d="M127.23,50.88a.09.09,0,0,1,0,0,1.06,1.06,0,0,1-.28.15,1.13,1.13,0,0,1-.32.05.72.72,0,0,1-.57-.23,1,1,0,0,1-.21-.66v-.79h-.3a.12.12,0,0,1-.08,0,.1.1,0,0,1,0-.09V49a.11.11,0,0,1,0-.09.12.12,0,0,1,.08,0h.31v-.44a.11.11,0,0,1,0-.08.11.11,0,0,1,.09,0h.42a.12.12,0,0,1,.09,0,.11.11,0,0,1,0,.08v.44h.45a.12.12,0,0,1,.08,0,.11.11,0,0,1,0,.09v.32a.1.1,0,0,1,0,.09.12.12,0,0,1-.08,0h-.44v.77c0,.2.08.3.23.3l.1,0,.08,0a.06.06,0,0,1,.07,0s0,0,.06,0l.18.31A.11.11,0,0,1,127.23,50.88Z"/><path class="cls-1" d="M97.13,49.6a1.4,1.4,0,0,1-.12.58,1.58,1.58,0,0,1-.33.48,1.56,1.56,0,0,1-.47.32,1.62,1.62,0,0,1-.58.11A1.67,1.67,0,0,1,95,51a1.67,1.67,0,0,1-.8-.8,1.62,1.62,0,0,1-.11-.58,1.58,1.58,0,0,1,.11-.58,1.47,1.47,0,0,1,.33-.48,1.4,1.4,0,0,1,.47-.32,1.48,1.48,0,0,1,.59-.12,1.43,1.43,0,0,1,.58.12,1.4,1.4,0,0,1,.47.32A1.47,1.47,0,0,1,97,49,1.43,1.43,0,0,1,97.13,49.6Zm-.72,0a.92.92,0,0,0-.06-.33,1,1,0,0,0-.17-.26.72.72,0,0,0-.25-.18.63.63,0,0,0-.3-.07.67.67,0,0,0-.31.07.85.85,0,0,0-.25.17.92.92,0,0,0-.16.27.88.88,0,0,0-.06.33.87.87,0,0,0,.06.32.92.92,0,0,0,.16.27.88.88,0,0,0,.25.18.81.81,0,0,0,.31.06.77.77,0,0,0,.3-.06.88.88,0,0,0,.25-.18,1.17,1.17,0,0,0,.17-.26A.88.88,0,0,0,96.41,49.6Z"/><path class="cls-1" d="M99.28,48a.16.16,0,0,1,0,.08.15.15,0,0,1,0,.09l-.17.28s0,0-.08,0a.11.11,0,0,1-.08,0l-.19,0a.3.3,0,0,0-.24.1.42.42,0,0,0-.09.29h.45A.14.14,0,0,1,99,49v.35a.14.14,0,0,1-.12.12h-.45V51a.12.12,0,0,1,0,.09.11.11,0,0,1-.08,0h-.41a.11.11,0,0,1-.08,0,.12.12,0,0,1,0-.09V49.45h-.26a.14.14,0,0,1-.12-.12V49a.14.14,0,0,1,.12-.12h.26a1.07,1.07,0,0,1,.25-.73.8.8,0,0,1,.65-.27,1.65,1.65,0,0,1,.32,0Z"/><path class="cls-1" d="M101.15,48a.11.11,0,0,1,0,.08.14.14,0,0,1,0,.09l-.18.28a.1.1,0,0,1-.07,0,.14.14,0,0,1-.09,0,.57.57,0,0,0-.18,0,.3.3,0,0,0-.25.1.42.42,0,0,0-.08.29h.44a.1.1,0,0,1,.09,0,.11.11,0,0,1,0,.08v.35a.11.11,0,0,1,0,.08.1.1,0,0,1-.09,0h-.44V51a.18.18,0,0,1,0,.09.12.12,0,0,1-.09,0h-.4a.12.12,0,0,1-.09,0,.16.16,0,0,1,0-.09V49.45h-.26a.12.12,0,0,1-.09,0,.11.11,0,0,1,0-.08V49a.11.11,0,0,1,0-.08.12.12,0,0,1,.09,0h.26a1,1,0,0,1,.24-.73.83.83,0,0,1,.65-.27,1.47,1.47,0,0,1,.32,0A1.17,1.17,0,0,1,101.15,48Z"/><path class="cls-1" d="M101.75,47.85A.38.38,0,0,1,102,48a.37.37,0,0,1,.11.27.38.38,0,0,1-.39.39.38.38,0,0,1-.38-.39.33.33,0,0,1,.11-.27A.34.34,0,0,1,101.75,47.85Zm.34,3.12a.12.12,0,0,1,0,.09.11.11,0,0,1-.08,0h-.43a.12.12,0,0,1-.09,0,.18.18,0,0,1,0-.09V49a.12.12,0,0,1,0-.08.1.1,0,0,1,.09,0H102a.14.14,0,0,1,.12.12Z"/><path class="cls-1" d="M104,50.42a.11.11,0,0,1,.08,0s.06,0,.09.05l.19.29a.1.1,0,0,1,0,.09.13.13,0,0,1,0,.07,1.22,1.22,0,0,1-.34.18,1.34,1.34,0,0,1-.39.07,1.14,1.14,0,0,1-.46-.09,1.6,1.6,0,0,1-.37-.25,1.15,1.15,0,0,1-.25-.37,1.05,1.05,0,0,1-.1-.44,1.13,1.13,0,0,1,.09-.45,1.41,1.41,0,0,1,.25-.37,1.15,1.15,0,0,1,.37-.25,1.13,1.13,0,0,1,.45-.09,1.16,1.16,0,0,1,.42.07,1.14,1.14,0,0,1,.34.19.16.16,0,0,1,0,.07.12.12,0,0,1,0,.1l-.21.26a.11.11,0,0,1-.09,0,.16.16,0,0,1-.09,0,.46.46,0,0,0-.16-.07.6.6,0,0,0-.2,0,.52.52,0,0,0-.38.15.55.55,0,0,0-.15.4.53.53,0,0,0,.15.39.52.52,0,0,0,.38.15.49.49,0,0,0,.21,0A.71.71,0,0,0,104,50.42Z"/><path class="cls-1" d="M105.12,47.85a.38.38,0,0,1,.28.12.37.37,0,0,1,.11.27.39.39,0,1,1-.78,0,.37.37,0,0,1,.11-.27A.38.38,0,0,1,105.12,47.85Zm.33,3.12a.16.16,0,0,1,0,.09.12.12,0,0,1-.09,0h-.43a.11.11,0,0,1-.08,0,.12.12,0,0,1,0-.09V49a.14.14,0,0,1,.12-.12h.43a.1.1,0,0,1,.09,0,.11.11,0,0,1,0,.08Z"/><path class="cls-1" d="M108.17,51a.1.1,0,0,1,0,.09.09.09,0,0,1-.08,0h-.46a.12.12,0,0,1-.12-.13V50.8a1.31,1.31,0,0,1-.24.23.6.6,0,0,1-.33.09.94.94,0,0,1-.36-.08.91.91,0,0,1-.33-.22,1.31,1.31,0,0,1-.23-.36,1.21,1.21,0,0,1-.09-.48,1.4,1.4,0,0,1,.08-.47,1.28,1.28,0,0,1,.22-.36.9.9,0,0,1,.32-.23.86.86,0,0,1,.39-.09.56.56,0,0,1,.33.1,1.21,1.21,0,0,1,.24.21V49a.11.11,0,0,1,.12-.12h.46a.11.11,0,0,1,.08,0,.12.12,0,0,1,0,.09Zm-1.14-.5a.43.43,0,0,0,.32-.14.5.5,0,0,0,.12-.34.51.51,0,0,0-.12-.35.43.43,0,0,0-.32-.14.4.4,0,0,0-.31.14.51.51,0,0,0-.12.35.5.5,0,0,0,.12.34A.4.4,0,0,0,107,50.46Z"/><path class="cls-1" d="M108.62,48a.12.12,0,0,1,0-.09.13.13,0,0,1,.09,0h.45a.14.14,0,0,1,.13.13v3a.13.13,0,0,1,0,.09.1.1,0,0,1-.09,0h-.45a.1.1,0,0,1-.09,0,.12.12,0,0,1,0-.09Z"/><path class="cls-1" d="M91.65,43.67a9.23,9.23,0,0,0-2.75-.55l-.74,0-.73,0a9.23,9.23,0,0,0-2.75.55.42.42,0,0,0-.28.4v4.14c0,2.11,2.89,3.37,3.61,3.65a.42.42,0,0,0,.31,0c.72-.28,3.61-1.54,3.61-3.65V44.07A.42.42,0,0,0,91.65,43.67Zm-2.27,5a.15.15,0,0,1-.15.15H87.1a.12.12,0,0,1-.1,0h0a.18.18,0,0,1,0-.1h0V45.35a.15.15,0,0,1,.15-.15h.53a.15.15,0,0,1,.15.15V48h1.45a.15.15,0,0,1,.15.14Z"/><path class="cls-1" d="M183.54,15.59h-8.63a.52.52,0,0,0-.52.52V18a.52.52,0,0,0,.52.52h2.83V28a.52.52,0,0,0,.52.52h1.93a.52.52,0,0,0,.52-.52V18.56h2.83a.52.52,0,0,0,.52-.52V16.11A.52.52,0,0,0,183.54,15.59Z"/><path class="cls-1" d="M150.68,27.74l-2.4-4.09a4.27,4.27,0,0,0,2.18-3.83,4.35,4.35,0,0,0-4.37-4.23h-4.47a.52.52,0,0,0-.52.52V28a.52.52,0,0,0,.52.52h1.93a.52.52,0,0,0,.52-.52V24.21h1.27l2.37,4.06a.53.53,0,0,0,.45.25h2.07A.52.52,0,0,0,150.68,27.74Zm-6.61-9.18h2a1.39,1.39,0,0,1,1,.4,1.33,1.33,0,0,1,0,1.88,1.36,1.36,0,0,1-1,.4h-2Z"/><path class="cls-1" d="M172.72,18V16.11a.52.52,0,0,0-.52-.52h-7.65a.52.52,0,0,0-.52.52V28a.52.52,0,0,0,.52.52h7.65a.52.52,0,0,0,.52-.52V26.07a.52.52,0,0,0-.52-.52H167v-2h4.53a.52.52,0,0,0,.52-.52V21.09a.52.52,0,0,0-.52-.52H167v-2h5.2A.52.52,0,0,0,172.72,18Z"/><path class="cls-1" d="M159.86,28.52H162a.52.52,0,0,0,.43-.81L158.5,22l3.62-5.62a.52.52,0,0,0-.44-.8H159.5a.52.52,0,0,0-.44.24L156,20.57h-.43V16.11a.52.52,0,0,0-.52-.52h-1.93a.52.52,0,0,0-.52.52V28a.52.52,0,0,0,.52.52h1.93a.52.52,0,0,0,.52-.52V23.54h.57l3.29,4.76A.53.53,0,0,0,159.86,28.52Z"/><path class="cls-1" d="M137.05,28.51h1.87a.52.52,0,0,0,.49-.69l-4.24-11.9a.52.52,0,0,0-.49-.34h-2.24a.52.52,0,0,0-.49.34l-4.24,11.9a.52.52,0,0,0,.49.69h1.87a.52.52,0,0,0,.49-.34l.67-1.89h4.66l.67,1.89A.52.52,0,0,0,137.05,28.51Zm-4.76-5.2,1.27-3.56,1.27,3.56Z"/><path class="cls-1" d="M122.74,15.84l-3.19,5.35-3.2-5.35a.52.52,0,0,0-.44-.25H113.6a.52.52,0,0,0-.52.52V28a.52.52,0,0,0,.52.52h1.93a.52.52,0,0,0,.52-.52V20.57l2.83,4.73a.52.52,0,0,0,.44.25h.45a.52.52,0,0,0,.44-.25L123,20.57V28a.52.52,0,0,0,.52.52h1.93A.52.52,0,0,0,126,28V16.11a.52.52,0,0,0-.52-.52h-2.3A.53.53,0,0,0,122.74,15.84Z"/><path class="cls-1" d="M229.68,15.59h-8.62a.52.52,0,0,0-.52.52V18a.52.52,0,0,0,.52.52h2.82V28a.52.52,0,0,0,.52.52h1.94a.52.52,0,0,0,.52-.52V18.56h2.82a.52.52,0,0,0,.52-.52V16.11A.52.52,0,0,0,229.68,15.59Z"/><path class="cls-1" d="M208.62,18V16.11a.52.52,0,0,0-.52-.52h-7.65a.52.52,0,0,0-.52.52V28a.52.52,0,0,0,.52.52h7.65a.52.52,0,0,0,.52-.52V26.07a.52.52,0,0,0-.52-.52h-5.2v-2h4.53A.52.52,0,0,0,208,23V21.09a.52.52,0,0,0-.52-.52H202.9v-2h5.2A.52.52,0,0,0,208.62,18Z"/><path class="cls-1" d="M197.56,18.56a.52.52,0,0,0,.52-.52V16.11a.52.52,0,0,0-.52-.52h-7.44a.52.52,0,0,0-.52.52V28a.52.52,0,0,0,.52.52h2a.44.44,0,0,0,.44-.44V23.54h4.61a.52.52,0,0,0,.52-.52V21.09a.52.52,0,0,0-.52-.52h-4.61v-2Z"/><path class="cls-1" d="M214.78,15.59a4.38,4.38,0,0,0-3,1.05,3.61,3.61,0,0,0-1.18,2.77v0c0,2.59,1.71,3.26,3.95,3.87,2,.54,2.18,1,2.18,1.51v0c0,.69-.61,1.11-1.63,1.11a7.1,7.1,0,0,1-3.83-1.46.5.5,0,0,0-.79.4v1.76a.48.48,0,0,0,.22.41,8.31,8.31,0,0,0,4.49,1.44,4.84,4.84,0,0,0,3.16-1.08,3.49,3.49,0,0,0,1.09-2.84v0c0-2.29-1.37-3.17-3.64-3.8-2.07-.56-2.49-.82-2.49-1.56v0c0-.61.57-1,1.44-1a5.45,5.45,0,0,1,3,1,.5.5,0,0,0,.77-.42V17a.5.5,0,0,0-.24-.43A7.08,7.08,0,0,0,214.78,15.59Z"/><rect class="cls-1" x="80.85" y="15.59" width="2.97" height="12.93" rx="0.53"/><path class="cls-1" d="M96.45,15.59H94.54a.53.53,0,0,0-.53.53v7.05l-5.44-7.34,0-.06h0l0,0h0l0,0h0l0,0h-2.2a.53.53,0,0,0-.53.53V28a.53.53,0,0,0,.53.53h1.92a.53.53,0,0,0,.53-.53v-7L94.1,28.3a.57.57,0,0,0,.14.13h.05l0,0h2.13A.53.53,0,0,0,97,28V16.12A.53.53,0,0,0,96.45,15.59Z"/><path class="cls-1" d="M78.69,25.55h-5.2V16.12a.53.53,0,0,0-.53-.53H71.05a.53.53,0,0,0-.53.53V28h0a.52.52,0,0,0,.15.37h0a.55.55,0,0,0,.37.14h7.64a.53.53,0,0,0,.53-.53V26.08A.53.53,0,0,0,78.69,25.55Z"/><path class="cls-1" d="M107,18.56a.53.53,0,0,0,.53-.53V16.12a.53.53,0,0,0-.53-.53H99.37a.56.56,0,0,0-.37.15h0a.51.51,0,0,0-.15.36h0V28h0a.52.52,0,0,0,.15.37h0a.55.55,0,0,0,.37.14H107a.53.53,0,0,0,.53-.53V26.08a.53.53,0,0,0-.53-.53h-5.2v-2H107a.53.53,0,0,0,.53-.53V21.1a.53.53,0,0,0-.53-.53h-5.2v-2Z"/><path class="cls-1" d="M182.09,47.47a3.91,3.91,0,0,0-3.92-3.92H142.69a4,4,0,0,0-4,3.78,3.93,3.93,0,0,0,3.92,4.06h35.58A3.92,3.92,0,0,0,182.09,47.47Zm-39.5,3.31a3.31,3.31,0,0,1-3.31-3.43,3.37,3.37,0,0,1,3.4-3.2H161a3.32,3.32,0,0,0,0,6.63Zm21-1.88a.11.11,0,0,1-.11.11h-1.88a.09.09,0,0,1-.07,0,.09.09,0,0,1,0-.07V46a.11.11,0,0,1,.11-.11h.46a.11.11,0,0,1,.11.11v2.34h1.3a.11.11,0,0,1,.11.11Zm1.13,0a.11.11,0,0,1-.11.11h-.47a.11.11,0,0,1-.11-.11V46a.11.11,0,0,1,.11-.11h.47a.11.11,0,0,1,.11.11Zm3.25,0a.11.11,0,0,1-.11.11h-.51l0,0-1.4-1.9V48.9a.11.11,0,0,1-.11.11h-.46a.11.11,0,0,1-.11-.11V46a.11.11,0,0,1,.11-.11h.54l1.39,1.88V46a.11.11,0,0,1,.11-.11h.47A.11.11,0,0,1,168,46Zm2.61-2.45a.11.11,0,0,1-.11.11h-1.3v.54h1.3a.11.11,0,0,1,.11.11v.47a.11.11,0,0,1-.11.1h-1.3v.54h1.3a.11.11,0,0,1,.11.11v.47a.11.11,0,0,1-.11.11h-1.88a.09.09,0,0,1-.07,0h0a.09.09,0,0,1,0-.07V46a.1.1,0,0,1,0-.08.15.15,0,0,1,.07,0h1.88a.11.11,0,0,1,.11.11Zm2.3,1.79h-.43v.66a.11.11,0,0,1-.11.11h-.47a.11.11,0,0,1-.11-.11V46h0a.11.11,0,0,1,.11-.11h1a1.19,1.19,0,1,1,0,2.37Zm3.41.64a.12.12,0,0,1-.12.13h-1.15a.8.8,0,0,1-.8-.86.82.82,0,0,1,.83-.75h.66a.33.33,0,0,0-.11-.24c-.11-.09-.36-.15-.93,0a.13.13,0,0,1-.15-.1l-.08-.31a.11.11,0,0,1,.09-.15,1.71,1.71,0,0,1,1.42.12.93.93,0,0,1,.34.79Zm1.23.77H177a.09.09,0,0,1-.07-.12l.38-.9-.79-2a.1.1,0,0,1,.1-.14h.48a.13.13,0,0,1,.12.08l.46,1.15.48-1.16a.14.14,0,0,1,.12-.07h.51a.08.08,0,0,1,.08.11l-1.24,2.95A.12.12,0,0,1,177.55,49.65Z"/><path class="cls-1" d="M172.91,46.56h-.43v1h.43a.5.5,0,1,0,0-1Z"/><path class="cls-1" d="M174.83,48.25a.23.23,0,0,0,.23.18h.69V48h-.7A.23.23,0,0,0,174.83,48.25Z"/><path class="cls-1" d="M145.31,48.45a.64.64,0,0,1-.63-.64.63.63,0,1,1,1.26,0,.64.64,0,0,1-.63.64m0-2A1.33,1.33,0,0,0,144,47.83a1.28,1.28,0,0,0,1.25,1.31.85.85,0,0,0,.57-.19l.17-.12v.24h.69V47.88a1.31,1.31,0,0,0-1.33-1.38"/><path class="cls-1" d="M148.32,48.45a.64.64,0,0,1-.63-.64.63.63,0,1,1,1.26,0,.64.64,0,0,1-.63.64m.09-2a1,1,0,0,0-.57.17l-.17.11V45.46H147v2.28a1.31,1.31,0,0,0,1.32,1.4,1.34,1.34,0,0,0,1.35-1.34,1.29,1.29,0,0,0-1.25-1.3"/><path class="cls-1" d="M151.28,48.45a.64.64,0,0,1-.64-.64.64.64,0,0,1,.64-.63.63.63,0,0,1,.63.63.64.64,0,0,1-.63.64m.08-2a1,1,0,0,0-.56.17l-.18.11V45.46h-.68v2.28a1.34,1.34,0,1,0,2.67.06,1.29,1.29,0,0,0-1.25-1.3"/><rect class="cls-1" x="152.94" y="46.57" width="0.7" height="2.5"/><path class="cls-1" d="M155.42,47.17v-.59h-.69V45.46h-.68v2.63a.85.85,0,0,0,.31.8,1.12,1.12,0,0,0,.78.18h.28v-.6h-.21c-.37,0-.48-.1-.48-.45v-.85Z"/><path class="cls-1" d="M143.79,46.5a1.3,1.3,0,0,0-1.32,1.38v1.19h.68V48c0-.49.24-.79.65-.79h0V46.5h-.05"/></g></svg>