<svg xmlns="http://www.w3.org/2000/svg" xmlns:xlink="http://www.w3.org/1999/xlink" viewBox="0 0 300.68 300.65"><defs><style>.cls-1,.cls-11,.cls-12,.cls-6{fill:none;}.cls-14,.cls-2,.cls-9{fill:#00d782;}.cls-15,.cls-3,.cls-5{fill:#fff;}.cls-4{clip-path:url(#clip-path);}.cls-11,.cls-12,.cls-13,.cls-15,.cls-5,.cls-6,.cls-7,.cls-8,.cls-9{stroke:#000;}.cls-10,.cls-11,.cls-12,.cls-13,.cls-15,.cls-5,.cls-6,.cls-7,.cls-8{stroke-linecap:round;stroke-linejoin:round;}.cls-5,.cls-6,.cls-7,.cls-8{stroke-width:1.11px;}.cls-8{fill:#08ae3c;}.cls-14,.cls-9{stroke-miterlimit:10;}.cls-9{stroke-width:0.76px;}.cls-10{fill:#07b53b;stroke:#07b53b;stroke-width:1.18px;}.cls-11{stroke-width:0.86px;}.cls-12,.cls-13,.cls-15{stroke-width:1.15px;}.cls-14{stroke:#00d782;stroke-width:0.23px;}</style><clipPath id="clip-path"><rect class="cls-1" x="2.79" y="4.19" width="295.14" height="62"/></clipPath></defs><title>LINE Flea Market_Interactive Mirror Mock </title><g id="Layer_1" data-name="Layer 1"><path class="cls-2" d="M300.65,300.65H0V0H300.65ZM6.44,294.2H294.2V6.44H6.44Z"/><rect class="cls-2" width="300.68" height="66.19"/><polygon class="cls-3" points="200.35 52.17 200.56 52.17 200.73 51.68 200.46 51.68 200.35 52.17"/><path class="cls-3" d="M187.48,51.94H188v1.27h.29V51.94h.48v-.26h-1.26Z"/><path class="cls-3" d="M189.5,52.12a.39.39,0,0,0-.33.16v-.6h-.27v1.53h.27v-.55a.27.27,0,0,1,.26-.29c.15,0,.25.08.25.28v.56H190v-.57C190,52.33,189.81,52.12,189.5,52.12Z"/><path class="cls-3" d="M191,52.28a.41.41,0,0,0-.35-.17.52.52,0,0,0-.56.56.53.53,0,0,0,.56.58.45.45,0,0,0,.35-.19v.15h.25V52.13H191Zm-.32.72a.33.33,0,0,1,0-.65A.33.33,0,0,1,190.7,53Z"/><path class="cls-3" d="M192.11,52.12a.46.46,0,0,0-.35.16l0-.15h-.24v1.08h.27v-.55a.28.28,0,0,1,.27-.3.26.26,0,0,1,.26.29v.56h.27v-.56A.47.47,0,0,0,192.11,52.12Z"/><polygon class="cls-3" points="193.8 53.21 193.8 53.19 193.3 52.64 193.74 52.15 193.74 52.13 193.42 52.13 193.06 52.57 193.06 51.68 192.79 51.68 192.79 53.21 193.06 53.21 193.06 52.73 193.48 53.21 193.8 53.21"/><path class="cls-3" d="M195.74,52.33h-.65v.26h.39v.27a.55.55,0,0,1-.35.12.48.48,0,0,1-.52-.51.52.52,0,0,1,.52-.57.57.57,0,0,1,.39.16l.18-.19a.83.83,0,0,0-.57-.23.78.78,0,0,0-.81.83.74.74,0,0,0,.81.78.77.77,0,0,0,.61-.28Z"/><path class="cls-3" d="M197,52.67a.55.55,0,0,0-.56-.56.57.57,0,1,0,.56.56Zm-.56.32a.32.32,0,0,1,0-.63.29.29,0,0,1,.29.31A.29.29,0,0,1,196.47,53Z"/><path class="cls-3" d="M197.71,52.11a.51.51,0,0,0-.54.56.53.53,0,0,0,.55.57.4.4,0,0,0,.35-.18l0,.15h.25V51.68h-.27v.6A.45.45,0,0,0,197.71,52.11Zm0,.88a.31.31,0,0,1-.31-.32.31.31,0,1,1,.31.32Z"/><rect class="cls-3" x="199.03" y="51.68" width="0.29" height="1.53"/><path class="cls-3" d="M200.29,53.18l-.08-.23a.31.31,0,0,1-.13,0,.13.13,0,0,1-.14-.15v-.46h.3v-.23H200v-.31l-.27,0v.28h-.2v.23h.2v.46a.36.36,0,0,0,.39.4A.87.87,0,0,0,200.29,53.18Z"/><path class="cls-3" d="M201.33,52.55c-.14,0-.2,0-.2-.12s.07-.11.19-.11a.38.38,0,0,1,.27.1l.15-.17a.59.59,0,0,0-.42-.15c-.2,0-.46.09-.46.34s.24.32.45.34.21,0,.21.11-.09.13-.19.13a.59.59,0,0,1-.37-.15l-.13.19a.62.62,0,0,0,.49.19c.31,0,.47-.16.47-.35S201.53,52.56,201.33,52.55Z"/><polygon class="cls-3" points="202.42 53.21 202.71 53.21 202.71 52.65 203.48 52.65 203.48 52.38 202.71 52.38 202.71 51.96 203.52 51.96 203.52 51.68 202.42 51.68 202.42 53.21"/><rect class="cls-3" x="203.7" y="51.68" width="0.26" height="1.53"/><path class="cls-3" d="M204.72,52.1a.57.57,0,1,0,0,1.14.71.71,0,0,0,.47-.17L205,52.9a.48.48,0,0,1-.29.1c-.19,0-.31-.1-.32-.23h.84C205.31,52.32,205.08,52.1,204.72,52.1Zm-.29.45a.29.29,0,0,1,.3-.21c.16,0,.27.07.28.21Z"/><path class="cls-3" d="M206.33,52.13v.15a.41.41,0,0,0-.34-.17.57.57,0,0,0,0,1.14.45.45,0,0,0,.35-.19v.15h.25V52.13ZM206,53a.33.33,0,0,1,0-.65A.33.33,0,0,1,206,53Z"/><path class="cls-3" d="M194.57,54.38a.38.38,0,0,0-.36.2.33.33,0,0,0-.32-.21.34.34,0,0,0-.29.16v-.14h-.25v1.08h.26V54.9a.26.26,0,0,1,.23-.28.25.25,0,0,1,.23.28v.57h.26V54.9a.25.25,0,0,1,.24-.27c.14,0,.2.12.2.26v.58H195v-.58C195,54.57,194.88,54.38,194.57,54.38Z"/><path class="cls-3" d="M196.14,54.54a.39.39,0,0,0-.34-.17.57.57,0,0,0,0,1.14.43.43,0,0,0,.34-.19l0,.15h.25V54.4h-.26Zm-.31.72a.33.33,0,0,1,0-.65A.33.33,0,0,1,195.83,55.26Z"/><path class="cls-3" d="M196.9,54.52l0-.12h-.24v1.07h.26v-.56a.25.25,0,0,1,.27-.28.27.27,0,0,1,.19.07l.12-.23a.39.39,0,0,0-.27-.1A.33.33,0,0,0,196.9,54.52Z"/><polygon class="cls-3" points="198.53 54.41 198.53 54.4 198.21 54.4 197.84 54.83 197.84 53.95 197.58 53.95 197.58 55.47 197.84 55.47 197.84 54.99 198.27 55.47 198.59 55.47 198.59 55.45 198.09 54.9 198.53 54.41"/><path class="cls-3" d="M199.24,54.36a.57.57,0,1,0,0,1.14.64.64,0,0,0,.46-.17l-.17-.17a.46.46,0,0,1-.29.1.29.29,0,0,1-.32-.23h.84C199.82,54.59,199.6,54.36,199.24,54.36Zm-.3.45a.3.3,0,0,1,.31-.21c.15,0,.26.07.27.21Z"/><path class="cls-3" d="M200.45,55.25c-.08,0-.14,0-.14-.16v-.46h.3V54.4h-.29v-.31l-.27,0v.28h-.2v.23h.2v.46a.35.35,0,0,0,.39.4.59.59,0,0,0,.22-.05l-.08-.23A.33.33,0,0,1,200.45,55.25Z"/><polygon class="cls-3" points="198.87 44.62 200.68 41.81 193.39 41.81 195.28 44.62 198.87 44.62"/><polygon class="cls-3" points="199.18 50.47 201.39 50.47 204.59 46.3 200.88 41.8 197.17 47.45 199.18 50.47"/><path class="cls-3" d="M193.21,41.81l-3.71,4.5,3.2,4.17H199Zm3.84,8a.5.5,0,0,1-.5-.5.5.5,0,0,1,.5-.51.51.51,0,0,1,.51.51A.5.5,0,0,1,197.05,49.79Z"/><rect class="cls-3" x="104.68" y="45.53" width="0.58" height="2.54" rx="0.1"/><path class="cls-3" d="M107.75,45.53h-.37a.11.11,0,0,0-.11.11V47l-1.07-1.45h-.46a.11.11,0,0,0-.11.11V48a.11.11,0,0,0,.11.11h.37a.11.11,0,0,0,.11-.11V46.59L107.29,48l0,0h.43a.11.11,0,0,0,.11-.11V45.64A.11.11,0,0,0,107.75,45.53Z"/><path class="cls-3" d="M104.26,47.49h-1V45.64a.11.11,0,0,0-.11-.11h-.37a.11.11,0,0,0-.11.11V48h0a.11.11,0,0,0,0,.08h0a.11.11,0,0,0,.07,0h1.51a.11.11,0,0,0,.1-.11V47.6A.11.11,0,0,0,104.26,47.49Z"/><path class="cls-3" d="M109.83,45.53h-1.5a.11.11,0,0,0-.08,0h0a.08.08,0,0,0,0,.07h0V48h0a.11.11,0,0,0,0,.08h0a.11.11,0,0,0,.08,0h1.5a.1.1,0,0,0,.1-.11V47.6a.1.1,0,0,0-.1-.11h-1V47.1h1a.1.1,0,0,0,.1-.11v-.37a.1.1,0,0,0-.1-.11h-1v-.39h1a.1.1,0,0,0,.1-.11v-.37A.1.1,0,0,0,109.83,45.53Z"/><path class="cls-3" d="M118.78,51.73h-.49s-.06,0-.07,0l0-.06-.16-.43h-1l-.15.43,0,.06a.08.08,0,0,1-.07,0h-.47s-.07,0,0-.07l.94-2.4s0,0,0-.06a.17.17,0,0,1,.1,0h.43a.12.12,0,0,1,.09,0l.05.06.94,2.4C118.85,51.71,118.84,51.73,118.78,51.73Zm-.94-1-.31-.86-.32.86h.63Z"/><path class="cls-3" d="M120.27,51.15l.08,0a.1.1,0,0,1,.07,0l.16.24a.08.08,0,0,1,0,.08s0,0,0,.06a1.06,1.06,0,0,1-.28.15,1,1,0,0,1-.34.06,1,1,0,0,1-.39-.08,1,1,0,0,1-.31-.21,1,1,0,0,1-.22-.31,1,1,0,0,1-.08-.38,1,1,0,0,1,.29-.7,1,1,0,0,1,.31-.21,1,1,0,0,1,.38-.08,1,1,0,0,1,.36.06.9.9,0,0,1,.29.16.16.16,0,0,1,0,.07.08.08,0,0,1,0,.08l-.18.22s-.05,0-.07,0a.12.12,0,0,1-.08,0,.35.35,0,0,0-.14-.06.41.41,0,0,0-.16,0,.45.45,0,0,0-.46.47.44.44,0,0,0,.46.46.51.51,0,0,0,.17,0Z"/><path class="cls-3" d="M122.1,51.15l.07,0a.1.1,0,0,1,.08,0l.16.24a.08.08,0,0,1,0,.08.1.1,0,0,1-.05.06,1.06,1.06,0,0,1-.28.15,1,1,0,0,1-.34.06,1,1,0,0,1-.39-.08,1,1,0,0,1-.32-.21,1,1,0,0,1-.21-.31,1,1,0,0,1-.08-.38,1,1,0,0,1,.29-.7,1,1,0,0,1,.31-.21,1,1,0,0,1,.38-.08,1,1,0,0,1,.36.06.9.9,0,0,1,.29.16.16.16,0,0,1,0,.07.08.08,0,0,1,0,.08l-.18.22s0,0-.07,0a.11.11,0,0,1-.08,0,.35.35,0,0,0-.14-.06.43.43,0,0,0-.17,0,.44.44,0,0,0-.32.13.45.45,0,0,0-.13.34.42.42,0,0,0,.13.33.41.41,0,0,0,.32.13.52.52,0,0,0,.18,0Z"/><path class="cls-3" d="M123.59,49.79a1,1,0,0,1,.39.08.94.94,0,0,1,.53.53,1,1,0,0,1,.08.39,1,1,0,0,1-.61.91,1,1,0,0,1-.78,0,1,1,0,0,1-.31-.21,1.21,1.21,0,0,1-.22-.32,1,1,0,0,1-.07-.38,1,1,0,0,1,.07-.39,1.21,1.21,0,0,1,.22-.32,1,1,0,0,1,.31-.21A1,1,0,0,1,123.59,49.79Zm0,1.45a.51.51,0,0,0,.17,0l.13-.1A.42.42,0,0,0,124,51a.57.57,0,0,0,0-.18.58.58,0,0,0,0-.19.42.42,0,0,0-.09-.14l-.13-.1a.51.51,0,0,0-.17,0,.47.47,0,0,0-.17,0l-.13.1-.09.14a.58.58,0,0,0,0,.19.57.57,0,0,0,0,.18l.09.14.13.1A.47.47,0,0,0,123.59,51.24Z"/><path class="cls-3" d="M126.68,50.87a1.06,1.06,0,0,1-.06.37.71.71,0,0,1-.18.27.79.79,0,0,1-.29.18,1.06,1.06,0,0,1-.37.06,1.1,1.1,0,0,1-.37-.06.79.79,0,0,1-.29-.18.82.82,0,0,1-.24-.64v-.94a.1.1,0,0,1,.1-.1h.36a.11.11,0,0,1,.08,0,.09.09,0,0,1,0,.07v.9a.41.41,0,0,0,.09.28.3.3,0,0,0,.24.1.32.32,0,0,0,.25-.1.41.41,0,0,0,.09-.28v-.9a.1.1,0,0,1,.1-.1h.36a.1.1,0,0,1,.1.1Z"/><path class="cls-3" d="M128.82,51.7a.11.11,0,0,1-.07,0h-.37a.11.11,0,0,1-.08,0,.09.09,0,0,1,0-.07v-.94a.39.39,0,0,0-.08-.25.33.33,0,0,0-.23-.1l-.09,0-.09,0a.3.3,0,0,0-.08.08.5.5,0,0,0,0,.13v1a.1.1,0,0,1-.1.1h-.39a.1.1,0,0,1-.1-.1V49.94a.1.1,0,0,1,.1-.1h.39a.1.1,0,0,1,.1.1v.21a.49.49,0,0,1,.21-.26.58.58,0,0,1,.3-.09.61.61,0,0,1,.5.22.86.86,0,0,1,.18.58v1A.09.09,0,0,1,128.82,51.7Z"/><path class="cls-3" d="M130.65,51.54l0,.05a.71.71,0,0,1-.23.12.86.86,0,0,1-.27,0,.62.62,0,0,1-.49-.2.81.81,0,0,1-.18-.57v-.67h-.25a.09.09,0,0,1-.07,0,.11.11,0,0,1,0-.08v-.27a.11.11,0,0,1,0-.08.09.09,0,0,1,.07,0h.26v-.37a.11.11,0,0,1,0-.08.09.09,0,0,1,.07,0h.36a.09.09,0,0,1,.07,0,.11.11,0,0,1,0,.08v.37h.39a.11.11,0,0,1,.07,0,.11.11,0,0,1,0,.08v.27a.11.11,0,0,1,0,.08.11.11,0,0,1-.07,0H130V51c0,.17.07.25.2.25h.08l.07,0,.06,0a.1.1,0,0,1,0,0l.15.26A.11.11,0,0,1,130.65,51.54Z"/><path class="cls-3" d="M105,50.45a1.21,1.21,0,0,1-.1.5,1.41,1.41,0,0,1-.27.4,1.13,1.13,0,0,1-.41.27,1.16,1.16,0,0,1-.49.1,1.21,1.21,0,0,1-.5-.1,1.22,1.22,0,0,1-.68-.68,1.16,1.16,0,0,1-.1-.49,1.21,1.21,0,0,1,.1-.5,1.23,1.23,0,0,1,.27-.4,1.3,1.3,0,0,1,.41-.28,1.39,1.39,0,0,1,.5-.1,1.34,1.34,0,0,1,.49.1,1.3,1.3,0,0,1,.41.28,1.41,1.41,0,0,1,.27.4A1.24,1.24,0,0,1,105,50.45Zm-.61,0a.87.87,0,0,0-.05-.28.71.71,0,0,0-.36-.38.53.53,0,0,0-.25,0,.55.55,0,0,0-.26,0,.86.86,0,0,0-.22.15.88.88,0,0,0-.14.23.81.81,0,0,0,0,.56.83.83,0,0,0,.14.22.69.69,0,0,0,.22.16.71.71,0,0,0,.26,0,.7.7,0,0,0,.25,0,.71.71,0,0,0,.36-.38A.87.87,0,0,0,104.37,50.45Z"/><path class="cls-3" d="M106.82,49.09a.09.09,0,0,1,0,.06.11.11,0,0,1,0,.08l-.14.24a.12.12,0,0,1-.07.05h-.07a.45.45,0,0,0-.16,0,.26.26,0,0,0-.2.08.39.39,0,0,0-.08.25h.38a.1.1,0,0,1,.11.11v.29a.09.09,0,0,1,0,.07.11.11,0,0,1-.08,0h-.38v1.3a.1.1,0,0,1-.1.1h-.35a.1.1,0,0,1-.1-.1v-1.3h-.22a.11.11,0,0,1-.08,0,.09.09,0,0,1,0-.07v-.29a.1.1,0,0,1,.11-.11h.22a.86.86,0,0,1,.21-.62.69.69,0,0,1,.55-.23.77.77,0,0,1,.27,0A.73.73,0,0,1,106.82,49.09Z"/><path class="cls-3" d="M108.42,49.09a.09.09,0,0,1,0,.06.11.11,0,0,1,0,.08l-.14.24a.12.12,0,0,1-.07.05h-.07a.45.45,0,0,0-.16,0,.3.3,0,0,0-.21.08.39.39,0,0,0-.07.25h.38a.09.09,0,0,1,.07,0,.11.11,0,0,1,0,.08v.29a.1.1,0,0,1-.1.1h-.38v1.3a.09.09,0,0,1,0,.07.11.11,0,0,1-.07,0h-.35a.1.1,0,0,1-.1-.1v-1.3H107a.11.11,0,0,1-.08,0,.09.09,0,0,1,0-.07v-.29a.1.1,0,0,1,.11-.11h.22a.86.86,0,0,1,.21-.62.69.69,0,0,1,.55-.23.77.77,0,0,1,.27,0A.85.85,0,0,1,108.42,49.09Z"/><path class="cls-3" d="M108.93,49a.33.33,0,0,1,.23.1.29.29,0,0,1,.1.23.31.31,0,0,1-.1.24.32.32,0,0,1-.23.09.31.31,0,0,1-.33-.33.32.32,0,0,1,.09-.23A.35.35,0,0,1,108.93,49Zm.28,2.66a.1.1,0,0,1-.1.1h-.37a.1.1,0,0,1-.1-.1V49.93a.11.11,0,0,1,0-.08.09.09,0,0,1,.07,0h.37a.09.09,0,0,1,.07,0,.11.11,0,0,1,0,.08Z"/><path class="cls-3" d="M110.87,51.15l.07,0s0,0,.07,0l.17.24a.11.11,0,0,1,0,.08.09.09,0,0,1,0,.06,1.13,1.13,0,0,1-.29.15,1,1,0,0,1-.34.06,1,1,0,0,1-.7-.29,1.16,1.16,0,0,1-.22-.31,1,1,0,0,1-.07-.38,1,1,0,0,1,.6-.91,1,1,0,0,1,.38-.08,1,1,0,0,1,.36.06,1.18,1.18,0,0,1,.29.16.09.09,0,0,1,0,.07.08.08,0,0,1,0,.08l-.18.22s0,0-.07,0a.1.1,0,0,1-.07,0l-.15-.06a.38.38,0,0,0-.16,0,.47.47,0,0,0-.33.13.49.49,0,0,0-.12.34.43.43,0,0,0,.45.46.47.47,0,0,0,.17,0Z"/><path class="cls-3" d="M111.8,49a.33.33,0,0,1,.23.1.29.29,0,0,1,.1.23.31.31,0,0,1-.1.24.32.32,0,0,1-.23.09.31.31,0,0,1-.33-.33.32.32,0,0,1,.09-.23A.35.35,0,0,1,111.8,49Zm.28,2.66a.1.1,0,0,1-.1.1h-.37a.1.1,0,0,1-.1-.1V49.93a.11.11,0,0,1,0-.08.09.09,0,0,1,.07,0H112a.09.09,0,0,1,.07,0,.11.11,0,0,1,0,.08Z"/><path class="cls-3" d="M114.4,51.61a.1.1,0,0,1-.11.11h-.39a.09.09,0,0,1-.07,0,.11.11,0,0,1,0-.08v-.14a1,1,0,0,1-.21.2.5.5,0,0,1-.27.08.92.92,0,0,1-.32-.07.83.83,0,0,1-.27-.19,1,1,0,0,1-.2-.31,1,1,0,0,1-.08-.41,1.34,1.34,0,0,1,.07-.4.91.91,0,0,1,.19-.3.73.73,0,0,1,.27-.2.78.78,0,0,1,.33-.07.49.49,0,0,1,.29.08.86.86,0,0,1,.2.18v-.14a.1.1,0,0,1,.1-.1h.39a.11.11,0,0,1,.08,0,.09.09,0,0,1,0,.07Zm-1-.43a.34.34,0,0,0,.26-.12.42.42,0,0,0,.11-.29.44.44,0,0,0-.11-.29.34.34,0,0,0-.26-.12.34.34,0,0,0-.27.12.43.43,0,0,0-.1.29.41.41,0,0,0,.1.29A.34.34,0,0,0,113.43,51.18Z"/><path class="cls-3" d="M114.78,49.07a.11.11,0,0,1,0-.08.09.09,0,0,1,.07,0h.39a.09.09,0,0,1,.07,0,.11.11,0,0,1,0,.08v2.54a.11.11,0,0,1,0,.08.09.09,0,0,1-.07,0h-.39a.09.09,0,0,1-.07,0,.11.11,0,0,1,0-.08Z"/><path class="cls-3" d="M100.32,45.39A8.1,8.1,0,0,0,98,44.93l-.63,0-.62,0a8,8,0,0,0-2.35.46.38.38,0,0,0-.23.35v3.53c0,1.8,2.46,2.87,3.07,3.11a.42.42,0,0,0,.27,0c.61-.24,3.07-1.31,3.07-3.11V45.74A.38.38,0,0,0,100.32,45.39Zm-1.94,4.27a.12.12,0,0,1-.13.12H96.44a.12.12,0,0,1-.09,0h0a.11.11,0,0,1,0-.08h0V46.83a.13.13,0,0,1,.13-.13h.45a.13.13,0,0,1,.13.13v2.24h1.23a.13.13,0,0,1,.13.13Z"/><path class="cls-3" d="M178.64,21.46h-7.35a.44.44,0,0,0-.44.45v1.64a.44.44,0,0,0,.44.45h2.41v8a.45.45,0,0,0,.44.45h1.65a.45.45,0,0,0,.44-.45V24h2.41a.45.45,0,0,0,.44-.45V21.91A.45.45,0,0,0,178.64,21.46Z"/><path class="cls-3" d="M150.63,31.82l-2-3.49a3.67,3.67,0,0,0,1.86-3.26,3.72,3.72,0,0,0-3.73-3.61h-3.81a.44.44,0,0,0-.44.45V32a.44.44,0,0,0,.44.45h1.65A.45.45,0,0,0,145,32V28.81h1.08l2,3.46a.47.47,0,0,0,.39.22h1.76A.45.45,0,0,0,150.63,31.82ZM145,24h1.7a1.15,1.15,0,0,1,.88.34,1.1,1.1,0,0,1,.34.8,1.14,1.14,0,0,1-.34.8,1.19,1.19,0,0,1-.88.34H145Z"/><path class="cls-3" d="M169.42,23.55V21.91a.45.45,0,0,0-.44-.45h-6.53a.45.45,0,0,0-.44.45V32a.45.45,0,0,0,.44.45H169a.45.45,0,0,0,.44-.45V30.4A.45.45,0,0,0,169,30h-4.44V28.24h3.87a.44.44,0,0,0,.44-.44V26.15a.44.44,0,0,0-.44-.44h-3.87V24H169A.45.45,0,0,0,169.42,23.55Z"/><path class="cls-3" d="M158.46,32.49h1.83a.45.45,0,0,0,.37-.7l-3.37-4.86,3.09-4.78a.45.45,0,0,0-.37-.69h-1.86a.45.45,0,0,0-.37.2l-2.61,4.05h-.37v-3.8a.45.45,0,0,0-.44-.45h-1.65a.45.45,0,0,0-.44.45V32a.45.45,0,0,0,.44.45h1.65a.45.45,0,0,0,.44-.45v-3.8h.49l2.8,4.05A.45.45,0,0,0,158.46,32.49Z"/><path class="cls-3" d="M139,32.48h1.6a.44.44,0,0,0,.41-.6l-3.61-10.13a.44.44,0,0,0-.42-.3h-1.91a.44.44,0,0,0-.41.3l-3.62,10.13a.45.45,0,0,0,.42.6h1.59a.44.44,0,0,0,.42-.3l.58-1.61h4l.57,1.61A.46.46,0,0,0,139,32.48ZM135,28,136,25l1.08,3Z"/><path class="cls-3" d="M126.82,21.68l-2.73,4.55-2.72-4.55a.43.43,0,0,0-.38-.22h-2a.45.45,0,0,0-.45.45V32a.45.45,0,0,0,.45.45h1.64a.45.45,0,0,0,.45-.45V25.7l2.4,4a.46.46,0,0,0,.39.21h.37a.44.44,0,0,0,.38-.21l2.41-4V32a.45.45,0,0,0,.45.45h1.64a.45.45,0,0,0,.45-.45V21.91a.45.45,0,0,0-.45-.45h-2A.43.43,0,0,0,126.82,21.68Z"/><path class="cls-3" d="M218,21.46h-7.35a.45.45,0,0,0-.44.45v1.64a.45.45,0,0,0,.44.45H213v8a.45.45,0,0,0,.44.45h1.65a.44.44,0,0,0,.44-.45V24H218a.45.45,0,0,0,.45-.45V21.91A.45.45,0,0,0,218,21.46Z"/><path class="cls-3" d="M200,23.55V21.91a.45.45,0,0,0-.44-.45h-6.53a.45.45,0,0,0-.44.45V32a.45.45,0,0,0,.44.45h6.53A.45.45,0,0,0,200,32V30.4a.45.45,0,0,0-.44-.45h-4.44V28.24H199a.44.44,0,0,0,.44-.44V26.15a.44.44,0,0,0-.44-.44h-3.87V24h4.44A.45.45,0,0,0,200,23.55Z"/><path class="cls-3" d="M190.59,24a.45.45,0,0,0,.44-.45V21.91a.45.45,0,0,0-.44-.45h-6.34a.45.45,0,0,0-.44.45V32a.45.45,0,0,0,.44.45H186a.38.38,0,0,0,.38-.38V28.24h3.93a.44.44,0,0,0,.44-.44V26.15a.44.44,0,0,0-.44-.44h-3.93V24Z"/><path class="cls-3" d="M205.27,21.46a3.76,3.76,0,0,0-2.56.89,3.08,3.08,0,0,0-1,2.37v0c0,2.21,1.46,2.78,3.37,3.3,1.7.46,1.85.88,1.85,1.29v0c0,.58-.52.94-1.39.94a6,6,0,0,1-3.26-1.25.43.43,0,0,0-.67.35v1.5a.44.44,0,0,0,.18.35,7.12,7.12,0,0,0,3.83,1.23,4.07,4.07,0,0,0,2.69-.93,2.94,2.94,0,0,0,.93-2.42v0c0-1.95-1.17-2.71-3.1-3.24-1.77-.48-2.12-.7-2.12-1.33v0c0-.53.48-.84,1.23-.84a4.68,4.68,0,0,1,2.58.81.42.42,0,0,0,.66-.35V22.67a.44.44,0,0,0-.21-.37A6.08,6.08,0,0,0,205.27,21.46Z"/><rect class="cls-3" x="91.11" y="21.46" width="2.53" height="11.02" rx="0.45"/><path class="cls-3" d="M104.41,21.46h-1.63a.45.45,0,0,0-.45.45v6l-4.64-6.27,0,0h0l0,0h0l0,0h0l0,0H95.68a.45.45,0,0,0-.45.45V32a.46.46,0,0,0,.45.46h1.63a.46.46,0,0,0,.45-.46V26l4.65,6.28a.57.57,0,0,0,.11.11h0l0,0h.1l.12,0h1.63a.46.46,0,0,0,.45-.46V21.91A.45.45,0,0,0,104.41,21.46Z"/><path class="cls-3" d="M89.27,30H84.84v-8a.45.45,0,0,0-.45-.45H82.76a.46.46,0,0,0-.46.45V32h0a.44.44,0,0,0,.13.32h0a.46.46,0,0,0,.32.13h6.51a.46.46,0,0,0,.45-.46V30.4A.45.45,0,0,0,89.27,30Z"/><path class="cls-3" d="M113.41,24a.46.46,0,0,0,.45-.46V21.91a.45.45,0,0,0-.45-.45H106.9a.44.44,0,0,0-.32.13h0a.44.44,0,0,0-.13.31h0V32h0a.44.44,0,0,0,.13.32h0a.44.44,0,0,0,.32.13h6.51a.46.46,0,0,0,.45-.46V30.4a.45.45,0,0,0-.45-.45H109V28.24h4.43a.45.45,0,0,0,.45-.45V26.16a.45.45,0,0,0-.45-.45H109V24Z"/><path class="cls-3" d="M177.41,48.63a3.35,3.35,0,0,0-3.35-3.34H143.82a3.4,3.4,0,0,0-3.42,3.23A3.34,3.34,0,0,0,143.74,52h30.32A3.35,3.35,0,0,0,177.41,48.63Zm-33.67,2.83a2.83,2.83,0,0,1-2.83-2.93,2.88,2.88,0,0,1,2.9-2.72h15.63a2.83,2.83,0,1,0,0,5.65Zm17.92-1.61a.1.1,0,0,1-.09.1H160a.11.11,0,0,1-.07,0,.14.14,0,0,1,0-.07V47.37a.09.09,0,0,1,.09-.09h.4a.09.09,0,0,1,.09.09v2h1.11a.09.09,0,0,1,.09.09Zm1,0a.11.11,0,0,1-.1.1h-.4a.1.1,0,0,1-.09-.1V47.37a.09.09,0,0,1,.09-.09h.4a.1.1,0,0,1,.1.09Zm2.76,0a.1.1,0,0,1-.09.1h-.44l0,0-1.19-1.62v1.56a.1.1,0,0,1-.09.1h-.4a.1.1,0,0,1-.09-.1V47.37a.09.09,0,0,1,.09-.09h.46l1.19,1.6V47.37a.09.09,0,0,1,.09-.09h.4a.09.09,0,0,1,.09.09Zm2.23-2.08a.09.09,0,0,1-.1.09h-1.1v.46h1.1a.09.09,0,0,1,.1.09v.4a.09.09,0,0,1-.1.09h-1.1v.46h1.1a.09.09,0,0,1,.1.09v.4a.1.1,0,0,1-.1.1h-1.59a.09.09,0,0,1-.07,0h0a.09.09,0,0,1,0-.07V47.37a.09.09,0,0,1,0-.07.08.08,0,0,1,.07,0h1.59a.09.09,0,0,1,.1.09Zm2,1.52h-.38v.56a.1.1,0,0,1-.09.1h-.4a.1.1,0,0,1-.09-.1V47.37h0a.09.09,0,0,1,.09-.09h.87a1,1,0,0,1,0,2Zm2.9.55a.11.11,0,0,1-.11.11h-1a.7.7,0,0,1-.69-.74.72.72,0,0,1,.71-.64H172a.25.25,0,0,0-.09-.2c-.09-.07-.31-.13-.79,0a.11.11,0,0,1-.13-.08l-.07-.26a.11.11,0,0,1,.08-.14,1.46,1.46,0,0,1,1.21.11.81.81,0,0,1,.29.68Zm1,.65h-.45c-.05,0-.09-.05-.07-.09l.33-.78-.67-1.68a.09.09,0,0,1,.08-.12h.41a.12.12,0,0,1,.1.07l.39,1,.42-1a.1.1,0,0,1,.1-.07h.43a.07.07,0,0,1,.07.1s-.9,2.15-1.06,2.52A.09.09,0,0,1,173.54,50.49Z"/><path class="cls-3" d="M169.59,47.86h-.38v.85h.38a.43.43,0,0,0,0-.85Z"/><path class="cls-3" d="M171.22,49.3a.18.18,0,0,0,.19.15H172v-.39h-.59A.19.19,0,0,0,171.22,49.3Z"/><path class="cls-3" d="M146.05,49.47a.54.54,0,0,1,0-1.08.54.54,0,1,1,0,1.08m0-1.66a1.12,1.12,0,0,0-1.14,1.13A1.09,1.09,0,0,0,146,50.06a.74.74,0,0,0,.49-.16l.14-.11V50h.58V49a1.11,1.11,0,0,0-1.13-1.17"/><path class="cls-3" d="M148.62,49.47a.54.54,0,1,1,.54-.54.54.54,0,0,1-.54.54m.08-1.66a.87.87,0,0,0-.49.14l-.15.09V46.93h-.58v1.93a1.14,1.14,0,1,0,2.28.06,1.1,1.1,0,0,0-1.06-1.11"/><path class="cls-3" d="M151.14,49.47a.54.54,0,1,1,.54-.54.54.54,0,0,1-.54.54m.08-1.66a.87.87,0,0,0-.49.14l-.15.09V46.93H150v1.93a1.14,1.14,0,1,0,2.28.06,1.1,1.1,0,0,0-1.06-1.11"/><rect class="cls-3" x="152.56" y="47.87" width="0.6" height="2.13"/><path class="cls-3" d="M154.67,48.38v-.51h-.58v-.94h-.58v2.23c0,.36.06.54.26.69a1,1,0,0,0,.66.15h.24v-.51h-.18c-.31,0-.4-.09-.4-.39v-.72Z"/><path class="cls-3" d="M144.76,47.81A1.11,1.11,0,0,0,143.63,49v1h.59v-1c0-.42.2-.67.55-.67h0v-.57h0"/><g class="cls-4"><path class="cls-3" d="M288.09,152.22c.42.26,6,5.67,6,5.67l.44,3.65L289,170.83l1,1.91,14.32-12.14-10.77-12.31Z"/><path class="cls-3" d="M237.41,154c-.15.27-2.62,10.35-2.62,10.35l-10.74.79-1.09.47-.87,2L240,171.52,241.4,166l2.79-9.55Z"/><path class="cls-3" d="M245,19.19l.77,3.62a4.34,4.34,0,0,1,.14,1.56,21,21,0,0,1-.75,2,.59.59,0,0,0,0,.37c.09.2.34.24.54.3.84.26,1.29,1.14,1.67,1.93A10,10,0,0,0,249,31.64a4,4,0,0,0,2.83,1.3,13.66,13.66,0,0,0,2.9-.77.86.86,0,0,1,1.1.36,7.83,7.83,0,0,1,1.2,4.16,18.19,18.19,0,0,0,2.3-1.24L261.72,34a15.66,15.66,0,0,0,3.76-2.83,16.61,16.61,0,0,1-1.3-3.51,33.15,33.15,0,0,1-1.05-4.51c-.11-.77-.16-1.56-.3-2.32a12.15,12.15,0,0,0-1-3,7.18,7.18,0,0,0-1.81-2.5,9.2,9.2,0,0,0-4.18-1.6,8.38,8.38,0,0,0-2.68-.23,7.29,7.29,0,0,0-3.61,1.81,20.49,20.49,0,0,1-3.27,2.47"/><path class="cls-3" d="M245.2,69.33l-3-4.56-5.57-10.62-.89-1.2-1.63-.6-3-2.44-.65-1.34L230,47.12c-.06-.09-.47-.58-.85-.58h0l-.12,0c-.1,0-.27-.43-.37-1l.41-1.48-.41-1.23.19-1.6.48-.88,2.57,3.44.32-1.13,1.17-.48,2.8.81,1.26,1.67,2.31,5.56,8.14,10.24.1-.15c2.79-4.11,6.12-9,6.14-9.22l1.16-1.58-.36,13.85-2.49,6.31-2.49,1-2,.07Z"/><path d="M229.29,40.68l2.27,3,.34.44.15-.53.23-.8,1-.41,2.71.75,1.26,1.62,2.31,5.55v0l0,0,8,10.07.24.3.21-.32c4.93-7.26,5.91-8.79,6.11-9.15h0l.92-1.27-.35,13.35-2.46,6.25-2.39,1-2,.07-2.58-1.41-3-4.52-5.6-10.67-.88-1.18,0-.07-.08,0-1.51-.53-2.91-2.4-.65-1.3-.56-1.47v0l0,0c-.08-.1-.5-.59-.94-.59H229a2.64,2.64,0,0,1-.25-.77l.39-1.48,0-.08,0-.08-.39-1.09.17-1.54.37-.69m0-.52-.6,1.13L228.46,43l.42,1.14-.42,1.54s.2,1.07.51,1.07h0a.18.18,0,0,1,.1,0c.33,0,.72.49.72.49l.56,1.47.68,1.38,3,2.46,1.56.55.88,1.18,5.57,10.64,3,4.6,2.7,1.48,2.12-.08,2.54-1L255,63.44l.37-14.3-1.44,2c0,.19-6.12,9.16-6.12,9.16l-8-10.07-2.33-5.58-1.34-1.73-2.88-.8-1.23.5-.27.93-2.53-3.39Z"/><path d="M297.94,147.74l-16.32-25.33c-.3-1.59-3.72-20.13-5.34-29.81a14.77,14.77,0,0,0-1.92-5.32c-1.06-1.68-2.35-2.56-3.73-2.51a39.19,39.19,0,0,1-16-1.7,22.45,22.45,0,0,0-2.54-.66.57.57,0,0,0-.63.4c-1.31,4.86-6.05,26.12-10.23,44.87-3.23,14.5-6,27-6.59,29.1a.55.55,0,0,0,.32.65,55.54,55.54,0,0,0,11.52,3.33h.09a.56.56,0,0,0,.53-.38l14.25-43.79c-.85-3.15-2.1-7.4-3.25-11.28-1-3.27-1.8-6.1-2.24-7.77a.5.5,0,0,1,.35-.61.51.51,0,0,1,.62.35c.43,1.66,1.27,4.48,2.23,7.75,1.45,4.9,3.07,10.38,3.83,13.55.65,1.88,1.32,3.92,1.65,5.33a1.74,1.74,0,0,0,.08.36,21.37,21.37,0,0,0,3.31,6.54c1.48,2,19.73,23.77,20.5,24.7a.57.57,0,0,0,.76.09s4.89-3.61,8.69-7.17A.54.54,0,0,0,297.94,147.74Z"/><path class="cls-5" d="M262.61,50.75s9.74,15.46,9.55,15.46-5.74,19-5.74,19L263,86.85l-5.11-29.14Z"/><circle cx="248.48" cy="22.55" r="0.85"/><path class="cls-6" d="M244.77,15.49a4.88,4.88,0,0,0-.53,2.91c.3,1.39,1.82,4.33,1.74,5.33a4,4,0,0,1-.72,2.05.93.93,0,0,0,.28,1.29c.51.33,1.08.39,1.19.69A11.49,11.49,0,0,0,249.31,32a2.72,2.72,0,0,0,2.52,1,9.15,9.15,0,0,0,2.47-.67"/><path class="cls-6" d="M249.85,28.6a6.74,6.74,0,0,0,1.51-.56"/><path class="cls-6" d="M254.3,32.34a1.38,1.38,0,0,1,1.93,1,14.83,14.83,0,0,1,.95,3.4"/><path class="cls-7" d="M244.27,17c0-.56.08-.73.78-1.55.41,1.13,3.25,2.58,5.82,2.58,1.47,0,2.52.64,4.18,3.17A2,2,0,0,1,257.36,19a2.33,2.33,0,0,1,1.89,2,3.51,3.51,0,0,1-.84,3.22c1.87.76,5.08,1.81,5.1,1.51a43.23,43.23,0,0,1,.75-4.89,8.86,8.86,0,0,0-4.38-9.11c-3.19-1.88-4.53-2.29-8.27-1.29-2.54.67-5.67.67-6.27,4.47C245.2,15.75,243.47,16.53,244.27,17Z"/><path class="cls-6" d="M263.51,25.69c-.07.73-.09,2.13,1.61,5.25"/><path class="cls-6" d="M234.32,45.09a3.1,3.1,0,0,1-1.63-.59c-.67-.37-1.18-1.34-.64-1.88s1.74-.09,3.15.14a4,4,0,0,1,2.3,1.89,12.22,12.22,0,0,1,1.86,4.16,7.19,7.19,0,0,0,1.3,2.69c3.33,4.53,5.25,7,7.17,9.38"/><path class="cls-7" d="M248.48,11.37c-3.31,2.41-2.9,4.19-4.21,5.67-.56.63-2,2.26-.64,3.55.74.74,2.45,1.14,3.17.65-1.23-1.59-.52-4.57-.52-4.57.81,1.35,3.19,1.56,6,1,1.27-.26,1.66,2.48,2.75,1.94a1,1,0,0,0,.43-.35.52.52,0,0,0,0-.42,4.55,4.55,0,0,0-2-2.31c-.79-.47-1.43-.78-2.24-1.24a6.9,6.9,0,0,1-2-1.73c-.38-.46,8.78-1.63,8.16-1.76C252.83,10.86,251.15,9.41,248.48,11.37Z"/><path class="cls-6" d="M255.93,49.14l-8.1,11.74s3.17,4.34,6,6"/><path class="cls-6" d="M234.79,163.37l-10.74,1.78c-1.34.22-1.54,1-2,2.46l18.36,3.91a43.51,43.51,0,0,0,.9-5.11,10.38,10.38,0,0,1-3.45-.86A11,11,0,0,1,234.79,163.37Z"/><path class="cls-7" d="M234.79,163.37l-10.74,1.78a2,2,0,0,0-1.09.47l17.94,3.78a26,26,0,0,0,.45-3,10.38,10.38,0,0,1-3.45-.86A11,11,0,0,1,234.79,163.37Z"/><path class="cls-6" d="M294.41,160.09l-5.16,9.59c-.64,1.19-.17,1.81.75,3.06l14.32-12.14a42,42,0,0,0-3.5-3.84A10.6,10.6,0,0,1,298,159,10.88,10.88,0,0,1,294.41,160.09Z"/><path class="cls-7" d="M294.41,160.09l-5.16,9.59a2,2,0,0,0-.29,1.15l14-11.89a24.76,24.76,0,0,0-2.09-2.18A10.6,10.6,0,0,1,298,159,10.88,10.88,0,0,1,294.41,160.09Z"/><path class="cls-6" d="M237.41,155.16c-.27,1.59-1.31,8.21-2.62,8.21"/><path class="cls-6" d="M241.35,166.41a45.61,45.61,0,0,1,1.77-7.65"/><path class="cls-6" d="M289.89,153.2c2,2.39,5.16,5.63,4.52,6.89"/><path class="cls-6" d="M300.82,156.76c-1.55-1.45-3.64-4.11-7.27-9.07"/><rect class="cls-8" x="230.25" y="34.43" width="0.47" height="14.73" rx="0.23" transform="translate(10.62 122.62) rotate(-30.46)"/><path class="cls-6" d="M229.68,40.89c-.22-.37-.77-.2-1,.4-.44,1-.3,1.32-.19,1.66a.86.86,0,0,0,.79.6"/><path class="cls-6" d="M231.07,43c-.53-.68-1.22-.31-1.65.44A4.05,4.05,0,0,0,228.9,45c-.18,1.42.55,1.8.95,1.7"/><path class="cls-6" d="M232.4,45.18c-.09-.3-.49-.74-.79-.67s-.82.61-1,.85a3.56,3.56,0,0,0-.76,1.81,1.28,1.28,0,0,0,.56,1.47"/><path class="cls-6" d="M236.16,53.58c-.5-.83-1.46-.88-2.09-1.1a5.27,5.27,0,0,1-1.65-1.09,7.15,7.15,0,0,1-1.93-2.34,1.72,1.72,0,0,1,.07-1.34,3.79,3.79,0,0,1,1.53-.83.77.77,0,0,1,.68,1.31c-.2.25-.23.1-.51.27"/><path class="cls-9" d="M243.9,17.2l20.25,4.09s1.18-6-1.86-9.4-8.77-4.41-12.94-2.44C244.75,11.61,243.9,17.2,243.9,17.2Z"/><path class="cls-9" d="M243.9,17.2,235,18.5a7,7,0,0,0,2,1.43,5.83,5.83,0,0,0,2.55.36c2.09-.2,12.41-1.4,12.41-1.4Z"/><path class="cls-6" d="M256.32,37.3a98.69,98.69,0,0,1,9.54-6.21"/><path class="cls-5" d="M271.1,87s1.32,1.59,3.11,3.57c1.38,1.54,3.43,1.42,5.27,1.42L276.3,69.45"/><path class="cls-5" d="M279,64.6s.14.5.35,1.78c.24,1.43-.31,3-1,4.72-1.78,4.65-6.26,14-9.17,19.47a11.73,11.73,0,0,1-4.28-4.75C266.51,80.78,271,67,271,67"/><path class="cls-6" d="M236.16,53.58c1.25,2.24,4,8.1,5.47,10.51,2.07,3.46,3.17,5.45,4.53,6.21a5.23,5.23,0,0,0,5.58-.21"/><path class="cls-5" d="M264.92,85.82s-2.31,2.28-5.25,4.6-7,1.93-10.55,1.56c2.34-15.23,4.24-42.84,7.2-54.68l9.54-6.21c3.82,3.6,5.77,6.45,8.25,12.48,1.57,3.81,7.15,20,7.15,20A65.62,65.62,0,0,1,267.47,68c-.2-1-3-10.27-4.58-15.37"/><path class="cls-3" d="M33.75,108.2l1.74,11c.34,2.13.67,4.26.81,6.41.24,4-.21,8-.13,12,.19,9.34,3.32,18.42,3.64,27.75a3.35,3.35,0,0,0,.38,1.78,3,3,0,0,0,1.14.93,21,21,0,0,0,4.17,1.77q-.54-9.21-.22-18.44c.09-2.58.23-5.15.14-7.73s-.44-5.4-.42-8.11c0-2.35.3-4.68.48-7,.31-4.19.26-8.4.21-12.6l-.06-5.34a5.6,5.6,0,0,1,.29-2.27,1.91,1.91,0,0,1,1.77-1.24c1.36.11,1.74,1.91,1.75,3.28l0,4.31.2,28.86c0,3.29,0,6.57.07,9.86,0,4.65.06,9.3-.23,13.94a.61.61,0,0,0,.64.81,24.52,24.52,0,0,0,4.28.23c.43,0,.93-.09,1.12-.46a1.41,1.41,0,0,0-.13-1.11,10.75,10.75,0,0,1-.08-5.52l2.14-13.38a68.12,68.12,0,0,0,1-9.11c.12-4.86,0-9.69.6-14.52.47-4.18,1.19-8.23,1.44-12.43a2.36,2.36,0,0,0-1.36-2.66c-3.69-2.29-8.17-3-12.51-3a123.07,123.07,0,0,0-13,1.4"/><path class="cls-3" d="M35.42,40.94a14,14,0,0,0-3.37,2.12,13.15,13.15,0,0,0-2.85,4.67,153.59,153.59,0,0,0-6.37,18l1.81.33a1,1,0,0,1,.59.25,1.09,1.09,0,0,1,.13.89c-.25,1.62-.37,3.39.5,4.77,1.26,2,4.22,2.39,6.42,1.43s3.72-5,5.24-6.84c1.76-2.15,3.58-2.16,5.34-4.3A3.3,3.3,0,0,1,44.38,61a3.07,3.07,0,0,1,2.63.92,17.75,17.75,0,0,1,5.62,8.22A20.77,20.77,0,0,0,54,74.05a3.93,3.93,0,0,0,3.29,2.18A1.24,1.24,0,0,0,58,76c.51-.39.37-1.18.24-1.81a2.76,2.76,0,0,1,.14-1.84,1.23,1.23,0,0,1,1.58-.6,3.19,3.19,0,0,1,.75.84,4.82,4.82,0,0,0,2.05,1.26,6.25,6.25,0,0,0,2.76.65,4.2,4.2,0,0,0,3.31-2.75,11.82,11.82,0,0,0,.62-4.47l2.26-.86a1,1,0,0,0,.5-.31,1,1,0,0,0,0-.86c-.95-3.35-2.61-6.47-3.51-9.83-.81-3.08-1.07-6.54-3.23-8.87-.74-.8-1.66-1.41-2.38-2.21a12,12,0,0,0-1.76-2,6.13,6.13,0,0,0-2.44-.85c-3.06-.6-6.12-1.13-9.2-1.6-3.5-.53-7.12-1-10.55-.11-1.36.35-2.67.91-4.05,1.21"/><path class="cls-3" d="M45.41,13.3a14.74,14.74,0,0,0-7.62,11c-.24,1.93,0,4.08,1.34,5.48.73.74,1.7,1.19,2.47,1.88a5.36,5.36,0,0,1,1.78,4.37,3.23,3.23,0,0,1-.86,2.09,5.15,5.15,0,0,1-2.43,1,13.73,13.73,0,0,0-7.52,4.36c-1.84,2.31-2.5,5.7-1.07,8.28s4.58,3.81,7.51,4.52a34,34,0,0,0,12.54.88c3.75-.51,7.39-1.85,11.17-2,1.65-.07,3.67-.11,4.43-1.57s-.44-3.23-.91-4.87a20.21,20.21,0,0,0-.6-2.35,6,6,0,0,0-1.41-1.91A18.73,18.73,0,0,0,56.9,40c-1.61-.53-3.41-.92-4.48-2.23-1.25-1.55-1-3.88-.1-5.66s2.32-3.24,3.41-4.92c1.43-2.2,2.25-5,1.29-7.48a8.48,8.48,0,0,0-5.09-4.44,11.21,11.21,0,0,0-5.86-.7,7.41,7.41,0,0,0-4.94,3.05"/><path class="cls-10" d="M43.14,54.41h6.12a.6.6,0,0,0,.6-.59l-1.19-7.89a.6.6,0,0,0-.6-.6H42a.6.6,0,0,0-.6.6l1.19,7.89A.6.6,0,0,0,43.14,54.41Z"/><path class="cls-3" d="M48.6,56.16a4.28,4.28,0,0,0,2.28-.64,2.54,2.54,0,0,0-.24-4.27A5.08,5.08,0,0,0,49,50.78c-.94-.15-1.12-.15-2.06-.27a3.14,3.14,0,0,0-1.3.41c-.16.06-1-.07-1.18,0a4.22,4.22,0,0,1-1.23,0c-1.09,0-1.85,0-2.47.88a2.77,2.77,0,0,0-.31,2.08A2.2,2.2,0,0,0,41,55.13a2.47,2.47,0,0,0,1.16.56A21.75,21.75,0,0,0,48.6,56.16Z"/><circle cx="49.57" cy="23.96" r="0.96"/><circle cx="42.74" cy="24.29" r="0.96"/><path class="cls-11" d="M46.1,26.79a.24.24,0,0,0,.18.4"/><path class="cls-12" d="M48.17,30.14a4.18,4.18,0,0,1-2.8.17"/><path class="cls-12" d="M57.27,58.12c-1-1.46-2-3.55-3.17-5.07a2.91,2.91,0,0,0-1.38-1.26,24.35,24.35,0,0,0-5.46-1.25c-1.34-.21-1.75.71-1.39,1.29"/><path class="cls-12" d="M51.58,53.56A23.47,23.47,0,0,0,45.24,52a.84.84,0,0,0-.54,1.53"/><path class="cls-12" d="M42.24,38.42c-1.57.56-4.52,1.24-6.26,2A12.57,12.57,0,0,0,29.44,47c-2.76,6.86-5.51,15.77-6.55,19.35,0,0,3.34.15,5.31.15"/><path class="cls-12" d="M25.31,66.72c-.15,1.82,0,5.23,1.68,6.58s4.81.89,6.68-1.4a59.91,59.91,0,0,0,7-10.08"/><line class="cls-12" x1="28.2" y1="66.54" x2="36.61" y2="58.52"/><path class="cls-12" d="M43.39,33.9A28.73,28.73,0,0,1,43.28,37a2.37,2.37,0,0,1-1,1.47"/><path class="cls-12" d="M53.41,61.62c2.84,3.93,3.69,6.1,7.82,10.87,2.47,2.85,6.44,2.4,7.64-.79A13.59,13.59,0,0,0,69.32,67"/><path class="cls-12" d="M65.91,67a81,81,0,0,1-8.64-8.91"/><path class="cls-13" d="M32.65,85.39a235.94,235.94,0,0,0-.28,25.26c3.39.09,30.42,0,30.42,0S64,95.23,62.16,82.87c-.52-3.57-1.46-9.13-3.22-12.28l-23,0A50.78,50.78,0,0,0,32.65,85.39Z"/><path class="cls-12" d="M55.24,25.59c-.27,3-1,5.61-3.85,7.77a6.78,6.78,0,0,1-5.48,1.45,7.75,7.75,0,0,1-4.48-2.91,7.59,7.59,0,0,1-1.62-3.25"/><path class="cls-12" d="M42.24,15.67l-3.65,9.11.81,5,1.71,1.49,2,2.27.43,2.33-1.28,2.57a13.81,13.81,0,0,0,5.47,1,13.27,13.27,0,0,0,5.56-1.07"/><path class="cls-13" d="M55.24,25.59c.88-.11,1.9-1.91,2-3.51.09-1.14-.21-2.09-.91-2.38-1.4-.57-2.19,1-2.5,1.71-1.08-2.12-4-5.57-6.2-5.94a13.25,13.25,0,0,0-5.08,2.4,9.06,9.06,0,0,0-2.82,5.4c-.15,1.87.22,5,.07,6.53-.12,1.27,0,3.09,1.21,4.12l-3.89-.07c-.73-.63-1.16-2.39-.89-4s1.22-2.36.85-5.68c-.55-5,2-12,7.39-13.88a6.19,6.19,0,0,1,3.29-.17,3.78,3.78,0,0,1,3.21.34A9.63,9.63,0,0,1,55.24,15c1.37,2.56,2.72,6.1,1.69,10a6.48,6.48,0,0,0,.51,3.9,4.09,4.09,0,0,1-.29,4l-4.55.06a2,2,0,0,0,.35-.74,17.89,17.89,0,0,0,1.41-1.94A14.67,14.67,0,0,0,55.24,25.59Z"/><path class="cls-12" d="M50.62,55.24a27.44,27.44,0,0,0-5-1.47c-.64-.07-1.3-.09-1.55.39s-.08,1.3,1,1.66"/><path class="cls-12" d="M49.72,57.07A25.17,25.17,0,0,0,46,55.85c-.77-.17-1.26-.06-1.39.4a1.06,1.06,0,0,0,.62,1.14A37.08,37.08,0,0,0,49,58.86a6,6,0,0,0,4.42,2.76"/><path class="cls-12" d="M36.61,58.52c.72-1.84,1.46-4.3,2.32-6.28a1.42,1.42,0,0,1,1.29-.93,30.51,30.51,0,0,1,5.39-.39"/><path class="cls-12" d="M41.33,53.05a17.07,17.07,0,0,1,2.79-.29"/><path class="cls-12" d="M42.27,54.88a7.91,7.91,0,0,1,1.64-.2"/><path class="cls-12" d="M46.91,58.12a13.48,13.48,0,0,0-3.62.73,7.49,7.49,0,0,1-2.6,3"/><path class="cls-12" d="M42.93,56.77a10.59,10.59,0,0,1,1.19-.09"/><path class="cls-12" d="M49.56,110.65s-.05,8-.05,10.16a54.65,54.65,0,0,0,.43,7.88c.26,2.17-.11,8.05-.1,13.91,0,3.8.29,8.37.19,15.85a44.21,44.21,0,0,1-.9,8.6,6.24,6.24,0,0,0,7.18.71A12.59,12.59,0,0,1,55.22,162c.47-4.44,2.13-11.83,3-17.07,1.26-7.81.58-12.72.66-16.69s1.46-14.81,1.91-17.55"/><path class="cls-12" d="M45.65,110.65s.06,8,.06,10.16a56.23,56.23,0,0,1-.43,7.88c-.26,2.17.11,8.05.1,13.91,0,3.8-.3,8.37-.19,15.85a44.21,44.21,0,0,0,.9,8.6,6.84,6.84,0,0,1-7.18.71A12.59,12.59,0,0,0,40,162c-.47-4.44-2.14-11.83-3-17.07-1.25-7.81-.57-12.72-.66-16.69s-1.45-14.81-1.91-17.55"/><path class="cls-12" d="M65.91,67a49.68,49.68,0,0,0,6.57-.33s-3.54-13.37-5.43-18c-2.1-5.06-4.75-7.17-8.25-8.67a50.64,50.64,0,0,0-5.53-1.71"/><line class="cls-12" x1="61.14" y1="41.91" x2="59.81" y2="51.64"/><path class="cls-12" d="M34.65,41.12s.54,7.56.79,10.52"/><path class="cls-13" d="M54.62,53.73c1.57-.18,5.19-2.09,5.19-2.09s-.08,6.09-.08,8.83"/><path class="cls-3" d="M33.75,108.2l1.74,11c.34,2.13.67,4.26.81,6.41.24,4-.21,8-.13,12,.19,9.34,3.32,18.42,3.64,27.75a3.35,3.35,0,0,0,.38,1.78,3,3,0,0,0,1.14.93,21,21,0,0,0,4.17,1.77q-.54-9.21-.22-18.44c.09-2.58.23-5.15.14-7.73s-.44-5.4-.42-8.11c0-2.35.3-4.68.48-7,.31-4.19.26-8.4.21-12.6l-.06-5.34a5.6,5.6,0,0,1,.29-2.27,1.91,1.91,0,0,1,1.77-1.24c1.36.11,1.74,1.91,1.75,3.28l0,4.31.2,28.86c0,3.29,0,6.57.07,9.86,0,4.65.06,9.3-.23,13.94a.61.61,0,0,0,.64.81,24.52,24.52,0,0,0,4.28.23c.43,0,.93-.09,1.12-.46a1.41,1.41,0,0,0-.13-1.11,10.75,10.75,0,0,1-.08-5.52l2.14-13.38a68.12,68.12,0,0,0,1-9.11c.12-4.86,0-9.69.6-14.52.47-4.18,1.19-8.23,1.44-12.43a2.36,2.36,0,0,0-1.36-2.66c-3.69-2.29-8.17-3-12.51-3a123.07,123.07,0,0,0-13,1.4"/><path class="cls-3" d="M35.42,40.94a14,14,0,0,0-3.37,2.12,13.15,13.15,0,0,0-2.85,4.67,153.59,153.59,0,0,0-6.37,18l1.81.33a1,1,0,0,1,.59.25,1.09,1.09,0,0,1,.13.89c-.25,1.62-.37,3.39.5,4.77,1.26,2,4.22,2.39,6.42,1.43s3.72-5,5.24-6.84c1.76-2.15,3.58-2.16,5.34-4.3A3.3,3.3,0,0,1,44.38,61a3.07,3.07,0,0,1,2.63.92,17.75,17.75,0,0,1,5.62,8.22A20.77,20.77,0,0,0,54,74.05a3.93,3.93,0,0,0,3.29,2.18A1.24,1.24,0,0,0,58,76c.51-.39.37-1.18.24-1.81a2.76,2.76,0,0,1,.14-1.84,1.23,1.23,0,0,1,1.58-.6,3.19,3.19,0,0,1,.75.84,4.82,4.82,0,0,0,2.05,1.26,6.25,6.25,0,0,0,2.76.65,4.2,4.2,0,0,0,3.31-2.75,11.82,11.82,0,0,0,.62-4.47l2.26-.86a1,1,0,0,0,.5-.31,1,1,0,0,0,0-.86c-.95-3.35-2.61-6.47-3.51-9.83-.81-3.08-1.07-6.54-3.23-8.87-.74-.8-1.66-1.41-2.38-2.21a12,12,0,0,0-1.76-2,6.13,6.13,0,0,0-2.44-.85c-3.06-.6-6.12-1.13-9.2-1.6-3.5-.53-7.12-1-10.55-.11-1.36.35-2.67.91-4.05,1.21"/><path class="cls-3" d="M45.41,13.3a14.74,14.74,0,0,0-7.62,11c-.24,1.93,0,4.08,1.34,5.48.73.74,1.7,1.19,2.47,1.88a5.36,5.36,0,0,1,1.78,4.37,3.23,3.23,0,0,1-.86,2.09,5.15,5.15,0,0,1-2.43,1,13.73,13.73,0,0,0-7.52,4.36c-1.84,2.31-2.5,5.7-1.07,8.28s4.58,3.81,7.51,4.52a34,34,0,0,0,12.54.88c3.75-.51,7.39-1.85,11.17-2,1.65-.07,3.67-.11,4.43-1.57s-.44-3.23-.91-4.87a20.21,20.21,0,0,0-.6-2.35,6,6,0,0,0-1.41-1.91A18.73,18.73,0,0,0,56.9,40c-1.61-.53-3.41-.92-4.48-2.23-1.25-1.55-1-3.88-.1-5.66s2.32-3.24,3.41-4.92c1.43-2.2,2.25-5,1.29-7.48a8.48,8.48,0,0,0-5.09-4.44,11.21,11.21,0,0,0-5.86-.7,7.41,7.41,0,0,0-4.94,3.05"/><path class="cls-14" d="M43.14,54.41h6.12a.6.6,0,0,0,.6-.59l-1.19-7.89a.6.6,0,0,0-.6-.6H42a.6.6,0,0,0-.6.6l1.19,7.89A.6.6,0,0,0,43.14,54.41Z"/><path class="cls-3" d="M48.6,56.16a4.28,4.28,0,0,0,2.28-.64,2.54,2.54,0,0,0-.24-4.27A5.08,5.08,0,0,0,49,50.78c-.94-.15-1.12-.15-2.06-.27a3.14,3.14,0,0,0-1.3.41c-.16.06-1-.07-1.18,0a4.22,4.22,0,0,1-1.23,0c-1.09,0-1.85,0-2.47.88a2.77,2.77,0,0,0-.31,2.08A2.2,2.2,0,0,0,41,55.13a2.47,2.47,0,0,0,1.16.56A21.75,21.75,0,0,0,48.6,56.16Z"/><circle cx="49.86" cy="23" r="0.96"/><circle cx="43.36" cy="23" r="0.96"/><path class="cls-11" d="M46.83,26.5a.24.24,0,0,0,.17.4"/><path class="cls-12" d="M49.08,29.17c-1,1.21-3.61.77-4.2,0"/><path class="cls-12" d="M42.24,38.42c-1.57.56-4.52,1.24-6.26,2A12.57,12.57,0,0,0,29.44,47c-2.76,6.86-5.51,15.77-6.55,19.35,0,0,3.34.15,5.31.15"/><path class="cls-12" d="M25.31,66.72c-.15,1.82,0,5.23,1.68,6.58s4.81.89,6.68-1.4a59.91,59.91,0,0,0,7-10.08"/><line class="cls-12" x1="28.2" y1="66.54" x2="36.61" y2="58.52"/><path class="cls-12" d="M43.39,33.9A28.73,28.73,0,0,1,43.28,37a2.37,2.37,0,0,1-1,1.47"/><path class="cls-13" d="M32.65,85.39a235.94,235.94,0,0,0-.28,25.26c3.39.09,30.42,0,30.42,0S64,95.23,62.16,82.87c-.52-3.57-1.46-9.13-3.22-12.28l-23,0A50.78,50.78,0,0,0,32.65,85.39Z"/><path class="cls-12" d="M55.24,25.59c-.27,3-1,5.61-3.85,7.77a6.78,6.78,0,0,1-5.48,1.45,7.75,7.75,0,0,1-4.48-2.91,7.59,7.59,0,0,1-1.62-3.25"/><path class="cls-12" d="M42.24,15.67l-3.65,9.11.81,5,1.71,1.49,2,2.27.43,2.33-1.28,2.57a13.81,13.81,0,0,0,5.47,1,13.27,13.27,0,0,0,5.56-1.07"/><path class="cls-13" d="M55.24,25.59c.88-.11,1.9-1.91,2-3.51.09-1.14-.21-2.09-.91-2.38-1.4-.57-2.19,1-2.5,1.71-1.08-2.12-4-5.57-6.2-5.94a13.25,13.25,0,0,0-5.08,2.4,9.06,9.06,0,0,0-2.82,5.4c-.15,1.87.22,5,.07,6.53-.12,1.27,0,3.09,1.21,4.12l-3.89-.07c-.73-.63-1.16-2.39-.89-4s1.22-2.36.85-5.68c-.55-5,2-12,7.39-13.88a6.19,6.19,0,0,1,3.29-.17,3.78,3.78,0,0,1,3.21.34A9.63,9.63,0,0,1,55.24,15c1.37,2.56,2.72,6.1,1.69,10a6.48,6.48,0,0,0,.51,3.9,4.09,4.09,0,0,1-.29,4l-4.55.06a2,2,0,0,0,.35-.74,17.89,17.89,0,0,0,1.41-1.94A14.67,14.67,0,0,0,55.24,25.59Z"/><path class="cls-12" d="M36.61,58.52c.72-1.84,1.46-4.3,2.32-6.28a1.42,1.42,0,0,1,1.29-.93,30.51,30.51,0,0,1,5.39-.39"/><path class="cls-12" d="M41.33,53.05a17.07,17.07,0,0,1,2.79-.29"/><path class="cls-12" d="M42.27,54.88a7.91,7.91,0,0,1,1.64-.2"/><path class="cls-12" d="M46.91,58.12a13.48,13.48,0,0,0-3.62.73,7.49,7.49,0,0,1-2.6,3"/><path class="cls-12" d="M42.93,56.77a10.59,10.59,0,0,1,1.19-.09"/><path class="cls-12" d="M56.77,152.68c-.66,3.43-1.29,6.83-1.55,9.31a12.59,12.59,0,0,0,1.09,5.77,6.24,6.24,0,0,1-7.18-.71,44.21,44.21,0,0,0,.9-8.6c0-2.21,0-4.15,0-5.91A46.74,46.74,0,0,0,56.77,152.68Z"/><path class="cls-12" d="M49.56,110.65s-.05,8-.05,10.16a54.65,54.65,0,0,0,.43,7.88c.26,2.17-.11,8.05-.1,13.91,0,3.8.29,8.37.19,15.85a44.21,44.21,0,0,1-.9,8.6,6.24,6.24,0,0,0,7.18.71A12.59,12.59,0,0,1,55.22,162c.47-4.44,2.13-11.83,3-17.07,1.26-7.81.58-12.72.66-16.69s1.46-14.81,1.91-17.55"/><path class="cls-15" d="M55.54,165.65c-3-1.7-4.51-.73-6.14.07-.27,1.37-.52,2.76-1,4.78-.18.74-.34,2.52,1.17,2.52,2,0,4.69.06,6.81.06,1.31,0,2-1.14,1.38-2.53C57,168.89,56.26,167.29,55.54,165.65Z"/><path class="cls-12" d="M38.45,152.68c.65,3.43,1.29,6.83,1.55,9.31a12.59,12.59,0,0,1-1.09,5.77,6.84,6.84,0,0,0,7.18-.71,44.21,44.21,0,0,1-.9-8.6c0-2.21,0-4.15,0-5.91A46.74,46.74,0,0,1,38.45,152.68Z"/><path class="cls-12" d="M45.65,110.65s.06,8,.06,10.16a56.23,56.23,0,0,1-.43,7.88c-.26,2.17.11,8.05.1,13.91,0,3.8-.3,8.37-.19,15.85a44.21,44.21,0,0,0,.9,8.6,6.84,6.84,0,0,1-7.18.71A12.59,12.59,0,0,0,40,162c-.47-4.44-2.14-11.83-3-17.07-1.25-7.81-.57-12.72-.66-16.69s-1.45-14.81-1.91-17.55"/><path class="cls-15" d="M39.68,165.65c3-1.7,4.51-.73,6.14.07.27,1.37.45,2.43,1,4.78.17.74.34,2.52-1.18,2.52-2,0-4.69.06-6.8.06-1.31,0-2-1.14-1.38-2.53C38.21,168.89,39,167.29,39.68,165.65Z"/><line class="cls-12" x1="61.14" y1="41.91" x2="59.81" y2="51.64"/><path class="cls-12" d="M34.65,41.12s.54,7.56.79,10.52"/><path class="cls-13" d="M54.62,53.73c1.57-.18,5.19-2.09,5.19-2.09s-.08,6.09-.08,8.83"/><path class="cls-13" d="M35.44,59.47V51.64a10.65,10.65,0,0,0,2.92,1.55l-1.75,4.93Z"/><path class="cls-13" d="M39.39,76.94c-1.58-.18-.35-1.1-1.07-2.5-.59-1.16-2.34-3.9-2.34-3.9s4.49-8.27,4.71-8.72a8.09,8.09,0,0,0,2-.84,8.12,8.12,0,0,1,3.13-2.3,3.29,3.29,0,0,1,3.6.81c.42.53.64,1.25,1.21,1.64a5.29,5.29,0,0,0,1.73.48c2.26.61,2.7,2.88,3.89,4.89a31.33,31.33,0,0,0,3,4.09,17.75,17.75,0,0,0-.57,3c.19,1.87,1.31,3.68-.52,4.12C52.84,79,44.78,77.53,39.39,76.94Z"/><path class="cls-12" d="M52.08,32.87a34.49,34.49,0,0,0,0,3.93,1.66,1.66,0,0,0,1.22,1.57"/><path class="cls-13" d="M35.44,59.47V51.64a10.65,10.65,0,0,0,2.92,1.55l-1.75,4.93Z"/><path class="cls-13" d="M39.39,76.94c-1.58-.18-.35-1.1-1.07-2.5-.59-1.16-2.34-3.9-2.34-3.9s4.49-8.27,4.71-8.72a8.09,8.09,0,0,0,2-.84,8.12,8.12,0,0,1,3.13-2.3,3.29,3.29,0,0,1,3.6.81c.42.53.64,1.25,1.21,1.64a5.29,5.29,0,0,0,1.73.48c2.26.61,2.7,2.88,3.89,4.89a31.33,31.33,0,0,0,3,4.09,17.75,17.75,0,0,0-.57,3c.19,1.87,1.31,3.68-.52,4.12C52.84,79,44.78,77.53,39.39,76.94Z"/><path class="cls-12" d="M52.08,32.87a34.49,34.49,0,0,0,0,3.93,1.66,1.66,0,0,0,1.22,1.57"/><path class="cls-3" d="M61.93,42a17.85,17.85,0,0,1,5,6.32,48.63,48.63,0,0,1,2.8,7.59q1.41,4.71,2.68,9.46a.82.82,0,0,1,0,.49.72.72,0,0,1-.35.36,4.74,4.74,0,0,1-1.74.67.86.86,0,0,0-.56.23.77.77,0,0,0-.11.4A16.14,16.14,0,0,1,69,71.69a4.27,4.27,0,0,1-2.88,2.83A4.61,4.61,0,0,1,63,73.91a8.72,8.72,0,0,1-3.4-3.31c-.55-1-.91-2-1.52-3-1-1.48-2.44-2.53-3.49-3.94a10.72,10.72,0,0,0-1.67-2.1,16.08,16.08,0,0,0-1.66-1c-1.11-.71-1.91-1.84-3.06-2.48-1.44-.8-3.45-.9-4.18-2.36a3.34,3.34,0,0,1-.1-2.25,4.57,4.57,0,0,1,.6-1.42,3.8,3.8,0,0,1,2.69-1.49,7.49,7.49,0,0,1,3.11.41,8,8,0,0,1,2.72,1.38A11.29,11.29,0,0,1,55,54.73l2.34,3.42a13.07,13.07,0,0,0,4.16,4.42l-.29-.34a1.83,1.83,0,0,0,2-.59,5.26,5.26,0,0,0,1-2l2.34-7.33a2.16,2.16,0,0,1,.5-1,.74.74,0,0,1,1-.09,1,1,0,0,1,.26.5l.63,2"/><path class="cls-12" d="M57.27,58.12c-1-1.46-2-3.55-3.17-5.07a2.91,2.91,0,0,0-1.38-1.26,24.35,24.35,0,0,0-5.46-1.25c-1.34-.21-1.75.71-1.39,1.29"/><path class="cls-12" d="M51.58,53.56A23.47,23.47,0,0,0,45.24,52a.84.84,0,0,0-.54,1.53"/><path class="cls-12" d="M53.41,61.62c2.84,3.93,3.69,6.1,7.82,10.87,2.47,2.85,6.44,2.4,7.64-.79A13.59,13.59,0,0,0,69.32,67"/><path class="cls-12" d="M65.91,67a81,81,0,0,1-8.64-8.91"/><path class="cls-12" d="M50.62,55.24a27.44,27.44,0,0,0-5-1.47c-.64-.07-1.3-.09-1.55.39s-.08,1.3,1,1.66"/><path class="cls-12" d="M49.72,57.07A25.17,25.17,0,0,0,46,55.85c-.77-.17-1.26-.06-1.39.4a1.06,1.06,0,0,0,.62,1.14A37.08,37.08,0,0,0,49,58.86a6,6,0,0,0,4.42,2.76"/><path class="cls-12" d="M65.85,67a49.68,49.68,0,0,0,6.57-.33s-3.54-13.37-5.44-18c-2.09-5.06-4.74-7.17-8.24-8.67a50.64,50.64,0,0,0-5.53-1.71"/></g></g></svg>