<svg xmlns="http://www.w3.org/2000/svg" viewBox="0 0 102.82 132.64"><defs><style>.cls-1{fill:#00d782;}</style></defs><title>LINE Flea Market_Interactive Mirror Mock </title><g id="Layer_1" data-name="Layer 1"><path class="cls-1" d="M.11,111.54H13.47v3.89H4.22v5.1h7.94v3.88H4.22v8.23H.11Z"/><path class="cls-1" d="M18.51,111.54H26c5,0,8.26,2.64,8.26,6.65a6.25,6.25,0,0,1-4.44,6.06l4.91,8.39H30l-4.31-7.77h-3v7.77H18.51Zm4.11,3.62v6.09h3.72c2.18,0,3.59-1.21,3.59-3.06s-1.41-3-3.59-3Z"/><path class="cls-1" d="M52.08,127.9H42.83L41,132.64H36.68l8.49-21.1H50l8.5,21.1H53.89Zm-4.64-12-3.23,8.36h6.46Z"/><path class="cls-1" d="M65.64,118v14.61H61.53v-21.1h4.7L73,122l6.71-10.47h4.21v21.1H79.76V118l-7.08,10.7Z"/><path class="cls-1" d="M88.91,111.54h13.66v3.85H93v4.68h8.23V124H93v4.81h9.55v3.88H88.91Z"/><path class="cls-1" d="M102.82,102.82H0V0H102.82ZM2.2,100.62h98.42V2.2H2.2Z"/><rect class="cls-1" x="1.1" y="81.03" width="100.62" height="20.69"/></g></svg>