<svg xmlns="http://www.w3.org/2000/svg" viewBox="0 0 176.76 68.95"><title>LINE Flea Market_Interactive Mirror Mock </title><g id="Layer_1" data-name="Layer 1"><g id="GyayFw"><path d="M4.2,33.43H0v-5.8H4.56a31.85,31.85,0,0,1,4.89-13C14.71,7,22.29,3.05,31.09,1.3A69.35,69.35,0,0,1,60.82,2a11.57,11.57,0,0,0,2.56.31c16.71,0,33.43.05,50.15,0,2.17,0,4.34-.81,6.52-1.14,11.43-1.68,22.77-1.84,33.68,2.69,9.81,4.08,16,11.32,18,21.82.33,1.69,1,2.14,2.5,2a22.68,22.68,0,0,1,2.49,0v5.81h-4c-.37,3-.6,5.76-1.1,8.53a50.14,50.14,0,0,1-5.1,15.37c-4.11,7.55-10.57,11.35-19.07,11.64-22.25.77-41-12.66-48.35-34.43C97.17,28.73,95.88,23,97.77,16.86c-6.12-2.43-12-2.49-17.82.35a1.31,1.31,0,0,0-.52,1.13C81.21,27.21,78,35.08,74.1,42.6c-9.15,17.45-24,26-43.49,26.32C20.44,69.1,13.22,64.28,9.1,55a57.06,57.06,0,0,1-4.79-20C4.29,34.5,4.25,34.08,4.2,33.43ZM107.86,4.78H68.36c4,2.31,7.14,5,9.24,8.63a1.48,1.48,0,0,0,1.36.33A29.2,29.2,0,0,1,98,13.34a1.65,1.65,0,0,0,1.48-.48A26.6,26.6,0,0,1,107.86,4.78Z"/></g></g></svg>