<svg xmlns="http://www.w3.org/2000/svg" viewBox="0 0 150.36 93.11"><defs><style>.cls-1{fill:#fff;}.cls-2{fill:red;stroke:#000;stroke-miterlimit:10;stroke-width:5px;}</style></defs><title>LINE Flea Market_Interactive Mirror Mock </title><g id="Layer_1" data-name="Layer 1"><path class="cls-1" d="M149.39,38.74c-8.49-9.25-17-18.49-25.7-27.53A36.07,36.07,0,0,0,77.82,5.87c-1.64,1-2.69,1.16-4.4.06-15.2-9.74-34.23-7.26-46.59,5.94C20.57,18.56,14.36,25.3,8.07,32,5.45,34.72,2.69,37.34,0,40v.68c1.68,3.21,3.34,6.44,5.06,9.62,19.33,35.77,60,51.56,97.81,37.9,22.52-8.14,37.6-24.33,47.37-46.1A4,4,0,0,0,149.39,38.74Z"/><path class="cls-2" d="M139.59,40.82C132.22,33,124.84,25.08,117.28,17.4a31.75,31.75,0,0,0-39.81-4.55,3,3,0,0,1-3.82.05A31.82,31.82,0,0,0,33.22,18c-5.44,5.69-10.83,11.42-16.29,17.09-2.27,2.35-4.66,4.58-7,6.87v.58c1.46,2.73,2.89,5.47,4.39,8.18A69.51,69.51,0,0,0,99.21,82.93c19.55-6.93,32.64-20.7,41.12-39.23A3.38,3.38,0,0,0,139.59,40.82Zm-36.69,9.4c-15.86,9.27-39.7,8.87-54.65.13l-.17-.13a21,21,0,0,0-3.27-2.16,29,29,0,0,1-4.13-3.74c23.2-11.69,46.53-11.62,69.79.06a35.34,35.34,0,0,1-6.68,5.3C103.49,49.85,103.19,50,102.9,50.22Z"/></g></svg>