<svg xmlns="http://www.w3.org/2000/svg" viewBox="0 0 97.1 114.85"><defs><style>.cls-1{fill:#fff;stroke:#000;stroke-linecap:round;stroke-linejoin:round;stroke-width:5px;}.cls-2{fill:#00d782;}</style></defs><title>LINE Flea Market_Interactive Mirror Mock </title><g id="Layer_1" data-name="Layer 1"><path class="cls-1" d="M77.08,2.5H20A17.51,17.51,0,0,0,2.5,20V70.77A17.51,17.51,0,0,0,20,88.29H49.41c1.06,8.93,6.3,24.06,30.21,24.06,0,0-7.22-8.43-8.19-24.06h5.65A17.52,17.52,0,0,0,94.6,70.77V20A17.52,17.52,0,0,0,77.08,2.5Z"/><g id="YVJxO1"><path class="cls-2" d="M34.82,22a16.29,16.29,0,0,1,6.48.71,12.12,12.12,0,0,1,7.25,6.13,12.07,12.07,0,0,1,7.14-6.09,15.47,15.47,0,0,1,19,8c2.31,4.93,1.73,10.18-.27,15.11-2.63,6.5-7.19,11.6-12.55,15.92-4.18,3.38-8.72,6.31-13.11,9.45h-.46A97.5,97.5,0,0,1,33,59.89C28.52,55.65,24.55,51,22.37,45.12a19.1,19.1,0,0,1-.6-13A14.74,14.74,0,0,1,29,23.75,15.79,15.79,0,0,1,34.82,22Z"/></g></g></svg>