<svg xmlns="http://www.w3.org/2000/svg" viewBox="0 0 160.03 124.89"><defs><style>.cls-1{fill:#fff;}.cls-2{fill:#00d782;}</style></defs><title>LINE Flea Market_Interactive Mirror Mock </title><g id="Layer_1" data-name="Layer 1"><path class="cls-1" d="M61.18,67.45q-17.68,6.84-11,4.79c.25-.08.51-.14.76-.2.52-.12,1-.22,1.56-.29A17.14,17.14,0,0,1,56,71.61a17.43,17.43,0,0,1,6.6,1.74,10.55,10.55,0,0,0,2.12-.85c1.71-.71,3.4-1.44,5.1-2.17s3.39-1.46,5.07-2.21a10.2,10.2,0,0,1,2.09-1,17.41,17.41,0,0,0-11.07-1.43A36.51,36.51,0,0,0,59,68.22c-4.08,1.73-8.3,3.34-12.22,5.42,2.26-1.2,4.87-2,7.22-3s4.86-2,7.16-3.16Z"/><path class="cls-2" d="M51.74,114.93l7.12-.34c-.07,0-1.49-2.14-1.31-1.89-1.07-1.5-2.16-3-3.25-4.48s-2.17-3-3.28-4.46c-.2-.26-1.14-1.83-1.4-1.82l-7.11.35c.07,0,1.48,2.13,1.3,1.88,1.07,1.5,2.16,3,3.25,4.49s2.18,3,3.28,4.45c.2.27,1.14,1.84,1.4,1.82Z"/><path class="cls-1" d="M102.89,58.9l2.8,8.32a11.35,11.35,0,0,1,.06-2.29c0-1.85,0-3.69,0-5.54s0-3.69,0-5.53a8.4,8.4,0,0,0-.06-2.3l-2.8-8.32a11.52,11.52,0,0,1,0,2.3c0,1.84,0,3.69,0,5.53s0,3.69,0,5.54a8.74,8.74,0,0,0,0,2.29Z"/><path class="cls-1" d="M41.38,55.61l2.95,0,.49-.46c.39-.37.77-.75,1.16-1.14l3.9-3.92c1.29-1.31,2.59-2.63,3.87-4l.85-.88c.25-.25.49-.51.72-.79l-3,0-.49.46c-.39.37-.78.75-1.16,1.14-1.3,1.29-2.6,2.61-3.9,3.92s-2.59,2.63-3.87,4l-.85.88c-.25.25-.49.51-.72.79Z"/><path class="cls-1" d="M78.34,39.41l2.36-1.62L79,36.23Q77,34.37,74.9,32.54c-1.38-1.23-2.76-2.45-4.16-3.66A13.39,13.39,0,0,0,69,27.4L66.63,29s2,1.8,1.68,1.56q2.06,1.86,4.12,3.69c1.39,1.22,2.77,2.45,4.16,3.66a14.85,14.85,0,0,0,1.75,1.48Z"/><path class="cls-2" d="M90.65,88.45l3.2,5.33s1.43-2.2,1.25-1.92q1.49-2.34,2.94-4.7c1-1.57,1.94-3.13,2.89-4.71.16-.26,1.27-1.8,1.16-2L98.9,75.15s-1.43,2.2-1.25,1.92c-1,1.55-2,3.12-2.94,4.69s-1.94,3.14-2.9,4.71c-.15.26-1.27,1.8-1.16,2Z"/><path class="cls-1" d="M144.87,80l-.29,5.71a22.87,22.87,0,0,0,2.2.63c1.78.48,3.57.94,5.36,1.4s3.57.92,5.36,1.36c.22.06,2.24.5,2.24.52l.29-5.71c0-.08-2.53-.71-2.21-.63-1.78-.48-3.57-.94-5.35-1.4s-3.58-.92-5.37-1.36c-.22,0-2.23-.5-2.23-.52Z"/><path class="cls-1" d="M4.9,89.16a5.3,5.3,0,0,0,3.64.9,11.45,11.45,0,0,0,1.4-1.82c1.1-1.48,2.2-3,3.28-4.46s2.18-3,3.25-4.48l.71-1a8.67,8.67,0,0,0,.6-.89,5.25,5.25,0,0,1-3.63-.89c-.23-.16-9.21,12.66-9.25,12.63Z"/><path class="cls-1" d="M22.88,20.25l3.47,5.89a11.58,11.58,0,0,1-.21-2.29c-.19-1.83-.4-3.67-.61-5.5s-.42-3.66-.65-5.49a7.4,7.4,0,0,0-.32-2.28L21.08,4.7A10.73,10.73,0,0,1,21.29,7c.19,1.84.4,3.67.61,5.5s.43,3.67.66,5.5a7.33,7.33,0,0,0,.32,2.27Z"/><path class="cls-2" d="M89.37,30.49a14.8,14.8,0,0,0,7-1.13c.28-.12-5.61-14.61-5.55-14.64a14.8,14.8,0,0,1-7,1.13s.88,2.48.77,2.16q.94,2.59,1.94,5.18t2,5.17a9.93,9.93,0,0,0,.86,2.13Z"/><path class="cls-1" d="M146.08,46.69a5.14,5.14,0,0,1,4.34-5.55c-.06,0-1.65-2-1.45-1.78q-1.78-2.11-3.59-4.21c-1.2-1.4-2.4-2.8-3.62-4.19-.21-.24-1.29-1.74-1.54-1.7a5.13,5.13,0,0,0-4.33,5.55c0,.34,1.42,1.74,1.45,1.78q1.77,2.11,3.59,4.21c1.2,1.4,2.4,2.8,3.62,4.19.29.33,1.5,1.32,1.53,1.7Z"/><path class="cls-1" d="M125.58,105a12.92,12.92,0,0,0-1.84,1.37c-2.25,1.9-4.46,3.85-6.67,5.8-1.81,1.6-4.14,3.15-5.46,5.24a6.72,6.72,0,0,0,.18,7.51c-.2-.28,12.11-9.85,11.77-10.32a6.71,6.71,0,0,1,.81-8.7L113,115.82a5.19,5.19,0,0,1,.79-.53,13.31,13.31,0,0,0,1.76-1.47q2.1-1.8,4.18-3.63c1.38-1.21,2.77-2.43,4.14-3.66a13.7,13.7,0,0,1,1.69-1.56Z"/><path class="cls-2" d="M121.88,72.47l5.74-5.37a30.8,30.8,0,0,1,2.58-2.41c1-.71,1.61-.49,2.56.13a11.89,11.89,0,0,0,11.74,1,15.35,15.35,0,0,0,.05-2.29c0-1.84,0-3.69,0-5.53s0-3.69,0-5.54a18.26,18.26,0,0,1-.05-2.29,12,12,0,0,1-11.74-1c-.89-.58-1.44-.85-2.37-.27a18.31,18.31,0,0,0-2.52,2.31l-6,5.61a11.3,11.3,0,0,0,0,2.29c0,1.85,0,3.69,0,5.54s0,3.69,0,5.53a9.4,9.4,0,0,1,0,2.29Z"/><path class="cls-2" d="M0,57.1a83.89,83.89,0,0,0,18.64-1.54A9.76,9.76,0,0,0,20,53.75q1.66-2.22,3.3-4.45t3.26-4.48c.22-.3,1-1.82,1.31-1.88A83.89,83.89,0,0,1,9.27,44.48a13,13,0,0,0-1.4,1.82c-1.11,1.47-2.21,3-3.3,4.44s-2.18,3-3.26,4.48A12,12,0,0,1,0,57.1Z"/><path class="cls-1" d="M107.39,21.27a22.3,22.3,0,0,0,9.39,4.89,11.59,11.59,0,0,0,1.79-1.43c1.42-1.18,2.84-2.36,4.25-3.56L127,17.59c.23-.2,1.54-1.57,1.72-1.52a22.47,22.47,0,0,1-9.4-4.9c-.2-.17-5.56,4.6-6,5s-5.83,5.2-5.93,5.11Z"/><circle class="cls-1" cx="46.56" cy="23.28" r="4.12"/><circle class="cls-2" cx="36.13" cy="84.46" r="3.42"/><circle class="cls-1" cx="80.99" cy="105.82" r="6.2"/><circle class="cls-2" cx="79.32" cy="56.91" r="1.67"/><circle class="cls-2" cx="41.38" cy="1.67" r="1.67"/><circle class="cls-2" cx="140.29" cy="102.76" r="1.67"/><circle class="cls-1" cx="143.14" cy="17.12" r="2.85"/></g></svg>