<svg xmlns="http://www.w3.org/2000/svg" viewBox="0 0 102.65 123.19"><defs><style>.cls-1{fill:#fff;}.cls-2{fill:#07ad38;}</style></defs><title>LINE Flea Market_Interactive Mirror Mock </title><g id="Layer_1" data-name="Layer 1"><g id="_2YUhM3" data-name="2YUhM3"><path d="M100.37,21.15c-1.37-.57-4.06-1.4-4.77-2.62a10.09,10.09,0,0,0-7.29-5c-1.54-.32-2.07-1.15-2.11-2.72a59.69,59.69,0,0,0-.74-8.56c-.45-2.6-2.08-3.07-3.73-1s-2.87,4.72-4.4,7c-.84,1.27-1.69,2.81-2.93,3.47-8,4.26-10.46,11.36-10.7,19.77a6.38,6.38,0,0,1-.89,3.12c-3.61,5.59-8.35,9.68-14.92,11.53a13.64,13.64,0,0,0-5.48,2.85A50.82,50.82,0,0,0,27,76.56c-1.89,9.35-.59,18.89.77,28.3.56,4,.47,7.71-1.32,11.44a22.9,22.9,0,0,0-1.84,5.37c1,.19,2,.4,2.92.64,1.08-.07,2.17-.13,3.27-.14a5.37,5.37,0,0,1,2.2.38c9.31.23,18.51.54,27.71.63,3.9,0,7.81-.34,11.7-.64,2.06-.15,2.75-1.57,2.68-3.47-.08-2.24-1.6-3.18-3.47-3.66-1.61-.41-3.28-.6-4.72-.85,1.32-2.35,2.55-4.53,3.85-6.82.9,2,1.66,4.07,2.7,6a32.2,32.2,0,0,0,3.75,5.6c2,2.28,4.71,2.8,7.64,2.17,2.43-.51,4.35-1.45,3.67-4.51,0-.12.15-.29.25-.43,2.5-3.74,2.35-4.24-1.9-4.93-2.27-.37-3.32-1.37-3.3-3.77,0-7,.07-13.92-.19-20.87s2.26-12.8,6.06-18.45c1.82-2.73,3.48-6.09,3.69-9.26a86.28,86.28,0,0,0-.75-17.88c-.6-4.17.08-4.75,3.85-6.7,2.84-1.46,5.73-6.22,6.36-9.38A3.25,3.25,0,0,0,100.37,21.15Z"/></g><path d="M27.09,122.4c-3.78-.34-6.7-3.31-9.27-6.11a98.47,98.47,0,0,1-7.2-8.47C-.08,93.16-2,73.47,1.75,55.7,2.94,50,5.14,43.89,10.31,41.29A5.21,5.21,0,0,1,13,40.63c2.63.21,4.09,3.41,3.58,6s-2.3,4.68-3.8,6.84C7.4,61.2,9.29,72.14,10.07,81.53a58.75,58.75,0,0,0,9.37,26.36c3.14,5,6.25,6.44,12,7.43a4.58,4.58,0,0,1,3.3,4.85C34.44,122.49,28.63,122.53,27.09,122.4Z"/><ellipse class="cls-1" cx="86.31" cy="20.01" rx="1.34" ry="2.68" transform="translate(1.56 45.84) rotate(-30)"/><path d="M65.62,9.05a8.07,8.07,0,0,1-.48-2.69A2.88,2.88,0,0,1,66.34,4c1.41-.9,3.24.05,4.56,1.07a35.36,35.36,0,0,1,5.66,5.48,6.27,6.27,0,0,1,1.53,2.75,4.69,4.69,0,0,1-1.73,4.21,13.84,13.84,0,0,1-4.19,2.23A2.27,2.27,0,0,1,71,20C68,19.46,66.28,11.23,65.62,9.05Z"/><path class="cls-2" d="M57.13,41.28l5.68-6.61s6.31,11.6,29.9,9.78c0,0,1.85.39.57,5.93C93.28,50.38,84,53.67,57.13,41.28Z"/></g></svg>