<svg xmlns="http://www.w3.org/2000/svg" viewBox="0 0 152.59 93.5"><defs><style>.cls-1,.cls-3{fill:#fff;}.cls-1,.cls-2{stroke:#000;stroke-miterlimit:10;}.cls-1{stroke-width:7.64px;}.cls-2{fill:#00d782;stroke-width:6.36px;}</style></defs><title>LINE Flea Market_Interactive Mirror Mock </title><g id="Layer_1" data-name="Layer 1"><rect x="73.26" width="3.41" height="54.26"/><polygon points="76.67 0 73.26 0 73.26 54.26 76.67 54.26 76.67 0 76.67 0"/><rect x="34.27" y="16.59" width="3.41" height="54.26" transform="translate(-18.2 27.28) rotate(-33.67)"/><polygon points="22.36 20.19 19.52 22.08 49.6 67.24 52.44 65.34 22.36 20.19 22.36 20.19"/><rect x="17.81" y="33.15" width="3.41" height="54.26" transform="translate(-35.48 28.82) rotate(-42.29)"/><polygon points="2.53 39.06 0 41.35 36.51 81.49 39.03 79.19 2.53 39.06 2.53 39.06"/><rect x="52.58" y="4.39" width="3.41" height="54.26" transform="translate(-7.59 20.95) rotate(-20.45)"/><polygon points="46.41 5.5 43.21 6.69 62.17 57.53 65.37 56.34 46.41 5.5 46.41 5.5"/><rect x="89.29" y="42.01" width="54.26" height="3.41" transform="translate(15.49 116.37) rotate(-56.33)"/><polygon points="130.03 20.19 99.96 65.34 102.8 67.24 132.88 22.08 130.03 20.19 130.03 20.19"/><rect x="105.75" y="58.57" width="54.26" height="3.41" transform="translate(-1.12 118.02) rotate(-47.71)"/><polygon points="149.87 39.06 113.36 79.19 115.89 81.49 152.39 41.35 149.87 39.06 149.87 39.06"/><rect x="70.98" y="29.81" width="54.26" height="3.41" transform="translate(34.3 112.43) rotate(-69.55)"/><polygon points="105.98 5.5 87.03 56.34 90.23 57.53 109.18 6.69 105.98 5.5 105.98 5.5"/><path class="cls-1" d="M5.82,60s62.35-79,141.32,0C147.14,60,78.14,126.77,5.82,60Z"/><circle class="cls-2" cx="76.48" cy="57.3" r="27.93"/><path class="cls-3" d="M90.72,59.59c-11.23,0-14-13.07-14.23-14.22v-.16s0,.07,0,.11v.06C75.3,59.05,62.24,59,62.24,59c11.23,0,14,13.07,14.23,14.22v.16a.37.37,0,0,0,0-.11v0C77.66,59.55,90.72,59.59,90.72,59.59Z"/><path class="cls-3" d="M73.26,46.61c-4,0-5-4.64-5.06-5v0h0v0a5.07,5.07,0,0,1-5,4.84c4,0,5,4.65,5,5.06v0h0v0A5.09,5.09,0,0,1,73.26,46.61Z"/><path class="cls-3" d="M86.35,43.77c-2,0-2.49-2.33-2.53-2.53v0h0v0a2.54,2.54,0,0,1-2.53,2.42c2,0,2.49,2.32,2.53,2.53v0h0A2.54,2.54,0,0,1,86.35,43.77Z"/></g></svg>