<svg xmlns="http://www.w3.org/2000/svg" viewBox="0 0 77.89 112.89"><defs><style>.cls-1{fill:#fff;stroke:#000;stroke-miterlimit:10;stroke-width:4.45px;}</style></defs><title>LINE Flea Market_Interactive Mirror Mock </title><g id="Layer_1" data-name="Layer 1"><path class="cls-1" d="M14.11,43.43l-2.47-27s-.49-5.26,5.76-6.74c0,0,6.41-2,9,3.94L32,32.25,14.44,48.69Z"/><path class="cls-1" d="M48.79,3.77c-3,2.17-5.42,6-7.8,9L26.71,30.88,6.55,56.42s-6.41,10-3.62,19.39c0,0,1,4.44,4.11,6.58a21.71,21.71,0,0,1,2.79,5.92,9.22,9.22,0,0,0,7.9,5.92s3.27.82,4.1,2.46c0,0,2.64,7.73,11,7.24a2.79,2.79,0,0,1,3.29,1.48s12,10.52,21,1.8c0,0,15.62-23.18,17.59-33.7,0,0,4.44-14.3-6.41-16.52,0,0-1-11.75-11.67-9.12,0,0-.33-9.87-11.35-9.87l7.59-10.75c1.65-2.34,3.16-4.75,4.92-7s3.63-4.52,4.45-7.31C64.54,5.28,55.05-.72,48.79,3.77Z"/><line class="cls-1" x1="29.56" y1="58.39" x2="45.34" y2="38"/><path class="cls-1" d="M41.56,69.24s13-14,15.13-21.37"/><path class="cls-1" d="M55.21,77.79S67,63.81,68.36,57"/></g></svg>