<svg xmlns="http://www.w3.org/2000/svg" viewBox="0 0 149.84 36.42"><title>LINE Flea Market_Interactive Mirror Mock </title><g id="Layer_1" data-name="Layer 1"><path d="M74.91,16.91C77.6,10.15,71.74,2.35,64.69.57s-14.47.85-20.94,4.18-12.69,7.46-19.8,9c-7.87,1.73-16,.14-23.95-1.45a57.07,57.07,0,0,0,50.72,23.9c5.89-.5,11.82-2,16.74-5.26s8.76-8.47,9.47-14.34"/><path d="M74.92,16.91C72.24,10.15,78.09,2.35,85.15.57s14.47.85,20.94,4.18,12.69,7.46,19.79,9c7.88,1.73,16.06.14,24-1.45a57.07,57.07,0,0,1-50.73,23.9c-5.89-.5-11.81-2-16.74-5.26s-8.76-8.47-9.46-14.34"/></g></svg>