<svg xmlns="http://www.w3.org/2000/svg" viewBox="0 0 111.68 106.22"><defs><style>.cls-1{fill:#fff;}</style></defs><title>LINE Flea Market_Interactive Mirror Mock </title><g id="Layer_1" data-name="Layer 1"><polygon class="cls-1" points="30.61 66.92 5.37 42.32 40.25 37.25 55.84 5.65 71.44 37.25 106.31 42.32 81.08 66.92 87.03 101.65 55.84 85.25 24.65 101.65 30.61 66.92"/><path d="M55.84,11.3,68.61,37.18l1.17,2.35,2.6.38,28.56,4.15L80.27,64.21,78.39,66l.45,2.59,4.87,28.45L58.17,83.65l-2.33-1.22-2.32,1.22L28,97.08l4.88-28.45L33.29,66l-1.88-1.83L10.74,44.06l28.57-4.15,2.6-.38,1.16-2.35L55.84,11.3m0-11.3L38.59,35,0,40.57,27.92,67.79l-6.59,38.43L55.84,88.07l34.51,18.15L83.76,67.79l27.92-27.22L73.1,35,55.84,0Z"/></g></svg>