<svg xmlns="http://www.w3.org/2000/svg" viewBox="0 0 188.07 94.04"><defs><style>.cls-1{fill:#00d782;}.cls-2{fill:#fff;}.cls-3{fill:red;}.cls-4{fill:#606060;}</style></defs><title>LINE Flea Market_Interactive Mirror Mock </title><g id="Layer_1" data-name="Layer 1"><path class="cls-1" d="M94,13.13A80.91,80.91,0,0,1,174.94,94h13.13A94,94,0,1,0,0,94H13.13A80.92,80.92,0,0,1,94,13.13Z"/><path d="M94,13.13A80.92,80.92,0,0,0,13.13,94H27.34a66.7,66.7,0,0,1,133.4,0h14.2A80.91,80.91,0,0,0,94,13.13Z"/><path class="cls-2" d="M94,42a52,52,0,0,1,52,52h14.68a66.7,66.7,0,0,0-133.4,0H42A52,52,0,0,1,94,42Z"/><path class="cls-3" d="M94,42A52,52,0,0,0,42,94H58.58a35.46,35.46,0,1,1,70.92,0h16.56A52,52,0,0,0,94,42Z"/><path class="cls-4" d="M94,58.58A35.45,35.45,0,0,0,58.58,94H129.5A35.46,35.46,0,0,0,94,58.58Z"/></g></svg>