<svg xmlns="http://www.w3.org/2000/svg" viewBox="0 0 115.09 130.06"><defs><style>.cls-1{fill:#fff;}</style></defs><title>LINE Flea Market_Interactive Mirror Mock </title><g id="Layer_1" data-name="Layer 1"><path class="cls-1" d="M115.09,74.3c-45.37,0-56.61-52.83-57.51-57.49v-.64c0,.15,0,.29,0,.43l0-.12v.36C52.78,72.1,0,71.93,0,71.93c45.38,0,56.61,52.83,57.51,57.49v.64c0-.15,0-.29,0-.43,0,.07,0,.12,0,.12v-.36C62.31,74.13,115.09,74.3,115.09,74.3Z"/><path class="cls-1" d="M44.51,21.83C28.38,21.83,24.39,3.06,24.07,1.4V1.18c0,.05,0,.1,0,.15v.08C22.36,21.05,3.61,21,3.61,21c16.12,0,20.12,18.78,20.44,20.43v.23s0-.1,0-.15v-.09C25.75,21.77,44.51,21.83,44.51,21.83Z"/><path class="cls-1" d="M97.44,10.33C89.37,10.33,87.38.94,87.22.11V0s0,.05,0,.08v0C86.37,9.94,77,9.91,77,9.91c8.06,0,10.06,9.39,10.22,10.21v0C88.06,10.3,97.44,10.33,97.44,10.33Z"/></g></svg>