<svg xmlns="http://www.w3.org/2000/svg" xmlns:xlink="http://www.w3.org/1999/xlink" viewBox="0 0 300.68 300.65"><defs><style>.cls-1,.cls-14,.cls-15,.cls-16,.cls-5{fill:none;}.cls-2{fill:#00d782;}.cls-3{clip-path:url(#clip-path);}.cls-13,.cls-17,.cls-4,.cls-7{fill:#fff;}.cls-5{stroke:#1a1a1a;stroke-width:0.82px;}.cls-11,.cls-13,.cls-14,.cls-15,.cls-16,.cls-5,.cls-6,.cls-8{stroke-miterlimit:10;}.cls-11,.cls-6{stroke:#fff;}.cls-6{stroke-width:0.22px;}.cls-7{font-size:2.52px;font-family:Volte-Bold, Volte;font-weight:700;}.cls-13,.cls-14,.cls-15,.cls-16,.cls-17,.cls-8,.cls-9{stroke:#000;}.cls-15,.cls-8,.cls-9{stroke-width:0.73px;}.cls-17,.cls-9{stroke-linecap:round;stroke-linejoin:round;}.cls-10{fill:#3f46f5;}.cls-11,.cls-13{stroke-width:1.16px;}.cls-12{fill:#60d389;}.cls-14{stroke-width:0.73px;}.cls-16{stroke-width:0.73px;}.cls-17{stroke-width:0.77px;}.cls-18{fill:red;}</style><clipPath id="clip-path"><rect class="cls-1" x="0.07" y="5.63" width="300.61" height="60.49"/></clipPath></defs><title>LINE Flea Market_Interactive Mirror Mock </title><g id="Layer_1" data-name="Layer 1"><path class="cls-2" d="M300.68,300.65H0V0H300.68ZM6.48,294.2H294.24V6.44H6.48Z"/><rect class="cls-2" width="300.68" height="66.19"/><g class="cls-3"><polygon class="cls-4" points="262.42 52.11 262.62 52.11 262.8 51.62 262.52 51.62 262.42 52.11"/><path class="cls-4" d="M249.55,51.88H250v1.27h.29V51.88h.48v-.26h-1.26Z"/><path class="cls-4" d="M251.57,52.05a.41.41,0,0,0-.34.17v-.6H251v1.53h.26V52.6a.28.28,0,0,1,.27-.3c.14,0,.24.08.24.28v.57H252v-.57C252,52.26,251.88,52.05,251.57,52.05Z"/><path class="cls-4" d="M253.08,52.22a.39.39,0,0,0-.34-.18.53.53,0,0,0-.56.57.52.52,0,0,0,.55.57.4.4,0,0,0,.35-.19l0,.16h.25V52.07h-.26Zm-.32.72a.32.32,0,0,1-.32-.33.31.31,0,0,1,.32-.33A.33.33,0,0,1,252.76,52.94Z"/><path class="cls-4" d="M254.18,52.05a.52.52,0,0,0-.36.16l0-.14h-.23v1.08h.26V52.6a.28.28,0,0,1,.28-.3.25.25,0,0,1,.26.28v.57h.26v-.57A.47.47,0,0,0,254.18,52.05Z"/><polygon class="cls-4" points="255.87 53.15 255.87 53.13 255.37 52.58 255.81 52.09 255.81 52.07 255.49 52.07 255.12 52.5 255.12 51.62 254.86 51.62 254.86 53.15 255.12 53.15 255.12 52.66 255.54 53.15 255.87 53.15"/><path class="cls-4" d="M257.81,52.26h-.66v.26h.39v.27a.48.48,0,0,1-.34.12.49.49,0,0,1-.53-.51.52.52,0,0,1,.53-.56.6.6,0,0,1,.39.15l.18-.18a.81.81,0,0,0-.57-.24.78.78,0,0,0-.81.83.73.73,0,0,0,.81.78.76.76,0,0,0,.61-.27Z"/><path class="cls-4" d="M259.1,52.61a.57.57,0,1,0-.56.56A.54.54,0,0,0,259.1,52.61Zm-.56.32a.32.32,0,0,1,0-.64.3.3,0,0,1,.29.32A.3.3,0,0,1,258.54,52.93Z"/><path class="cls-4" d="M259.78,52a.52.52,0,0,0-.55.57.53.53,0,0,0,.56.56.37.37,0,0,0,.34-.17l0,.15h.25V51.62h-.27v.6A.42.42,0,0,0,259.78,52Zm0,.88a.32.32,0,0,1,0-.63.32.32,0,0,1,.32.32A.31.31,0,0,1,259.8,52.92Z"/><rect class="cls-4" x="261.1" y="51.62" width="0.29" height="1.53"/><path class="cls-4" d="M262.35,53.12l-.07-.23a.31.31,0,0,1-.13,0,.13.13,0,0,1-.14-.15V52.3h.3v-.23H262v-.31l-.27,0v.28h-.2v.23h.2v.47a.35.35,0,0,0,.39.39A.57.57,0,0,0,262.35,53.12Z"/><path class="cls-4" d="M263.39,52.48c-.14,0-.2,0-.2-.11s.07-.11.2-.11a.32.32,0,0,1,.26.1l.15-.18a.57.57,0,0,0-.42-.14c-.2,0-.45.09-.45.34s.24.32.44.33.22,0,.22.11-.1.14-.2.13a.56.56,0,0,1-.37-.15l-.13.19a.63.63,0,0,0,.5.2c.31,0,.46-.17.46-.36S263.59,52.5,263.39,52.48Z"/><polygon class="cls-4" points="264.48 53.15 264.77 53.15 264.77 52.58 265.54 52.58 265.54 52.31 264.77 52.31 264.77 51.9 265.58 51.9 265.58 51.62 264.48 51.62 264.48 53.15"/><rect class="cls-4" x="265.76" y="51.62" width="0.26" height="1.53"/><path class="cls-4" d="M266.79,52a.54.54,0,0,0-.58.56.55.55,0,0,0,.6.58.65.65,0,0,0,.46-.18l-.17-.17a.41.41,0,0,1-.29.1c-.19,0-.3-.09-.32-.23h.84C267.37,52.26,267.15,52,266.79,52Zm-.3.44a.3.3,0,0,1,.31-.21.25.25,0,0,1,.28.21Z"/><path class="cls-4" d="M268.39,52.07v.15A.38.38,0,0,0,268,52a.53.53,0,0,0-.56.57.52.52,0,0,0,.55.57.4.4,0,0,0,.35-.19l0,.16h.25V52.07Zm-.32.87a.32.32,0,0,1-.33-.33.31.31,0,0,1,.33-.33A.33.33,0,0,1,268.07,52.94Z"/><path class="cls-4" d="M256.63,54.31a.39.39,0,0,0-.35.2.34.34,0,0,0-.33-.2.31.31,0,0,0-.28.15l0-.13h-.25v1.08h.27v-.58a.25.25,0,0,1,.23-.27c.15,0,.22.13.22.27v.58h.27v-.58a.25.25,0,0,1,.23-.27c.15,0,.2.12.2.27v.58h.27v-.58C257.09,54.5,256.94,54.31,256.63,54.31Z"/><path class="cls-4" d="M258.21,54.48a.39.39,0,0,0-.34-.18.54.54,0,0,0-.57.57.52.52,0,0,0,.56.57.4.4,0,0,0,.35-.19v.16h.25V54.33h-.25Zm-.32.72a.31.31,0,0,1-.32-.33.31.31,0,0,1,.32-.33A.33.33,0,0,1,257.89,55.2Z"/><path class="cls-4" d="M259,54.46l0-.13h-.25v1.08H259v-.57a.25.25,0,0,1,.27-.27.26.26,0,0,1,.19.07l.12-.24a.47.47,0,0,0-.28-.1A.3.3,0,0,0,259,54.46Z"/><polygon class="cls-4" points="260.59 54.35 260.59 54.33 260.27 54.33 259.91 54.76 259.91 53.88 259.64 53.88 259.64 55.41 259.91 55.41 259.91 54.92 260.33 55.41 260.65 55.41 260.65 55.39 260.15 54.84 260.59 54.35"/><path class="cls-4" d="M261.3,54.3a.53.53,0,0,0-.57.56.54.54,0,0,0,.59.58.65.65,0,0,0,.46-.18l-.17-.17a.41.41,0,0,1-.29.1c-.19,0-.3-.09-.32-.23h.84C261.89,54.52,261.66,54.3,261.3,54.3Zm-.29.44a.28.28,0,0,1,.3-.21.25.25,0,0,1,.28.21Z"/><path class="cls-4" d="M262.52,55.18c-.09,0-.14,0-.14-.15v-.47h.3v-.23h-.3V54l-.27,0v.27h-.2v.23h.2V55a.35.35,0,0,0,.39.39.57.57,0,0,0,.22,0l-.07-.23A.31.31,0,0,1,262.52,55.18Z"/><polygon class="cls-4" points="260.94 44.56 262.74 41.74 255.46 41.74 257.35 44.56 260.94 44.56"/><polygon class="cls-4" points="261.24 50.41 263.45 50.41 266.66 46.24 262.95 41.74 259.23 47.38 261.24 50.41"/><path class="cls-4" d="M255.28,41.74l-3.71,4.5,3.2,4.17h6.28Zm3.84,8a.51.51,0,1,1,.5-.5A.51.51,0,0,1,259.12,49.73Z"/><rect class="cls-4" x="166.76" y="45.47" width="0.58" height="2.54" rx="0.1"/><path class="cls-4" d="M169.83,45.47h-.38a.1.1,0,0,0-.1.1V47l-1.07-1.44h-.47a.11.11,0,0,0-.1.1v2.34a.1.1,0,0,0,.1.1h.38a.09.09,0,0,0,.1-.1V46.52L169.37,48l0,0h.44a.09.09,0,0,0,.1-.1V45.57A.1.1,0,0,0,169.83,45.47Z"/><path class="cls-4" d="M166.33,47.43h-1V45.57a.1.1,0,0,0-.1-.1h-.38a.1.1,0,0,0-.1.1v2.34h0a.09.09,0,0,0,0,.07h0a.09.09,0,0,0,.07,0h1.5a.1.1,0,0,0,.11-.1v-.38A.11.11,0,0,0,166.33,47.43Z"/><path class="cls-4" d="M171.9,45.47h-1.5a.09.09,0,0,0-.07,0h0a.11.11,0,0,0,0,.07h0v2.34h0a.09.09,0,0,0,0,.07h0a.09.09,0,0,0,.07,0h1.5a.1.1,0,0,0,.11-.1v-.38a.11.11,0,0,0-.11-.1h-1V47h1a.1.1,0,0,0,.11-.1v-.38a.11.11,0,0,0-.11-.1h-1v-.4h1A.1.1,0,0,0,172,46v-.38A.11.11,0,0,0,171.9,45.47Z"/><path class="cls-4" d="M180.85,51.67h-.49a.09.09,0,0,1-.07,0l0,0-.15-.43h-1l-.16.43a.05.05,0,0,1,0,0,.06.06,0,0,1-.06,0h-.47s-.07,0,0-.08l.93-2.4a.13.13,0,0,1,.05-.06s.05,0,.1,0h.42a.16.16,0,0,1,.1,0l0,.06.93,2.4S180.91,51.67,180.85,51.67Zm-.93-1-.32-.87-.31.87h.63Z"/><path class="cls-4" d="M182.35,51.08a.08.08,0,0,1,.07,0,.08.08,0,0,1,.07,0l.17.24a.08.08,0,0,1,0,.08.16.16,0,0,1,0,.07,1.13,1.13,0,0,1-.29.15,1,1,0,0,1-.34.05,1,1,0,0,1-.38-.07,1.18,1.18,0,0,1-.32-.21,1.06,1.06,0,0,1-.21-.31.84.84,0,0,1-.08-.38,1,1,0,0,1,.07-.39,1.13,1.13,0,0,1,.21-.31,1,1,0,0,1,.32-.21.81.81,0,0,1,.38-.08,1,1,0,0,1,.36.06,1,1,0,0,1,.29.16.07.07,0,0,1,0,.06.1.1,0,0,1,0,.09l-.18.22a.08.08,0,0,1-.07,0l-.07,0-.14-.07-.17,0a.43.43,0,0,0-.33.13.49.49,0,0,0-.12.34.42.42,0,0,0,.45.45l.17,0A.6.6,0,0,0,182.35,51.08Z"/><path class="cls-4" d="M184.18,51.08a.08.08,0,0,1,.07,0,.08.08,0,0,1,.07,0l.17.24a.12.12,0,0,1,0,.08.16.16,0,0,1,0,.07,1.13,1.13,0,0,1-.29.15,1,1,0,0,1-.34.05,1,1,0,0,1-.39-.07,1.13,1.13,0,0,1-.31-.21,1.34,1.34,0,0,1-.22-.31,1,1,0,0,1-.08-.38,1,1,0,0,1,.08-.39,1,1,0,0,1,.21-.31,1.06,1.06,0,0,1,.31-.21.85.85,0,0,1,.39-.08,1,1,0,0,1,.36.06,1.18,1.18,0,0,1,.29.16.11.11,0,0,1,0,.06.1.1,0,0,1,0,.09l-.18.22a.08.08,0,0,1-.07,0l-.07,0-.15-.07-.16,0a.42.42,0,0,0-.33.13.49.49,0,0,0-.12.34.42.42,0,0,0,.45.45l.17,0Z"/><path class="cls-4" d="M185.66,49.73a1,1,0,0,1,.39.07,1.21,1.21,0,0,1,.32.22,1,1,0,0,1,.21.31,1,1,0,0,1,0,.78,1,1,0,0,1-.21.31,1,1,0,0,1-.32.21.85.85,0,0,1-.39.08.84.84,0,0,1-.38-.08,1,1,0,0,1-.32-.21,1,1,0,0,1-.21-.31,1,1,0,0,1,0-.78A1,1,0,0,1,185,50a1.21,1.21,0,0,1,.32-.22A1,1,0,0,1,185.66,49.73Zm0,1.45a.47.47,0,0,0,.17,0,.42.42,0,0,0,.14-.09.71.71,0,0,0,.08-.15.34.34,0,0,0,0-.18.37.37,0,0,0,0-.18.53.53,0,0,0-.08-.15.42.42,0,0,0-.14-.09.47.47,0,0,0-.17,0,.42.42,0,0,0-.16,0,.3.3,0,0,0-.13.09.38.38,0,0,0-.09.15.52.52,0,0,0,0,.18.48.48,0,0,0,0,.18.46.46,0,0,0,.09.15.3.3,0,0,0,.13.09A.42.42,0,0,0,185.66,51.18Z"/><path class="cls-4" d="M188.76,50.81a1,1,0,0,1-.07.36.75.75,0,0,1-.18.28.88.88,0,0,1-.28.17,1.1,1.1,0,0,1-.37.06,1.12,1.12,0,0,1-.38-.06.88.88,0,0,1-.28-.17.75.75,0,0,1-.18-.28,1,1,0,0,1-.07-.36v-.94a.1.1,0,0,1,.11-.11h.36a.11.11,0,0,1,.07,0,.11.11,0,0,1,0,.08v.89a.39.39,0,0,0,.09.28.33.33,0,0,0,.25.11.3.3,0,0,0,.24-.11.39.39,0,0,0,.09-.28v-.89a.11.11,0,0,1,0-.08.11.11,0,0,1,.07,0h.36a.1.1,0,0,1,.11.11Z"/><path class="cls-4" d="M190.89,51.64a.09.09,0,0,1-.07,0h-.37a.09.09,0,0,1-.07,0,.11.11,0,0,1,0-.07v-1a.32.32,0,0,0-.09-.24.28.28,0,0,0-.23-.1l-.08,0-.1,0-.08.09a.21.21,0,0,0,0,.12v1a.11.11,0,0,1,0,.07.11.11,0,0,1-.08,0h-.38a.11.11,0,0,1-.08,0,.11.11,0,0,1,0-.07v-1.7a.11.11,0,0,1,0-.07.11.11,0,0,1,.08,0h.38a.11.11,0,0,1,.08,0,.11.11,0,0,1,0,.07v.21a.5.5,0,0,1,.2-.25.59.59,0,0,1,.31-.09.61.61,0,0,1,.49.21.87.87,0,0,1,.18.58v1A.11.11,0,0,1,190.89,51.64Z"/><path class="cls-4" d="M192.72,51.47l0,.05a.9.9,0,0,1-.24.12.62.62,0,0,1-.27,0,.6.6,0,0,1-.49-.2.85.85,0,0,1-.17-.56v-.67h-.26a.08.08,0,0,1-.07,0,.09.09,0,0,1,0-.07v-.28a.11.11,0,0,1,0-.07.09.09,0,0,1,.07,0h.26v-.38a.09.09,0,0,1,0-.07.11.11,0,0,1,.07,0H192a.11.11,0,0,1,.08,0,.09.09,0,0,1,0,.07v.38h.38a.09.09,0,0,1,.07,0,.11.11,0,0,1,0,.07v.28a.09.09,0,0,1,0,.07.08.08,0,0,1-.07,0h-.38v.65c0,.17.07.26.2.26h.08l.07,0h.06a.07.07,0,0,1,.05,0l.16.26A.15.15,0,0,1,192.72,51.47Z"/><path class="cls-4" d="M167.06,50.39a1.16,1.16,0,0,1-.1.49,1.3,1.3,0,0,1-.28.41,1.41,1.41,0,0,1-.4.27,1.21,1.21,0,0,1-.5.1,1.16,1.16,0,0,1-.49-.1,1.2,1.2,0,0,1-.41-.28,1.26,1.26,0,0,1-.28-.4,1.39,1.39,0,0,1-.1-.5,1.34,1.34,0,0,1,.1-.49,1.3,1.3,0,0,1,.28-.41,1.33,1.33,0,0,1,.41-.27,1.16,1.16,0,0,1,.49-.1,1.21,1.21,0,0,1,.5.1,1.41,1.41,0,0,1,.4.27,1.3,1.3,0,0,1,.28.41A1.21,1.21,0,0,1,167.06,50.39Zm-.61,0a.83.83,0,0,0-.2-.51.8.8,0,0,0-.21-.15.59.59,0,0,0-.52,0,.51.51,0,0,0-.21.15.75.75,0,0,0-.19.5.64.64,0,0,0,0,.28.68.68,0,0,0,.14.23.8.8,0,0,0,.21.15.59.59,0,0,0,.52,0,.8.8,0,0,0,.21-.15.68.68,0,0,0,.14-.23A.6.6,0,0,0,166.45,50.39Z"/><path class="cls-4" d="M168.89,49a.07.07,0,0,1,0,.06.08.08,0,0,1,0,.08l-.15.23s0,.05-.06.05h-.07l-.16,0a.26.26,0,0,0-.21.09.37.37,0,0,0-.07.25h.38a.1.1,0,0,1,.1.1v.29a.11.11,0,0,1,0,.08.09.09,0,0,1-.07,0h-.38v1.29a.1.1,0,0,1-.11.11h-.34a.1.1,0,0,1-.11-.11V50.26h-.22a.09.09,0,0,1-.07,0,.11.11,0,0,1,0-.08v-.29a.1.1,0,0,1,.1-.1h.22a1,1,0,0,1,.21-.63.72.72,0,0,1,.56-.22,1.12,1.12,0,0,1,.27,0A1,1,0,0,1,168.89,49Z"/><path class="cls-4" d="M170.49,49a.07.07,0,0,1,0,.06.11.11,0,0,1,0,.08l-.15.23s0,.05-.06.05h-.07l-.16,0a.26.26,0,0,0-.21.09.37.37,0,0,0-.08.25h.39a.1.1,0,0,1,.1.1v.29a.11.11,0,0,1,0,.08.09.09,0,0,1-.07,0h-.39v1.29a.19.19,0,0,1,0,.08.11.11,0,0,1-.08,0h-.34a.1.1,0,0,1-.11-.11V50.26H169a.09.09,0,0,1-.07,0,.11.11,0,0,1,0-.08v-.29a.1.1,0,0,1,.1-.1h.22a1,1,0,0,1,.21-.63.7.7,0,0,1,.56-.22,1.12,1.12,0,0,1,.27,0A1,1,0,0,1,170.49,49Z"/><path class="cls-4" d="M171,48.9a.36.36,0,0,1,.24.09.37.37,0,0,1,.1.24.34.34,0,0,1-.34.33.29.29,0,0,1-.23-.1.33.33,0,0,1-.1-.23.37.37,0,0,1,.1-.24A.32.32,0,0,1,171,48.9Zm.29,2.65a.1.1,0,0,1-.11.11h-.36a.1.1,0,0,1-.11-.11V49.86a.09.09,0,0,1,0-.07.11.11,0,0,1,.08,0h.36a.11.11,0,0,1,.08,0,.09.09,0,0,1,0,.07Z"/><path class="cls-4" d="M172.94,51.08a.09.09,0,0,1,.07,0,.09.09,0,0,1,.08,0l.16.24a.09.09,0,0,1,0,.08.12.12,0,0,1-.05.07,1.06,1.06,0,0,1-.28.15,1,1,0,0,1-.34.05,1,1,0,0,1-.39-.07,1.36,1.36,0,0,1-.32-.21,1.06,1.06,0,0,1-.21-.31,1,1,0,0,1-.08-.38,1,1,0,0,1,.08-.39,1,1,0,0,1,.52-.52.84.84,0,0,1,.38-.08,1,1,0,0,1,.36.06.9.9,0,0,1,.29.16s0,0,0,.06a.1.1,0,0,1,0,.09l-.18.22a.09.09,0,0,1-.07,0l-.08,0a.61.61,0,0,0-.14-.07l-.16,0a.42.42,0,0,0-.33.13.45.45,0,0,0-.13.34.43.43,0,0,0,.46.45l.17,0A.55.55,0,0,0,172.94,51.08Z"/><path class="cls-4" d="M173.87,48.9a.31.31,0,0,1,.33.33.32.32,0,0,1-.09.23.33.33,0,0,1-.24.1.29.29,0,0,1-.23-.1.33.33,0,0,1-.1-.23.37.37,0,0,1,.1-.24A.32.32,0,0,1,173.87,48.9Zm.29,2.65a.1.1,0,0,1-.11.11h-.36a.1.1,0,0,1-.11-.11V49.86a.09.09,0,0,1,0-.07.11.11,0,0,1,.08,0h.36a.11.11,0,0,1,.08,0,.09.09,0,0,1,0,.07Z"/><path class="cls-4" d="M176.47,51.55a.09.09,0,0,1,0,.07.08.08,0,0,1-.07,0H176a.12.12,0,0,1-.11-.11v-.14a.73.73,0,0,1-.2.19.51.51,0,0,1-.28.08.7.7,0,0,1-.31-.07.73.73,0,0,1-.28-.19.91.91,0,0,1-.19-.3,1.07,1.07,0,0,1-.08-.41,1,1,0,0,1,.07-.4,1.08,1.08,0,0,1,.19-.31.9.9,0,0,1,.27-.2.72.72,0,0,1,.33-.07.51.51,0,0,1,.28.08.91.91,0,0,1,.2.19v-.14a.1.1,0,0,1,.11-.11h.39a.09.09,0,0,1,.07,0,.11.11,0,0,1,0,.08Zm-1-.43a.34.34,0,0,0,.27-.12.43.43,0,0,0,.1-.29.44.44,0,0,0-.1-.3.39.39,0,0,0-.54,0,.49.49,0,0,0-.1.3.48.48,0,0,0,.1.29A.34.34,0,0,0,175.5,51.12Z"/><path class="cls-4" d="M176.85,49a.09.09,0,0,1,0-.07.11.11,0,0,1,.08,0h.39a.11.11,0,0,1,.07,0,.09.09,0,0,1,0,.07v2.55a.09.09,0,0,1,0,.07.09.09,0,0,1-.07,0H177a.12.12,0,0,1-.11-.11Z"/><path class="cls-4" d="M162.39,45.33a8,8,0,0,0-2.34-.46c-.21,0-.42,0-.63,0s-.42,0-.62,0a8,8,0,0,0-2.35.46.37.37,0,0,0-.24.34V49.2c0,1.8,2.47,2.87,3.08,3.11a.32.32,0,0,0,.27,0c.6-.24,3.07-1.31,3.07-3.11V45.67A.35.35,0,0,0,162.39,45.33Zm-1.93,4.26a.13.13,0,0,1-.13.13h-1.82a.12.12,0,0,1-.08,0h0a.12.12,0,0,1,0-.09h0V46.77a.12.12,0,0,1,.12-.13H159a.12.12,0,0,1,.12.13V49h1.24a.13.13,0,0,1,.13.13Z"/><path class="cls-4" d="M240.71,21.4h-7.35a.45.45,0,0,0-.45.44v1.65a.44.44,0,0,0,.45.44h2.4V32a.44.44,0,0,0,.45.44h1.64a.44.44,0,0,0,.45-.44v-8h2.41a.44.44,0,0,0,.44-.44V21.84A.44.44,0,0,0,240.71,21.4Z"/><path class="cls-4" d="M212.7,31.76l-2-3.49A3.67,3.67,0,0,0,212.52,25a3.71,3.71,0,0,0-3.73-3.6H205a.44.44,0,0,0-.44.44V32a.44.44,0,0,0,.44.44h1.65a.44.44,0,0,0,.44-.44V28.75h1.08l2,3.45a.44.44,0,0,0,.39.22h1.76A.44.44,0,0,0,212.7,31.76Zm-5.63-7.83h1.71a1.15,1.15,0,0,1,.87.35,1.1,1.1,0,0,1,0,1.59,1.15,1.15,0,0,1-.87.35h-1.71Z"/><path class="cls-4" d="M231.49,23.49V21.84a.44.44,0,0,0-.44-.44h-6.53a.44.44,0,0,0-.44.44V32a.44.44,0,0,0,.44.44h6.53a.44.44,0,0,0,.44-.44V30.33a.44.44,0,0,0-.44-.44h-4.44V28.18h3.87a.44.44,0,0,0,.44-.44V26.09a.44.44,0,0,0-.44-.44h-3.87V23.93h4.44A.44.44,0,0,0,231.49,23.49Z"/><path class="cls-4" d="M220.53,32.42h1.83a.44.44,0,0,0,.37-.69l-3.37-4.86,3.09-4.79a.44.44,0,0,0-.37-.68h-1.86a.48.48,0,0,0-.38.2l-2.6,4h-.37V21.84a.44.44,0,0,0-.44-.44h-1.65a.44.44,0,0,0-.44.44V32a.44.44,0,0,0,.44.44h1.65a.44.44,0,0,0,.44-.44v-3.8h.49l2.8,4A.44.44,0,0,0,220.53,32.42Z"/><path class="cls-4" d="M201.08,32.41h1.6a.44.44,0,0,0,.41-.59l-3.61-10.14a.44.44,0,0,0-.41-.29h-1.91a.45.45,0,0,0-.42.29l-3.61,10.14a.44.44,0,0,0,.42.59h1.59a.46.46,0,0,0,.42-.29l.57-1.61h4l.58,1.61A.44.44,0,0,0,201.08,32.41ZM197,28l1.08-3,1.08,3Z"/><path class="cls-4" d="M188.89,21.62l-2.72,4.55-2.72-4.55a.44.44,0,0,0-.38-.22h-2a.44.44,0,0,0-.44.44V32a.43.43,0,0,0,.44.44h1.65a.44.44,0,0,0,.44-.44V25.64l2.41,4a.43.43,0,0,0,.38.22h.38a.44.44,0,0,0,.38-.22l2.41-4V32a.43.43,0,0,0,.44.44h1.65a.44.44,0,0,0,.44-.44V21.84a.44.44,0,0,0-.44-.44h-2A.43.43,0,0,0,188.89,21.62Z"/><path class="cls-4" d="M280,21.4h-7.34a.45.45,0,0,0-.45.44v1.65a.44.44,0,0,0,.45.44h2.4V32a.44.44,0,0,0,.45.44h1.64a.44.44,0,0,0,.45-.44v-8H280a.44.44,0,0,0,.45-.44V21.84A.45.45,0,0,0,280,21.4Z"/><path class="cls-4" d="M262.09,23.49V21.84a.45.45,0,0,0-.45-.44h-6.52a.44.44,0,0,0-.44.44V32a.43.43,0,0,0,.44.44h6.52a.44.44,0,0,0,.45-.44V30.33a.45.45,0,0,0-.45-.44h-4.43V28.18h3.86a.45.45,0,0,0,.45-.44V26.09a.44.44,0,0,0-.45-.44h-3.86V23.93h4.43A.44.44,0,0,0,262.09,23.49Z"/><path class="cls-4" d="M252.65,23.93a.44.44,0,0,0,.45-.44V21.84a.45.45,0,0,0-.45-.44h-6.33a.44.44,0,0,0-.44.44V32a.43.43,0,0,0,.44.44H248a.38.38,0,0,0,.38-.38V28.18h3.93a.44.44,0,0,0,.44-.44V26.09a.44.44,0,0,0-.44-.44h-3.93V23.93Z"/><path class="cls-4" d="M267.33,21.4a3.78,3.78,0,0,0-2.56.89,3.08,3.08,0,0,0-1,2.37v0c0,2.21,1.46,2.78,3.37,3.3,1.7.46,1.86.87,1.86,1.28v0c0,.59-.52.94-1.39.94A6.06,6.06,0,0,1,264.33,29a.42.42,0,0,0-.67.35v1.5a.42.42,0,0,0,.19.35,7.09,7.09,0,0,0,3.83,1.22,4.14,4.14,0,0,0,2.69-.92,3,3,0,0,0,.93-2.42v0c0-1.95-1.17-2.71-3.11-3.24-1.76-.48-2.12-.7-2.12-1.34v0c0-.52.49-.83,1.23-.83a4.68,4.68,0,0,1,2.58.81.42.42,0,0,0,.66-.35V22.61a.44.44,0,0,0-.21-.37A6,6,0,0,0,267.33,21.4Z"/><rect class="cls-4" x="153.19" y="21.4" width="2.53" height="11.02" rx="0.45"/><path class="cls-4" d="M166.48,21.4h-1.63a.45.45,0,0,0-.45.45v6l-4.64-6.26,0,0h0l0,0h0l0,0h0l0,0h-1.87a.45.45,0,0,0-.45.45V32a.45.45,0,0,0,.45.45h1.63a.45.45,0,0,0,.45-.45V26l4.64,6.27a.6.6,0,0,0,.12.11h1.88a.46.46,0,0,0,.46-.45V21.85A.46.46,0,0,0,166.48,21.4Z"/><path class="cls-4" d="M151.34,29.89h-4.42v-8a.46.46,0,0,0-.46-.45h-1.62a.46.46,0,0,0-.46.45V32h0a.44.44,0,0,0,.13.31h0a.44.44,0,0,0,.32.12h6.5a.46.46,0,0,0,.46-.45V30.34A.46.46,0,0,0,151.34,29.89Z"/><path class="cls-4" d="M175.48,23.93a.45.45,0,0,0,.45-.45V21.85a.45.45,0,0,0-.45-.45H169a.44.44,0,0,0-.31.13h0a.44.44,0,0,0-.13.31h0V32h0a.44.44,0,0,0,.13.31h0a.43.43,0,0,0,.31.12h6.51a.45.45,0,0,0,.45-.45V30.34a.45.45,0,0,0-.45-.45h-4.43V28.18h4.43a.45.45,0,0,0,.45-.45V26.1a.45.45,0,0,0-.45-.45h-4.43V23.93Z"/><path class="cls-4" d="M239.47,48.57a3.33,3.33,0,0,0-3.34-3.34H205.89a3.39,3.39,0,0,0-3.42,3.22,3.34,3.34,0,0,0,3.34,3.46h30.32A3.33,3.33,0,0,0,239.47,48.57ZM205.81,51.4A2.84,2.84,0,0,1,203,48.47a2.88,2.88,0,0,1,2.9-2.73h15.63a2.83,2.83,0,1,0,0,5.66Zm17.92-1.61a.09.09,0,0,1-.09.09H222a.09.09,0,0,1-.09-.09V47.3a.09.09,0,0,1,.09-.09h.4a.09.09,0,0,1,.09.09v2h1.11a.09.09,0,0,1,.09.09Zm1,0a.09.09,0,0,1-.09.09h-.4a.09.09,0,0,1-.09-.09V47.3a.09.09,0,0,1,.09-.09h.4a.09.09,0,0,1,.09.09Zm2.77,0a.09.09,0,0,1-.09.09h-.44s0,0,0,0l-1.19-1.62v1.57a.09.09,0,0,1-.09.09h-.4a.09.09,0,0,1-.09-.09V47.3a.09.09,0,0,1,.09-.09h.41l0,0h0l1.19,1.6V47.3a.09.09,0,0,1,.09-.09h.4a.09.09,0,0,1,.09.09Zm2.23-2.09a.11.11,0,0,1-.1.1h-1.1v.45h1.1a.1.1,0,0,1,.1.1v.4a.1.1,0,0,1-.1.09h-1.1v.46h1.1a.1.1,0,0,1,.1.09v.4a.1.1,0,0,1-.1.09H228l-.06,0h0a.09.09,0,0,1,0-.06V47.3a.11.11,0,0,1,.09-.09h1.6a.1.1,0,0,1,.1.09Zm2,1.53h-.37v.56a.09.09,0,0,1-.09.09h-.4a.09.09,0,0,1-.09-.09V47.3h0a.09.09,0,0,1,.09-.09h.86a1,1,0,0,1,0,2Zm2.91.54a.11.11,0,0,1-.11.11h-1a.68.68,0,0,1-.68-.73.69.69,0,0,1,.71-.64h.56a.28.28,0,0,0-.09-.21c-.1-.07-.31-.12-.79,0a.11.11,0,0,1-.13-.08l-.07-.27a.1.1,0,0,1,.08-.13,1.46,1.46,0,0,1,1.21.11.8.8,0,0,1,.29.67Zm1,.66h-.44a.07.07,0,0,1-.07-.1l.33-.77-.68-1.68a.09.09,0,0,1,.09-.12h.41a.1.1,0,0,1,.1.07l.39,1,.41-1a.11.11,0,0,1,.1-.06h.44a.06.06,0,0,1,.06.09l-1.05,2.52A.1.1,0,0,1,235.6,50.43Z"/><path class="cls-4" d="M231.65,47.8h-.37v.84h.37a.42.42,0,0,0,.43-.42A.42.42,0,0,0,231.65,47.8Z"/><path class="cls-4" d="M233.28,49.23a.2.2,0,0,0,.2.16h.59V49h-.6A.2.2,0,0,0,233.28,49.23Z"/><path class="cls-4" d="M208.13,49.4a.54.54,0,0,1-.54-.54.54.54,0,0,1,.54-.54.55.55,0,0,1,.54.54.54.54,0,0,1-.54.54m0-1.66A1.13,1.13,0,0,0,207,48.87,1.09,1.09,0,0,0,208.05,50a.74.74,0,0,0,.49-.16l.14-.1v.2h.58v-1a1.11,1.11,0,0,0-1.12-1.18"/><path class="cls-4" d="M210.69,49.4a.54.54,0,0,1-.54-.54.54.54,0,0,1,1.08,0,.54.54,0,0,1-.54.54m.08-1.66a.88.88,0,0,0-.49.15l-.14.09V46.86h-.59V48.8a1.14,1.14,0,1,0,2.28.05,1.1,1.1,0,0,0-1.06-1.11"/><path class="cls-4" d="M213.21,49.4a.54.54,0,0,1-.54-.54.54.54,0,1,1,1.08,0,.54.54,0,0,1-.54.54m.08-1.66a.88.88,0,0,0-.49.15l-.15.09V46.86h-.58V48.8a1.14,1.14,0,1,0,2.28.05,1.1,1.1,0,0,0-1.06-1.11"/><rect class="cls-4" x="214.63" y="47.8" width="0.6" height="2.13"/><path class="cls-4" d="M216.74,48.32v-.51h-.58v-1h-.58V49.1a.73.73,0,0,0,.26.68,1,1,0,0,0,.66.15h.24v-.51h-.18c-.31,0-.4-.08-.4-.38v-.72Z"/><path class="cls-4" d="M206.83,47.74a1.12,1.12,0,0,0-1.13,1.18v1h.59V49c0-.42.2-.67.55-.67h0v-.58h0"/><path class="cls-5" d="M22.63,38s-.07-9,4.86-9.58c0,0,4.73-1,6.1,9.58"/><path d="M17,71.06,13,70.42,15,37l2.34.6.76-1.17L42.59,37,44.16,71.1Z"/><path class="cls-4" d="M18.17,36.55l24.32.57L44,71,17,71l-3.84-.62,2-33.18,2.14.55.15,0,.09-.13.68-1.06m-.12-.23-.75,1.17-2.4-.62-2,33.65,4,.65,27.32,0L42.7,36.91l-24.65-.59Z"/><path class="cls-5" d="M24.83,38s-.07-9,4.86-9.58c0,0,4.73-1,6.1,9.58"/><line class="cls-6" x1="18.05" y1="36.32" x2="16.96" y2="71.17"/><text class="cls-7" transform="translate(20.17 53.94)">LINE MARKET FEST</text><path class="cls-5" d="M108.42,38s-.07-9,4.86-9.58c0,0,4.72-1,6.09,9.58"/><path d="M102.74,71.06l-3.92-.64,2-33.41,2.35.6.76-1.17,24.48.57,1.56,34.09Z"/><path class="cls-4" d="M104,36.55l24.31.57L129.83,71l-27.05,0-3.84-.62,2-33.18,2.13.55.16,0,.08-.13.69-1.06m-.12-.23-.75,1.17-2.4-.62-2,33.65,4,.65,27.32,0-1.57-34.3-24.65-.59Z"/><path class="cls-5" d="M110.62,38s-.07-9,4.86-9.58c0,0,4.72-1,6.09,9.58"/><line class="cls-6" x1="103.84" y1="36.32" x2="102.74" y2="71.17"/><text class="cls-7" transform="translate(105.95 53.94)">LINE MARKET FEST</text><path class="cls-4" d="M80.52,27a3,3,0,0,1-.65-.08l1-3.77.58-1.64A2.23,2.23,0,0,1,83,22.1a1.69,1.69,0,0,1,.09,1.53l-.6,2.12A2.28,2.28,0,0,1,80.52,27Z"/><path d="M81.81,22.1a1.22,1.22,0,0,1,.74.35c.19.24.08.74,0,1l-.58,2a1.65,1.65,0,0,1-1.37.88l.79-3.06.42-1.21m-.61-1.22H81L80.27,23l-1.1,4.31a4,4,0,0,0,1.35.26,2.85,2.85,0,0,0,2.55-1.63l.6-2.12c.78-2.71-1.73-2.91-2.47-2.91Z"/><path class="cls-4" d="M66.47,25a2.25,2.25,0,0,1-2.23-1.89V21c0-1.18.45-1.7,1.46-1.7a3.32,3.32,0,0,1,.77.09l.11,1.79Z"/><path d="M65.7,19.89h.22L66,21.17l-.09,3.16a1.61,1.61,0,0,1-1.08-1.21V21c0-1,.37-1.12.88-1.12m0-1.17c-1,0-2,.41-2,2.29v2.2a2.88,2.88,0,0,0,3,2.41H67l.13-4.45L67,19a4.29,4.29,0,0,0-1.33-.23Z"/><rect class="cls-4" x="57.58" y="150.94" width="31.39" height="3.08"/><path d="M88.38,151.52v1.92H58.16v-1.92H88.38m1.17-1.16H57v4.24H89.55v-4.24Z"/><polygon class="cls-4" points="50.09 180.41 65.53 99.54 68.17 99.54 52.73 180.41 50.09 180.41"/><path d="M67.47,100.13l-15.22,79.7H50.79L66,100.13h1.45M68.88,99H65.05L49.38,181h3.83L68.88,99Z"/><polygon class="cls-4" points="78.3 99.49 80.58 99.29 96.03 180.17 93.75 180.37 78.3 99.49"/><path d="M80.11,99.91l15.23,79.73-1.12.1L79,100l1.12-.1m.94-1.25-3.44.3,15.67,82,3.44-.3-15.67-82Z"/><rect class="cls-4" x="56.58" y="91.41" width="34.84" height="8.74"/><path d="M90.83,92v7.58H57.16V92H90.83M92,90.83H56v9.9H92v-9.9Z"/><path class="cls-8" d="M70.21,136.68l1.39,2.2-6.92,12.06s-5.88,3.29-7.09-1.08l11.71-13.3Z"/><path class="cls-9" d="M79.18,131a43.35,43.35,0,0,0-.76,5.46c.06.09,1.09,8.21,7.58,8.43,0,0,3.81.25,3.09-6.09l-1.58-3.94-2.08,3.52Z"/><path class="cls-4" d="M46.85,115.71a9.24,9.24,0,0,1,0-10.76l0,0,0,0c3.7-7.07,13-24.88,14.43-27.45l17.74,1.67,7.6-.47,8.45,9.21a12.73,12.73,0,0,1,0,10l-8,24.6-6.91-4.68,2.31-16.92c.32-2.91.15-4.67-.51-5.41a1.07,1.07,0,0,0-.74-.38L73,91.55l-11,16c-3.28,3.45-2.58,5.89-2.55,6L65.32,127l-5.91,4.84Z"/><path d="M61.67,78,79,79.66h.18l7.24-.45,8.19,8.92a11.87,11.87,0,0,1,0,9.4l0,.09,0,.09-7.74,23.77-6-4,2.26-16.59c.45-4.08-.16-5.29-.66-5.85a1.63,1.63,0,0,0-1-.56L73.66,91.2l-.87-.37-.54.78L61.61,107.18c-3.43,3.67-2.77,6.28-2.68,6.57l0,.06,0,.07,5.63,12.9L59.5,131,47.34,115.39a8.72,8.72,0,0,1,0-10.07l.07-.09.06-.1C52.51,95.4,60,81.17,61.67,78M61,76.79c-.31.44-14.63,27.8-14.63,27.8a9.93,9.93,0,0,0,0,11.48l12.93,16.55,6.7-5.5-6-13.71s-.66-2.17,2.48-5.5L73.21,92.27l7.92,3.32h.05c.24,0,1.26.28.73,5.14L79.55,118l7.86,5.32,8.21-25.25a13.12,13.12,0,0,0,0-10.57L86.92,78l-7.79.49L61,76.79Z"/><path class="cls-4" d="M97.88,68.45c-.06,0-8.12,3.59-8.12,3.59l-1.64.61-8.5,7.54-3,.19L76,81.53l-2,.33-.63,1.08s.51.81.52.8.07,1,.07,1l0,1,.18.83.67.47,4.44-.28,2.34-2.27,1.18-1.79,9.67-5.13,3.89-2.38L98.08,73l.28-2.38Z"/><path class="cls-4" d="M63,135.22a22.21,22.21,0,0,0-2-3.56h0l-.08-.06h0l3.84-2.64,1.78,3.61Z"/><path d="M64.5,129.8l1.28,2.58-2.55,2c-.72-1.34-1.17-2.15-1.49-2.64l2.76-1.9m.45-1.73-5,3.47.7.57h0c.09,0,2.22,4,2.22,4l4.4-3.37L65,128.07Z"/><path class="cls-4" d="M80.72,124.07c.13-1.94.31-4.63.4-5.84l4.66,1L85.39,125l-1.88,1.08Z"/><path d="M81.65,118.94l3.52.77-.34,5-1.28.74-2.23-1.63c.1-1.58.24-3.57.33-4.84m-1.05-1.42c-.06.3-.48,6.83-.48,6.83l3.35,2.44L86,125.37l.45-6.58-5.8-1.27Z"/><path class="cls-4" d="M59.08,150.5a1.45,1.45,0,0,1-1.31-.54,3.76,3.76,0,0,1,.21-2.77c.14-.43.31-.85.48-1.26l4.78-9.11-1-1.89c1.18-.19,3-1,4.71-3.58l3.12,5.59s-4.13,7.26-5.27,9.29c-.18.32-.34.65-.5,1a6.52,6.52,0,0,1-1.17,1.87,5.82,5.82,0,0,1-4.06,1.42Z"/><path d="M66.93,132.45l2.5,4.48-1.49,2.63q-1.81,3.19-3.62,6.39c-.19.33-.36.68-.52,1a5.78,5.78,0,0,1-1,1.7,5.22,5.22,0,0,1-3.67,1.26c-.16,0-.67,0-.8-.25-.32-.56.08-1.78.25-2.3q.18-.54.45-1.17l4.63-8.84.28-.54-.27-.53-.5-1a7.55,7.55,0,0,0,3.81-2.87m.06-2.28c-2.09,4-4.69,4.24-5.44,4.24h-.21l1.24,2.42-4.65,8.88a12.18,12.18,0,0,0-.5,1.31c-.32,1-.7,2.28-.16,3.24a2,2,0,0,0,1.8.83h0a6.34,6.34,0,0,0,4.47-1.59,12.32,12.32,0,0,0,1.76-3l5.43-9.58L67,130.17Z"/><path class="cls-4" d="M87.12,142.42a3.4,3.4,0,0,1-1.28-.3,9.77,9.77,0,0,1-5.66-5.65l-.08-.27c-.95-3.26-.58-6.7-.21-10,.08-.74.16-1.48.22-2.21v-.14a7.71,7.71,0,0,0,4.39,1.42,7.46,7.46,0,0,0,1.49-.15l-.09,1.13c0,.22,0,.45-.07.69a5.79,5.79,0,0,0,.08,2.65L87,132.62c.11.32.23.64.34,1,.2.57.39,1.15.61,1.71l.13.31a11.76,11.76,0,0,1,.74,2.32c.28,1.61.1,3.55-.91,4.25A1.39,1.39,0,0,1,87.12,142.42Z"/><path d="M80.62,124.8a8.11,8.11,0,0,0,3.89,1,8.27,8.27,0,0,0,.86,0l0,.4c0,.21,0,.44-.07.67a6.18,6.18,0,0,0,.12,2.92l1.1,3.05c.12.32.23.65.34,1,.19.57.39,1.15.62,1.73l.13.32a11.93,11.93,0,0,1,.71,2.2c.24,1.42.09,3.14-.68,3.68a.85.85,0,0,1-.49.13,2.86,2.86,0,0,1-1-.26,9.15,9.15,0,0,1-5.32-5.29c0-.08,0-.17-.08-.25-.92-3.15-.57-6.39-.19-9.81l.15-1.43m-1-2.12-.11,1.22c-.37,4.15-1.18,8.37,0,12.47l.09.28a10.41,10.41,0,0,0,6,6,4,4,0,0,0,1.49.34,1.94,1.94,0,0,0,1.16-.34c1.39-1,1.41-3.35,1.16-4.83a14.65,14.65,0,0,0-.9-2.74c-.35-.88-.63-1.78-1-2.67l-1.11-3.06a7.9,7.9,0,0,1,0-3.1c.06-.65.11-1.3.16-2a6.78,6.78,0,0,1-2.14.35,7.31,7.31,0,0,1-4.87-2Z"/><path class="cls-10" d="M81.29,129.23a4.94,4.94,0,0,0,2.37.47,7.48,7.48,0,0,0,2.9-.36c.53-.19.3-1-.23-.84-1.2.43-3.44.67-4.6,0a.44.44,0,0,0-.44.75Z"/><path class="cls-10" d="M81.54,131.12a4.83,4.83,0,0,0,2.38.46,7.52,7.52,0,0,0,2.9-.35c.52-.19.29-1-.24-.84-1.2.42-3.44.67-4.6,0-.48-.3-.92.46-.44.75Z"/><path class="cls-10" d="M81.85,132.78a4.69,4.69,0,0,0,2.37.47,7.5,7.5,0,0,0,2.9-.36c.52-.18.3-1-.23-.84-1.2.43-3.44.68-4.6,0a.44.44,0,0,0-.44.75Z"/><path class="cls-10" d="M82,134.45a4.94,4.94,0,0,0,2.37.47,7.48,7.48,0,0,0,2.9-.36c.53-.19.3-1-.23-.84-1.2.43-3.44.67-4.6,0a.44.44,0,0,0-.44.75Z"/><path class="cls-10" d="M61,137.8a2.92,2.92,0,0,0,1.62.7,7.61,7.61,0,0,0,1.83-.25c.55-.11.32-.95-.23-.84a2.93,2.93,0,0,1-2.6-.22c-.44-.34-1.06.27-.62.61Z"/><path class="cls-10" d="M60,139.59a2.94,2.94,0,0,0,1.57.76,6.55,6.55,0,0,0,2-.17c.55-.07.56-.94,0-.87-1,.13-2,.48-2.92-.33-.41-.38-1,.23-.62.61Z"/><path class="cls-10" d="M59.12,141.19A3.58,3.58,0,0,0,63,142.3c.51-.22.06-1-.44-.75-.94.42-2.2-.3-2.81-1-.38-.42-1,.2-.62.62Z"/><path class="cls-10" d="M58,143.07a5,5,0,0,0,1.62,1.16,4.07,4.07,0,0,0,2-.07c.55-.12.32-1-.23-.84a3,3,0,0,1-1.59.05,4.24,4.24,0,0,1-1.2-.91c-.42-.37-1,.25-.62.61Z"/><path class="cls-4" d="M47.54,70.28c.06,0,8.23,3,8.23,3l1.66.59,8.81,6.68L69,81.4l.69,1.14,2,.29.64,1.07s-.49.82-.51.81l.51,1-.51,1.08-.16.83-.66.48-4.45-.21-2.38-2.23L63,83.87l-9.74-5-3.93-2.32-1.82-2.21-.55-2.24Z"/><path class="cls-4" d="M72.1,39.72A9.5,9.5,0,0,1,64.68,36c2.39-1.18,2.84-5.17,2.9-7.36a10.83,10.83,0,0,0,5.71,1.85,7.48,7.48,0,0,0,3.78-1,7.35,7.35,0,0,0,3.6,7C77.62,38.64,74.74,39.72,72.1,39.72Z"/><path d="M68.12,29.62a10.86,10.86,0,0,0,5.17,1.44,8.27,8.27,0,0,0,3.17-.62,7.77,7.77,0,0,0,3.18,6.06,14.07,14.07,0,0,1-7.54,2.63,8.78,8.78,0,0,1-6.54-3c1.81-1.36,2.4-4.2,2.56-6.51m-.83-1.83a.28.28,0,0,0-.28.29c0,1.66-.24,6.59-2.89,7.52a.3.3,0,0,0-.12.46,10.09,10.09,0,0,0,8.1,4.24c2.51,0,5.59-.92,9.27-3.57a.3.3,0,0,0,0-.5,6.8,6.8,0,0,1-3.62-7.29.29.29,0,0,0-.28-.34.27.27,0,0,0-.16.06,6.92,6.92,0,0,1-4,1.23,10.46,10.46,0,0,1-5.84-2,.27.27,0,0,0-.16-.06Z"/><path d="M64.75,35.31s5.5,8.66,16,.64c0,0,12.14,3,15,14,0,0,2.42,16.31,2.48,18.78l-9.55,4.11L79.49,80S65.84,80,65.78,80s-9.66-6.28-9.66-6.28L45.43,69.86s2.29-18.42,4-22C49.41,47.81,55.68,38.39,64.75,35.31Z"/><line class="cls-11" x1="57.55" y1="58.69" x2="57.76" y2="76.08"/><line class="cls-11" x1="88.13" y1="56.82" x2="88.34" y2="74.64"/><path class="cls-4" d="M73.12,31.29a7.78,7.78,0,0,1-6.3-4.17,9.12,9.12,0,0,1-.68-4c0-1.25,0-2.52-.11-3.74l0-.87V15.89l4.3-3c.85.07,4.07.29,6.3.29A9.14,9.14,0,0,0,78.77,13c.58.88,1.94,3.29,3.14,5.53,0,.14-.11.39-.14.51s-.07.23-.09.28l-.52,2.43c-.45,2.1-1,4.48-2.41,6.25a9.11,9.11,0,0,1-4.62,3.13,4.15,4.15,0,0,1-1,.12Z"/><path d="M70.46,13.51c1.07.08,4,.27,6.13.27a12.81,12.81,0,0,0,1.9-.09c.62,1,1.78,3.07,2.8,5l-.08.25c0,.15-.08.27-.1.34l-.52,2.43c-.44,2-.93,4.34-2.29,6A8.49,8.49,0,0,1,74,30.61a4,4,0,0,1-.87.1,7.29,7.29,0,0,1-5.78-3.85,8.51,8.51,0,0,1-.62-3.78c0-1.26,0-2.53-.11-3.75l0-.86V16.2l3.89-2.69m8.41-1.24s0,0,0,.05c0,.22-1,.3-2.26.3-2.58,0-6.46-.3-6.46-.3l-4.72,3.27V18.5c.07,1.53.16,3.05.15,4.57a9.56,9.56,0,0,0,.73,4.3,8.4,8.4,0,0,0,6.83,4.5,5,5,0,0,0,1.15-.13,9.67,9.67,0,0,0,4.93-3.33c1.5-1.83,2-4.22,2.53-6.49.17-.81.35-1.62.52-2.44,0-.17.32-.91.23-1.07,0,0-3.29-6.14-3.61-6.14Z"/><circle cx="70.82" cy="21.88" r="0.99"/><circle cx="76.69" cy="22.67" r="0.99"/><path d="M73.59,25.43a.55.55,0,0,1,0-.47c.29-.63-.65-1.19-.94-.55a1.71,1.71,0,0,0-.11,1.31c.21.66,1.27.37,1-.29Z"/><path d="M70.62,28a5.34,5.34,0,0,0,4.33.58l-.67-.67v0l.52-.4h0c-.69.07-.7,1.16,0,1.09h0a.59.59,0,0,0,.53-.4v0a.55.55,0,0,0-.67-.67,4.23,4.23,0,0,1-3.49-.47c-.57-.42-1.11.53-.55.94Z"/><path d="M76.61,20.08a.54.54,0,0,1,.66,0,.54.54,0,0,0,.55-.94,1.63,1.63,0,0,0-1.76.05c-.57.4,0,1.34.55.94Z"/><path d="M73.75,8.18h-.27a8.51,8.51,0,0,0-3.32.53c-2.27.79-4.75,2.77-4.75,5.32,0,0-.38,4.34.28,6.3a20.88,20.88,0,0,0,2.7.12c3.33,0,8.08-1.76,9-5,0,0,1.19,5,4.09,7.22h0c-.26-.05,1.07-1.35,1.11-1.43a11.44,11.44,0,0,0,1.11-3.65C84.35,12.07,78.77,8.18,73.75,8.18Z"/><rect class="cls-12" x="69.22" y="73.56" width="7.53" height="13.93"/><path class="cls-13" d="M66.85,87.58l3.76.24c.43,0,1.07.13,1,.68-.06.35-.33.49-.67.53a13.84,13.84,0,0,1-2.23,0,11.46,11.46,0,0,1-1.55-.15c-.2,0-.88-.09-1-.3L63,83.87c-.44-.36-12.26-6.22-12.26-6.22-5.19-3.34-3.38-7.21-3.38-7.37"/><path class="cls-4" d="M66.22,82.53c.16,0,2.66.15,2.66.15l2.24.18c.57,0,.81.38.81.46s.28.42,0,.73a1.62,1.62,0,0,0-.35.64l.24.59-.24.7v.27l.24.6-.17.83h-.38l-1.36.19-3.06-.21-1.12-1.49-.59-2.52Z"/><path class="cls-14" d="M66.61,85.94l4.5.18a1,1,0,0,1-.16,2l-4.3-.31"/><path class="cls-15" d="M66.61,84.23l4.44.19a.82.82,0,0,1,.53,1.48,1,1,0,0,1-.68.27l-4.4-.23"/><path class="cls-16" d="M66.65,82.6l4.47.18a.83.83,0,0,1,.54,1.49,1,1,0,0,1-.69.27l-4.26-.31"/><path class="cls-13" d="M78.67,86.53l-3.76.3c-.42,0-1.06.14-1,.7.08.35.34.48.69.52a13.72,13.72,0,0,0,2.22,0,11.5,11.5,0,0,0,1.55-.18c.2,0,.88-.1,1-.31l3.06-4.76c.44-.37,12.16-6.42,12.16-6.42,5.14-3.42,3.2-7.49,3.2-7.65"/><path class="cls-4" d="M79.22,81.39c-.15,0-2.66.19-2.66.19l-2.23.22c-.57.06-.81.39-.81.47s-.27.43,0,.73a1.44,1.44,0,0,1,.36.64l-.23.59.26.7v.27l-.23.6.18.83h.39l1.35.17,3.06-.26,1.17-1.33.48-2.71Z"/><path class="cls-14" d="M78.89,84.88l-4.5.25c-.79.05-1.34,1.27-.61,1.74a1,1,0,0,0,.69.26l4.3-.38"/><path class="cls-15" d="M78.86,83.18l-4.44.25a.83.83,0,0,0-.5,1.5,1,1,0,0,0,.68.26l4.4-.31"/><path class="cls-16" d="M78.8,81.55l-4.47.25a.83.83,0,0,0-.51,1.5,1,1,0,0,0,.68.25l4.26-.37"/><path class="cls-17" d="M52.87,14.34H41.15a3.6,3.6,0,0,0-3.6,3.59V28.36a3.6,3.6,0,0,0,3.6,3.6h6c.22,1.83,1.29,4.94,6.2,4.94A8.85,8.85,0,0,1,51.71,32h1.16a3.6,3.6,0,0,0,3.6-3.6V17.93A3.6,3.6,0,0,0,52.87,14.34Z"/><g id="YVJxO1"><path class="cls-18" d="M44.19,18.34a3.39,3.39,0,0,1,1.33.15A2.44,2.44,0,0,1,47,19.75a2.45,2.45,0,0,1,1.47-1.25,3.17,3.17,0,0,1,3.91,1.64,3.81,3.81,0,0,1-.06,3.1,8.12,8.12,0,0,1-2.58,3.27c-.86.7-1.79,1.3-2.69,1.94H47a20.2,20.2,0,0,1-3.14-2.32,8.26,8.26,0,0,1-2.19-3,4,4,0,0,1-.12-2.67A3.08,3.08,0,0,1,43,18.7,3.33,3.33,0,0,1,44.19,18.34Z"/></g></g></g></svg>