<svg xmlns="http://www.w3.org/2000/svg" viewBox="0 0 121.42 135.51"><defs><style>.cls-1{fill:#fff;}</style></defs><title>LINE Flea Market_Interactive Mirror Mock </title><g id="Layer_1" data-name="Layer 1"><path class="cls-1" d="M13.27,119.85a6.16,6.16,0,0,0-4.94-2.47c-2,0-3.13.85-3.13,2.1,0,3.76,11.09,2.08,11.09,9.48,0,3.82-3.22,6.55-8.06,6.55-4.31,0-6.85-1.71-8.23-3.78L2.93,129a6.46,6.46,0,0,0,5.36,2.63c2.31,0,3.59-.92,3.59-2.44,0-4.08-11.09-2.23-11.09-9.57,0-3.59,3.19-6.13,7.7-6.13a9.12,9.12,0,0,1,7.61,3.56Z"/><path class="cls-1" d="M28.24,117.81v17.24H24.13V117.81H17.87V114H34.53v3.86Z"/><path class="cls-1" d="M37.49,114H41.6v21.1H37.49Z"/><path class="cls-1" d="M61.45,119.52a7.53,7.53,0,0,0-5-1.91,6.9,6.9,0,1,0,5,11.88l2.73,3c-1.87,2-4.41,3-7.8,3a10.81,10.81,0,0,1-10.83-11,10.93,10.93,0,0,1,10.83-11,10.42,10.42,0,0,1,7.8,2.9Z"/><path class="cls-1" d="M67.44,114h4.12v8.69h2l6-8.69h4.64l-7.11,10.37,7.61,10.73h-5l-5.92-8.56H71.56v8.56H67.44Z"/><path class="cls-1" d="M87.75,114h13.66v3.86H91.86v4.67h8.23v3.88H91.86v4.81h9.55v3.88H87.75Z"/><path class="cls-1" d="M105.19,114h7.51c5,0,8.26,2.64,8.26,6.65a6.26,6.26,0,0,1-4.44,6.06l4.9,8.39h-4.77l-4.31-7.77h-3v7.77h-4.12Zm4.12,3.63v6.08H113c2.17,0,3.59-1.21,3.59-3.06s-1.42-3-3.59-3Z"/><path class="cls-1" d="M60.89,0a47.4,47.4,0,1,0,47.4,47.39A47.39,47.39,0,0,0,60.89,0Zm-19,25.56A7.93,7.93,0,1,1,34,33.49,7.93,7.93,0,0,1,41.88,25.56Zm19,57.09A25.82,25.82,0,0,1,35.07,56.83H86.72A25.83,25.83,0,0,1,60.89,82.65Zm19-41.24a7.93,7.93,0,1,1,7.93-7.92A7.93,7.93,0,0,1,79.91,41.41Z"/></g></svg>